<svg width="17" height="13" viewBox="0 0 17 13" fill="none" xmlns="http://www.w3.org/2000/svg">
<path d="M15.3815 4.7252H15.9731C16.2997 4.7252 16.5647 4.46016 16.5647 4.1336C16.5647 3.80704 16.2997 3.542 15.9731 3.542H14.5332L13.6198 2.01982C13.0885 1.1342 12.1165 0.584015 11.0836 0.584015H5.48115C4.44822 0.584015 3.47623 1.1342 2.94497 2.01982L2.03155 3.542H0.591598C0.265036 3.542 0 3.80704 0 4.1336C0 4.46016 0.265036 4.7252 0.591598 4.7252H1.1832L0.828237 5.19848C0.294024 5.91076 0 6.79283 0 7.68319V10.6412C0 11.6197 0.796291 12.416 1.77479 12.416H2.95799C3.93649 12.416 4.73278 11.6197 4.73278 10.6412H11.832C11.832 11.6197 12.6282 12.416 13.6067 12.416H14.7899C15.7684 12.416 16.5647 11.6197 16.5647 10.6412V7.68319C16.5647 6.79283 16.2707 5.91017 15.7365 5.19848L15.3815 4.7252ZM3.95956 2.62917C4.27843 2.09791 4.86116 1.76721 5.48115 1.76721H11.0842C11.7042 1.76721 12.2869 2.09732 12.6058 2.62917L13.4009 3.95435L12.9897 4.22826C12.5022 4.55304 11.9349 4.7252 11.3486 4.7252H5.21553C4.62984 4.7252 4.0625 4.55364 3.57503 4.22885L3.16386 3.95435L3.95897 2.62858L3.95956 2.62917ZM15.3821 10.6412C15.3821 10.9671 15.1165 11.2328 14.7905 11.2328H13.6073C13.2814 11.2328 13.0157 10.9671 13.0157 10.6412V10.0496C13.0157 9.72302 12.7507 9.45798 12.4241 9.45798H4.14118C3.81462 9.45798 3.54959 9.72302 3.54959 10.0496V10.6412C3.54959 10.9671 3.28396 11.2328 2.95799 11.2328H1.77479C1.44882 11.2328 1.1832 10.9671 1.1832 10.6412V7.68319C1.1832 7.04722 1.39321 6.41658 1.77479 5.9084L2.50364 4.9364L2.91894 5.21327C3.60165 5.66821 4.39557 5.9084 5.21553 5.9084H11.3486C12.1692 5.9084 12.9631 5.66761 13.6458 5.21268L14.0605 4.9364L14.7894 5.9084C15.1709 6.41658 15.3809 7.04722 15.3809 7.68319V10.6412H15.3821Z" fill="white"/>
<path d="M13.6068 8.27481C13.9335 8.27481 14.1984 8.00994 14.1984 7.68321C14.1984 7.35648 13.9335 7.09161 13.6068 7.09161C13.2801 7.09161 13.0152 7.35648 13.0152 7.68321C13.0152 8.00994 13.2801 8.27481 13.6068 8.27481Z" fill="white"/>
<path d="M2.95802 8.27481C3.28475 8.27481 3.54962 8.00994 3.54962 7.68321C3.54962 7.35648 3.28475 7.09161 2.95802 7.09161C2.63129 7.09161 2.36642 7.35648 2.36642 7.68321C2.36642 8.00994 2.63129 8.27481 2.95802 8.27481Z" fill="white"/>
</svg>
