<svg width="19" height="17" viewBox="0 0 19 17" fill="none" xmlns="http://www.w3.org/2000/svg">
<path d="M14.8364 7.95895C15.4259 7.14399 15.7442 6.16753 15.7442 5.14209C15.7442 3.85481 15.2429 2.64464 14.3327 1.73443C12.5678 -0.0304501 9.76341 -0.137632 7.87211 1.41299C5.98098 -0.137454 3.17638 -0.0304501 1.41149 1.73443C0.501286 2.64464 0 3.85481 0 5.14209C0 6.42934 0.501286 7.63951 1.41149 8.54972L7.87211 15.0103L9.53893 13.3435C10.024 15.2558 11.7597 16.6748 13.8207 16.6748C16.2562 16.6748 18.2376 14.6934 18.2376 12.2579C18.2376 10.1718 16.7839 8.41899 14.8364 7.95895ZM2.16711 2.49005C2.89836 1.75883 3.85865 1.3933 4.81919 1.3933C5.77948 1.3933 6.74002 1.75894 7.47102 2.48991L7.87211 2.89128L8.27301 2.49001C9.73534 1.02772 12.1147 1.02769 13.5771 2.49001C14.2854 3.1984 14.6756 4.14027 14.6756 5.14209C14.6756 5.30748 14.6647 5.47115 14.6438 5.63248H8.81451L7.78163 7.3736L4.30515 3.54235L2.98285 5.63244H1.10042C1.07948 5.47115 1.06861 5.30744 1.06861 5.14209C1.06861 4.14027 1.45876 3.1984 2.16711 2.49005ZM2.16711 7.7941C1.84549 7.47249 1.58974 7.10267 1.40608 6.70106H3.5713L4.45746 5.30039L7.96255 9.16314L9.42309 6.70106H14.3381C14.1544 7.10267 13.8987 7.47249 13.5771 7.7941L13.5198 7.85138C11.3236 7.99988 9.56276 9.76074 9.41425 11.9569L7.87211 13.4991L2.16711 7.7941ZM13.8207 15.6062C11.9744 15.6062 10.4724 14.1041 10.4724 12.2578C10.4724 10.4116 11.9744 8.90952 13.8207 8.90952C15.667 8.90952 17.169 10.4116 17.169 12.2578C17.169 14.1041 15.667 15.6062 13.8207 15.6062Z" fill="white"/>
<path d="M14.3551 10.2339H13.2865V11.7235H11.7968V12.7922H13.2865V14.2818H14.3551V12.7922H15.8447V11.7235H14.3551V10.2339Z" fill="white"/>
</svg>
