<svg width="14" height="15" viewBox="0 0 14 15" fill="none" xmlns="http://www.w3.org/2000/svg">
<path d="M13.311 1.60362C12.5266 0.522678 11.7024 0.0192336 10.7175 0.0192336C10.0798 0.0192336 9.46099 0.22842 8.86364 0.43029L8.84387 0.436948C8.20658 0.650984 7.60466 0.853266 6.95516 0.853266C6.30429 0.853266 5.66636 0.634298 5.04547 0.421331C4.43639 0.214118 3.80666 0 3.17628 0C2.18644 0 1.38167 0.513636 0.644012 1.61587C-0.516363 3.34435 0.142461 5.19529 0.673908 6.68804C0.91058 7.35217 1.13407 7.9794 1.13407 8.45301C1.13407 10.8847 1.63546 15 3.51477 15C4.80092 15 5.19663 13.4716 5.5467 12.1193C5.91838 10.6958 6.24024 9.68815 7.0008 9.68815C7.65697 9.68815 7.90803 10.3405 8.25609 11.9045C8.55729 13.2709 8.93211 14.9712 10.5128 14.9712C12.7184 14.9712 12.8898 9.9797 12.8898 8.44989C12.8898 8.00085 13.1059 7.37889 13.3348 6.72034L13.3439 6.69404C13.8704 5.17055 14.5257 3.27465 13.311 1.60362ZM12.2073 6.28306L12.199 6.30739C11.9343 7.06893 11.6844 7.78822 11.6844 8.4498C11.6844 9.90178 11.5351 11.3092 11.2746 12.3112C10.9704 13.4819 10.6215 13.7382 10.5128 13.7382C10.0287 13.7382 9.79634 13.2857 9.43077 11.6274C9.13278 10.2886 8.72477 8.45506 7.0008 8.45506C5.25578 8.45506 4.75077 10.3889 4.38046 11.8075C4.17842 12.5877 3.8732 13.7669 3.51485 13.7669C3.45924 13.7669 3.1091 13.5197 2.78853 12.3447C2.50323 11.2992 2.33969 9.88065 2.33969 8.45284C2.33969 7.76158 2.08076 7.03498 1.80487 6.26071C1.32502 4.91279 0.828849 3.51893 1.63844 2.31297C2.27516 1.36123 2.77318 1.23292 3.17628 1.23292C3.61153 1.23292 4.12329 1.40693 4.66591 1.59146C5.34161 1.82333 6.1074 2.08619 6.95508 2.08619C7.79737 2.08619 8.55319 1.83237 9.21997 1.60839L9.24079 1.6014C9.77199 1.42181 10.2739 1.25224 10.7175 1.25224C11.1314 1.25224 11.6483 1.38129 12.3433 2.33894C13.1752 3.48309 12.6832 4.90654 12.2073 6.28306Z" fill="#5757FF"/>
</svg>
