<svg width="155" height="30" viewBox="0 0 155 30" fill="none" xmlns="http://www.w3.org/2000/svg">
<path d="M6.59609 16.2563L3.67241 11.037H2.08314V16.2563H0V3.20897H4.38473C5.35982 3.20897 6.18453 3.38462 6.86045 3.73431C7.53636 4.08562 8.04132 4.55404 8.3769 5.14281C8.7109 5.73158 8.87869 6.38866 8.87869 7.11406C8.87869 7.96469 8.63808 8.73725 8.15687 9.43336C7.67566 10.1279 6.93484 10.6011 5.93759 10.85L9.07972 16.2563H6.59451H6.59609ZM2.08314 9.32927H4.38473C5.16354 9.32927 5.75239 9.12922 6.14812 8.72911C6.54386 8.32901 6.74172 7.79066 6.74172 7.11406C6.74172 6.43746 6.54702 5.90886 6.15762 5.52828C5.76822 5.14606 5.1762 4.95577 4.38473 4.95577H2.08314V9.32927Z" fill="white"/>
<path d="M10.2305 8.27696C10.6516 7.47675 11.223 6.85382 11.948 6.40817C12.673 5.96416 13.474 5.74133 14.3509 5.74133C15.1424 5.74133 15.8341 5.90072 16.4246 6.21951C17.015 6.53829 17.4867 6.93677 17.8413 7.41169V5.91048H19.9418V16.2547H17.8413V14.7144C17.4883 15.2023 17.0071 15.609 16.3977 15.9342C15.7882 16.2595 15.0933 16.4222 14.3145 16.4222C13.4486 16.4222 12.6572 16.1945 11.9385 15.7374C11.2199 15.2804 10.65 14.6429 10.2305 13.8231C9.80947 13.0034 9.60052 12.0747 9.60052 11.0354C9.60052 9.99611 9.81105 9.07717 10.2305 8.27533V8.27696ZM17.4107 9.21541C17.1242 8.69007 16.7491 8.28997 16.2868 8.01347C15.823 7.7386 15.3244 7.60036 14.7878 7.60036C14.2512 7.60036 13.7526 7.73535 13.2888 8.00371C12.825 8.2737 12.4514 8.6673 12.1649 9.18614C11.8784 9.70497 11.7359 10.3214 11.7359 11.0354C11.7359 11.7494 11.8784 12.3756 12.1649 12.9123C12.4514 13.4507 12.8281 13.8605 13.2983 14.1419C13.7668 14.4233 14.2639 14.5648 14.7878 14.5648C15.3118 14.5648 15.823 14.4265 16.2868 14.1517C16.7491 13.8768 17.1242 13.4734 17.4107 12.9416C17.6972 12.4097 17.8397 11.7868 17.8397 11.0728C17.8397 10.3588 17.6957 9.73913 17.4107 9.21379V9.21541Z" fill="white"/>
<path d="M25.2811 6.2309C25.8905 5.90561 26.5791 5.74297 27.3452 5.74297C28.2222 5.74297 29.0231 5.96579 29.7481 6.40981C30.4731 6.85383 31.0429 7.47675 31.4561 8.27859C31.8708 9.08043 32.0766 9.99937 32.0766 11.0387C32.0766 12.078 31.8692 13.0067 31.4561 13.8264C31.0414 14.6461 30.4731 15.2853 29.7481 15.7407C29.0231 16.1977 28.2222 16.4254 27.3452 16.4254C26.5775 16.4254 25.8952 16.266 25.2985 15.9473C24.7017 15.6285 24.2142 15.2316 23.8374 14.7551V21.1763H21.7543V5.91212H23.8374V7.43284C24.1904 6.95792 24.6716 6.55619 25.2811 6.2309ZM29.5297 9.18777C29.2431 8.66894 28.8648 8.27371 28.3963 8.00535C27.9277 7.73698 27.4244 7.60199 26.8893 7.60199C26.3543 7.60199 25.8683 7.74024 25.3998 8.01511C24.9312 8.28997 24.5529 8.69171 24.2664 9.21705C23.9799 9.74239 23.8374 10.3621 23.8374 11.0761C23.8374 11.7901 23.9799 12.413 24.2664 12.9449C24.5529 13.4767 24.9296 13.8801 25.3998 14.1549C25.8683 14.4298 26.3654 14.568 26.8893 14.568C27.4133 14.568 27.9277 14.4265 28.3963 14.1452C28.8648 13.8638 29.2431 13.4539 29.5297 12.9156C29.8162 12.3772 29.9586 11.751 29.9586 11.0387C29.9586 10.3263 29.8146 9.70823 29.5297 9.1894V9.18777Z" fill="white"/>
<path d="M36.8223 6.2309C37.4317 5.90561 38.1203 5.74297 38.8864 5.74297C39.7633 5.74297 40.5643 5.96579 41.2893 6.40981C42.0143 6.85383 42.5841 7.47675 42.9973 8.27859C43.412 9.08043 43.6178 9.99937 43.6178 11.0387C43.6178 12.078 43.4104 13.0067 42.9973 13.8264C42.5826 14.6461 42.0143 15.2853 41.2893 15.7407C40.5643 16.1977 39.7633 16.4254 38.8864 16.4254C38.1187 16.4254 37.4364 16.266 36.8397 15.9473C36.2429 15.6285 35.7554 15.2316 35.3786 14.7551V21.1763H33.2955V5.91212H35.3786V7.43284C35.7316 6.95792 36.2128 6.55619 36.8223 6.2309ZM41.0709 9.18777C40.7843 8.66894 40.406 8.27371 39.9375 8.00535C39.4689 7.73698 38.9655 7.60199 38.4305 7.60199C37.8955 7.60199 37.4095 7.74024 36.941 8.01511C36.4724 8.28997 36.0941 8.69171 35.8076 9.21705C35.5211 9.74239 35.3786 10.3621 35.3786 11.0761C35.3786 11.7901 35.5211 12.413 35.8076 12.9449C36.0941 13.4767 36.4708 13.8801 36.941 14.1549C37.4095 14.4298 37.9066 14.568 38.4305 14.568C38.9545 14.568 39.4689 14.4265 39.9375 14.1452C40.406 13.8638 40.7843 13.4539 41.0709 12.9156C41.3574 12.3772 41.4998 11.751 41.4998 11.0387C41.4998 10.3263 41.3558 9.70823 41.0709 9.1894V9.18777Z" fill="white"/>
<path d="M44.9016 4.14742C44.6451 3.88394 44.5185 3.55865 44.5185 3.17156C44.5185 2.78446 44.6467 2.45755 44.9016 2.19569C45.158 1.93221 45.4746 1.80209 45.8513 1.80209C46.2281 1.80209 46.5272 1.93384 46.7837 2.19569C47.0385 2.45918 47.1667 2.78446 47.1667 3.17156C47.1667 3.55865 47.0385 3.88557 46.7837 4.14742C46.5272 4.41091 46.217 4.54102 45.8513 4.54102C45.4857 4.54102 45.1564 4.40928 44.9016 4.14742ZM46.8755 5.91211V16.2563H44.7923V5.91211H46.8755Z" fill="white"/>
<path d="M49.0362 6.26831C49.6139 5.25503 50.4006 4.46295 51.3931 3.8937C52.3856 3.32445 53.4731 3.03982 54.654 3.03982C56.0058 3.03982 57.2089 3.38137 58.2631 4.06285C59.3173 4.74596 60.0819 5.71206 60.5568 6.9628H58.0541C57.7249 6.27481 57.269 5.76086 56.6833 5.42256C56.0992 5.08426 55.4233 4.91511 54.6556 4.91511C53.815 4.91511 53.0663 5.10865 52.4078 5.49737C51.7509 5.88609 51.2348 6.44234 50.8644 7.16773C50.4925 7.89312 50.3072 8.73887 50.3072 9.70173C50.3072 10.6646 50.4925 11.5103 50.8644 12.2357C51.2364 12.9611 51.7509 13.5222 52.4078 13.9158C53.0663 14.3094 53.815 14.5079 54.6556 14.5079C55.4233 14.5079 56.0992 14.3387 56.6833 14.0004C57.2674 13.6621 57.7249 13.1498 58.0541 12.4602H60.5568C60.0819 13.7125 59.3173 14.6754 58.2631 15.352C57.2089 16.0286 56.0058 16.3653 54.654 16.3653C53.4605 16.3653 52.3698 16.0806 51.3836 15.5114C50.3975 14.9421 49.6139 14.15 49.0362 13.1368C48.4568 12.1235 48.1687 10.9785 48.1687 9.70173C48.1687 8.42497 48.4584 7.27995 49.0362 6.26668V6.26831Z" fill="white"/>
<path d="M61.915 8.27696C62.336 7.47675 62.9075 6.85382 63.6325 6.40817C64.3574 5.96416 65.1584 5.74133 66.0354 5.74133C66.8268 5.74133 67.5186 5.90072 68.109 6.21951C68.6994 6.53829 69.1712 6.93677 69.5257 7.41169V5.91048H71.6263V16.2547H69.5257V14.7144C69.1727 15.2023 68.6915 15.609 68.0821 15.9342C67.4727 16.2595 66.7778 16.4222 65.999 16.4222C65.1331 16.4222 64.3416 16.1945 63.623 15.7374C62.9043 15.2804 62.3345 14.6429 61.915 13.8231C61.4939 13.0034 61.285 12.0747 61.285 11.0354C61.285 9.99611 61.4955 9.07717 61.915 8.27533V8.27696ZM69.0968 9.21541C68.8103 8.69007 68.4351 8.28997 67.9729 8.01347C67.5091 7.7386 67.0105 7.60036 66.4738 7.60036C65.9372 7.60036 65.4386 7.73535 64.9748 8.00371C64.511 8.2737 64.1374 8.6673 63.8509 9.18614C63.5644 9.70497 63.4219 10.3214 63.4219 11.0354C63.4219 11.7494 63.5644 12.3756 63.8509 12.9123C64.1374 13.4507 64.5142 13.8605 64.9843 14.1419C65.4528 14.4233 65.9499 14.5648 66.4738 14.5648C66.9978 14.5648 67.5091 14.4265 67.9729 14.1517C68.4351 13.8768 68.8103 13.4734 69.0968 12.9416C69.3833 12.4097 69.5257 11.7868 69.5257 11.0728C69.5257 10.3588 69.3817 9.73913 69.0968 9.21379V9.21541Z" fill="white"/>
<path d="M76.736 6.18373C77.2409 5.88935 77.8409 5.74297 78.5358 5.74297V7.95818H78.0055C77.1887 7.95818 76.5713 8.17124 76.1503 8.59574C75.7308 9.02187 75.5203 9.76028 75.5203 10.811V16.2563H73.4371V5.91212H75.5203V7.41332C75.8242 6.88798 76.2294 6.47812 76.736 6.18373Z" fill="white"/>
<path d="M79.3367 8.27696C79.7578 7.47676 80.3292 6.85383 81.0542 6.40818C81.7792 5.96416 82.5865 5.74134 83.4761 5.74134C84.133 5.74134 84.782 5.88935 85.4215 6.18211C86.061 6.47649 86.5692 6.86684 86.9475 7.35477V2.36322H89.048V16.2563H86.9475V14.6982C86.6056 15.1991 86.1339 15.6122 85.5308 15.9375C84.9277 16.2628 84.2359 16.4254 83.4571 16.4254C82.5802 16.4254 81.7792 16.1977 81.0542 15.7407C80.3292 15.2837 79.7578 14.6461 79.3367 13.8264C78.9157 13.0067 78.7067 12.078 78.7067 11.0387C78.7067 9.99937 78.9173 9.08043 79.3367 8.27859V8.27696ZM86.5169 9.21542C86.2304 8.69008 85.8553 8.28998 85.3931 8.01348C84.9293 7.73861 84.4306 7.60036 83.894 7.60036C83.3574 7.60036 82.8588 7.73536 82.395 8.00372C81.9312 8.27371 81.5576 8.66731 81.2711 9.18615C80.9846 9.70498 80.8421 10.3214 80.8421 11.0354C80.8421 11.7494 80.9846 12.3756 81.2711 12.9123C81.5576 13.4507 81.9343 13.8605 82.4045 14.1419C82.873 14.4233 83.3701 14.5648 83.894 14.5648C84.418 14.5648 84.9293 14.4265 85.3931 14.1517C85.8553 13.8768 86.2304 13.4734 86.5169 12.9416C86.8034 12.4098 86.9459 11.7868 86.9459 11.0728C86.9459 10.3588 86.8019 9.73914 86.5169 9.2138V9.21542Z" fill="white"/>
<path d="M96.5685 15.7781C95.8151 15.3162 95.2262 14.6738 94.802 13.8492C94.3778 13.0245 94.1656 12.0991 94.1656 11.0696C94.1656 10.04 94.3778 9.11783 94.802 8.29973C95.2262 7.48163 95.8119 6.84244 96.559 6.38053C97.3062 5.91862 98.1546 5.68767 99.1028 5.68767C100.584 5.68767 101.786 6.36101 102.71 7.70608H102.881V6.08452H104.458V16.0741H102.881V14.433H102.71C101.811 15.7911 100.61 16.471 99.1028 16.471C98.1657 16.471 97.3204 16.24 96.5685 15.7781ZM101.135 14.4818C101.68 14.1452 102.104 13.68 102.408 13.088C102.712 12.4943 102.864 11.8226 102.864 11.0712C102.864 10.3198 102.712 9.66757 102.408 9.07392C102.104 8.48027 101.68 8.01511 101.135 7.68006C100.591 7.34339 99.9829 7.17586 99.3134 7.17586C98.6438 7.17586 98.0154 7.34339 97.4708 7.68006C96.9263 8.01673 96.5021 8.4819 96.1981 9.07392C95.8942 9.66757 95.7423 10.3328 95.7423 11.0712C95.7423 11.8096 95.8942 12.4781 96.1981 13.0782C96.5021 13.6784 96.9263 14.1468 97.4708 14.4818C98.0154 14.8185 98.6295 14.986 99.3134 14.986C99.9972 14.986 100.592 14.8185 101.135 14.4818Z" fill="white"/>
<path d="M107.155 15.4707C106.395 14.8055 106.016 13.8784 106.016 12.6911H107.535C107.548 13.4165 107.811 13.9972 108.323 14.4314C108.836 14.8673 109.536 15.0836 110.421 15.0836C111.143 15.0836 111.719 14.9356 112.149 14.638C112.58 14.342 112.795 13.9288 112.795 13.4019C112.795 12.9936 112.675 12.6862 112.434 12.4813C112.194 12.2764 111.909 12.1349 111.58 12.0568C111.25 11.9771 110.737 11.8925 110.041 11.7998C108.889 11.6551 107.958 11.3753 107.25 10.959C106.541 10.5442 106.186 9.82858 106.186 8.81206C106.186 7.8492 106.538 7.08803 107.241 6.52691C107.944 5.96578 108.876 5.68604 110.041 5.68604C111.206 5.68604 112.214 5.99343 112.955 6.6066C113.696 7.21977 114.066 8.04112 114.066 9.06903H112.528C112.515 8.46237 112.281 7.97769 111.825 7.615C111.369 7.2523 110.767 7.07176 110.02 7.07176C109.324 7.07176 108.76 7.22302 108.33 7.52717C107.899 7.83131 107.684 8.23955 107.684 8.75351C107.684 9.13572 107.801 9.43011 108.035 9.63341C108.27 9.83834 108.555 9.97659 108.89 10.0482C109.226 10.1213 109.729 10.1962 110.4 10.2759C111.147 10.3686 111.796 10.5101 112.346 10.7004C112.897 10.8923 113.356 11.2013 113.723 11.6307C114.09 12.0601 114.274 12.6423 114.274 13.3807C114.274 14.3566 113.929 15.1145 113.238 15.6561C112.548 16.1961 111.589 16.4677 110.362 16.4677C108.982 16.4677 107.913 16.1343 107.154 15.4691L107.155 15.4707Z" fill="white"/>
<path d="M116.553 15.4707C115.793 14.8055 115.413 13.8784 115.413 12.6911H116.933C116.946 13.4165 117.208 13.9972 117.721 14.4314C118.234 14.8673 118.934 15.0836 119.819 15.0836C120.541 15.0836 121.117 14.9356 121.547 14.638C121.978 14.342 122.193 13.9288 122.193 13.4019C122.193 12.9936 122.073 12.6862 121.832 12.4813C121.592 12.2764 121.307 12.1349 120.977 12.0568C120.648 11.9771 120.135 11.8925 119.439 11.7998C118.286 11.6551 117.356 11.3753 116.648 10.959C115.939 10.5442 115.584 9.82858 115.584 8.81206C115.584 7.8492 115.936 7.08803 116.639 6.52691C117.341 5.96578 118.274 5.68604 119.439 5.68604C120.604 5.68604 121.612 5.99343 122.353 6.6066C123.094 7.21977 123.464 8.04112 123.464 9.06903H121.926C121.913 8.46237 121.679 7.97769 121.223 7.615C120.767 7.2523 120.165 7.07176 119.418 7.07176C118.722 7.07176 118.158 7.22302 117.728 7.52717C117.297 7.83131 117.082 8.23955 117.082 8.75351C117.082 9.13572 117.199 9.43011 117.433 9.63341C117.667 9.83834 117.952 9.97659 118.288 10.0482C118.624 10.1213 119.127 10.1962 119.798 10.2759C120.545 10.3686 121.194 10.5101 121.744 10.7004C122.294 10.8923 122.753 11.2013 123.121 11.6307C123.488 12.0601 123.672 12.6423 123.672 13.3807C123.672 14.3566 123.326 15.1145 122.636 15.6561C121.946 16.1961 120.987 16.4677 119.76 16.4677C118.38 16.4677 117.311 16.1343 116.552 15.4691L116.553 15.4707Z" fill="white"/>
<path d="M125.364 3.84979C125.148 3.62534 125.041 3.34234 125.041 2.99916C125.041 2.65598 125.148 2.39575 125.364 2.17781C125.579 1.95986 125.851 1.85089 126.181 1.85089C126.51 1.85089 126.779 1.95661 126.988 2.16805C127.197 2.37948 127.301 2.65598 127.301 2.99916C127.301 3.34234 127.197 3.62534 126.988 3.84979C126.779 4.07424 126.51 4.18646 126.181 4.18646C125.851 4.18646 125.579 4.07424 125.364 3.84979ZM126.959 16.0741H125.384V6.08452H126.959V16.0741Z" fill="white"/>
<path d="M129.807 15.4707C129.047 14.8055 128.667 13.8784 128.667 12.6911H130.187C130.2 13.4165 130.462 13.9972 130.975 14.4314C131.488 14.8673 132.188 15.0836 133.073 15.0836C133.794 15.0836 134.371 14.9356 134.801 14.638C135.232 14.342 135.447 13.9288 135.447 13.4019C135.447 12.9936 135.327 12.6862 135.086 12.4813C134.845 12.2764 134.561 12.1349 134.231 12.0568C133.902 11.9771 133.389 11.8925 132.693 11.7998C131.54 11.6551 130.61 11.3753 129.902 10.959C129.193 10.5442 128.838 9.82858 128.838 8.81206C128.838 7.8492 129.19 7.08803 129.892 6.52691C130.595 5.96578 131.528 5.68604 132.693 5.68604C133.858 5.68604 134.866 5.99343 135.607 6.6066C136.348 7.21977 136.718 8.04112 136.718 9.06903H135.179C135.167 8.46237 134.933 7.97769 134.477 7.615C134.021 7.2523 133.419 7.07176 132.672 7.07176C131.976 7.07176 131.412 7.22302 130.982 7.52717C130.551 7.83131 130.336 8.23955 130.336 8.75351C130.336 9.13572 130.453 9.43011 130.687 9.63341C130.921 9.83834 131.206 9.97659 131.542 10.0482C131.877 10.1213 132.381 10.1962 133.052 10.2759C133.799 10.3686 134.448 10.5101 134.997 10.7004C135.548 10.8923 136.007 11.2013 136.375 11.6307C136.742 12.0601 136.925 12.6423 136.925 13.3807C136.925 14.3566 136.58 15.1145 135.89 15.6561C135.2 16.1961 134.241 16.4677 133.014 16.4677C131.634 16.4677 130.565 16.1343 129.805 15.4691L129.807 15.4707Z" fill="white"/>
<path d="M140.041 15.6399C139.56 15.0999 139.319 14.3875 139.319 13.5027V7.39055H137.761V6.08452H139.319L139.68 2.86091H140.915L140.896 6.08452H143.363V7.39055H140.896V13.4442C140.896 13.9191 141.028 14.3078 141.294 14.612C141.56 14.9161 141.921 15.0674 142.377 15.0674C142.529 15.0674 142.713 15.0478 142.928 15.0088C143.143 14.9698 143.34 14.9226 143.517 14.8706V16.1961C143.023 16.3669 142.504 16.4531 141.959 16.4531C141.161 16.4531 140.522 16.1831 140.041 15.6415V15.6399Z" fill="white"/>
<path d="M150.452 0C148.441 0 146.813 1.67361 146.813 3.73919V7.47838H150.452C152.462 7.47838 154.091 5.80477 154.091 3.73919C154.091 1.67361 152.462 0 150.452 0Z" fill="white"/>
<path d="M126.238 22.0946C126.51 22.0946 126.665 22.1983 126.759 22.4543C126.884 22.7887 127.013 23.1231 127.131 23.4621C127.197 23.6512 127.317 23.785 127.519 23.7826C127.716 23.7803 127.846 23.6604 127.904 23.4621C128.003 23.1415 128.123 22.8256 128.233 22.5073C128.335 22.2214 128.471 22.1015 128.697 22.0992C128.915 22.0992 129.068 22.2283 129.167 22.5004C129.275 22.8048 129.385 23.1093 129.494 23.4137C129.585 23.6696 129.724 23.8011 129.91 23.7873C130.14 23.7711 130.241 23.6143 130.307 23.4183C130.417 23.0862 130.533 22.7541 130.653 22.4243C130.739 22.1845 130.939 22.0761 131.221 22.0969C131.449 22.113 131.623 22.2398 131.659 22.4451C131.673 22.535 131.661 22.6388 131.63 22.7264C131.25 23.7665 130.866 24.8043 130.479 25.842C130.394 26.068 130.208 26.1879 129.957 26.1787C129.726 26.1718 129.536 26.098 129.444 25.8605C129.329 25.5515 129.197 25.247 129.075 24.9403C129.012 24.7835 128.903 24.6982 128.727 24.6913C128.551 24.6843 128.426 24.7581 128.365 24.9173C128.257 25.1848 128.158 25.4569 128.055 25.7244C127.902 26.1234 127.627 26.2756 127.26 26.1326C127.145 26.0865 127.018 25.9735 126.973 25.8628C126.564 24.8181 126.167 23.7688 125.779 22.7172C125.647 22.3621 125.854 22.0992 126.238 22.0969V22.0946Z" fill="white"/>
<path d="M149.257 26.1787C149.048 26.1626 148.858 26.0911 148.768 25.8559C148.663 25.5722 148.547 25.2932 148.439 25.0095C148.366 24.8227 148.263 24.6867 148.03 24.689C147.804 24.6913 147.71 24.8342 147.645 25.0095C147.541 25.2793 147.442 25.5515 147.341 25.8213C147.247 26.0657 147.08 26.1787 146.812 26.181C146.556 26.181 146.373 26.0565 146.283 25.8213C145.898 24.8112 145.51 23.8034 145.124 22.7956C145.002 22.4751 145.089 22.2329 145.367 22.1291C145.616 22.0369 145.997 22.1338 146.088 22.4405C146.197 22.8025 146.354 23.1485 146.486 23.5036C146.547 23.6673 146.662 23.778 146.838 23.785C147.026 23.7919 147.156 23.6835 147.219 23.5128C147.348 23.1577 147.478 22.8025 147.591 22.4428C147.659 22.226 147.807 22.1291 148.016 22.1038C148.199 22.0807 148.378 22.2076 148.46 22.4197C148.597 22.7656 148.724 23.1139 148.846 23.4644C148.912 23.6512 149.013 23.7896 149.227 23.7896C149.438 23.7896 149.554 23.6604 149.619 23.4736C149.735 23.1415 149.847 22.8095 149.967 22.4797C150.08 22.1707 150.285 22.053 150.6 22.1015C150.898 22.1499 151.072 22.4151 150.971 22.6941C150.59 23.7411 150.202 24.7835 149.814 25.8282C149.723 26.0726 149.549 26.1787 149.26 26.181L149.257 26.1787Z" fill="white"/>
<path d="M135.298 22.0092C136.13 22.0023 136.8 22.2445 137.249 22.9063C137.834 23.7642 137.743 25.3577 136.577 25.985C135.594 26.5108 133.866 26.384 133.318 25.1248C132.949 24.2785 133.001 23.4321 133.615 22.7011C134.05 22.1822 134.668 21.9954 135.3 22.0115L135.298 22.0092ZM135.352 22.8763C134.611 22.8763 134.061 23.4183 134.068 24.1401C134.075 24.8688 134.623 25.4016 135.364 25.4016C136.097 25.4016 136.628 24.8735 136.631 24.1424C136.631 23.4044 136.102 22.8786 135.352 22.8763Z" fill="white"/>
<path d="M143.634 24.1931C143.629 24.9726 143.326 25.6737 142.515 26.0288C141.575 26.4393 140.639 26.3932 139.809 25.7244C139.435 25.4223 139.247 25.0049 139.184 24.5437C139.095 23.891 139.174 23.2661 139.623 22.7334C139.971 22.3183 140.432 22.1015 140.963 22.0323C141.612 21.9493 142.247 22.0115 142.797 22.3944C143.401 22.8141 143.629 23.4229 143.634 24.1908V24.1931ZM142.665 24.1332C142.661 23.3583 142.148 22.8694 141.347 22.874C140.632 22.8786 140.119 23.4229 140.124 24.1701C140.129 24.8804 140.665 25.3993 141.394 25.3993C142.148 25.3993 142.673 24.8781 142.665 24.1332Z" fill="white"/>
<path d="M138.549 30C137.797 29.9908 137.077 29.8685 136.462 29.4165C136.285 29.2874 136.125 29.1237 135.994 28.9484C135.775 28.6601 135.848 28.3004 136.137 28.1182C136.407 27.9475 136.807 28.0167 136.96 28.3188C137.435 29.2528 138.989 29.3128 139.675 28.81C139.854 28.6786 139.997 28.4872 140.124 28.305C140.286 28.0721 140.505 28.0052 140.764 28.0513C140.999 28.0928 141.173 28.2427 141.189 28.4756C141.201 28.6394 141.166 28.84 141.072 28.9715C140.641 29.578 139.993 29.8224 139.28 29.9377C139.038 29.9769 138.791 29.9792 138.547 30H138.549Z" fill="white"/>
<path d="M96.1511 24.7305C96.3603 24.8527 96.5248 25.0211 96.6447 25.2379C96.7646 25.4546 96.8258 25.6968 96.8258 25.9689C96.8258 26.241 96.767 26.4855 96.6471 26.7C96.5272 26.9167 96.365 27.0851 96.1558 27.2096C95.9465 27.3341 95.7161 27.3941 95.4599 27.3941C95.246 27.3941 95.0555 27.3503 94.8839 27.2627C94.7123 27.175 94.5807 27.0528 94.4819 26.896H94.4349V28.4895H94V24.6498H94.4349V25.0511H94.4819C94.5807 24.8919 94.7123 24.7674 94.8792 24.6775C95.0461 24.5875 95.2366 24.5437 95.4552 24.5437C95.7114 24.5437 95.9418 24.6037 96.1511 24.7259V24.7305ZM94.9004 25.0764C94.7523 25.1664 94.6347 25.2909 94.5478 25.4477C94.4608 25.6045 94.4185 25.7798 94.4185 25.9712C94.4185 26.1626 94.4608 26.3379 94.5478 26.497C94.6324 26.6561 94.7523 26.7807 94.9027 26.8706C95.0532 26.9605 95.2225 27.0067 95.4082 27.0067C95.5939 27.0067 95.7608 26.9605 95.9089 26.8706C96.057 26.7807 96.1746 26.6561 96.2615 26.497C96.3485 26.3379 96.3908 26.1626 96.3908 25.9712C96.3908 25.7798 96.3485 25.5999 96.2639 25.4431C96.1793 25.2863 96.0617 25.1641 95.9113 25.0741C95.7608 24.9865 95.5915 24.9404 95.4082 24.9404C95.2248 24.9404 95.0508 24.9865 94.9004 25.0764Z" fill="white"/>
<path d="M97.7779 27.2119C97.5616 27.0897 97.3947 26.9213 97.2724 26.7046C97.1525 26.4878 97.0914 26.2433 97.0914 25.9689C97.0914 25.6945 97.1525 25.45 97.2724 25.2356C97.3923 25.0211 97.5616 24.8527 97.7779 24.7305C97.9941 24.6083 98.2386 24.5483 98.516 24.5483C98.7934 24.5483 99.0332 24.6083 99.2519 24.7305C99.4681 24.8527 99.6374 25.0211 99.7596 25.2379C99.8819 25.4546 99.9407 25.6968 99.9407 25.9689C99.9407 26.241 99.8795 26.4901 99.7596 26.7046C99.6398 26.919 99.4705 27.0897 99.2519 27.2119C99.0332 27.3341 98.7887 27.3941 98.516 27.3941C98.2433 27.3941 97.9941 27.3341 97.7779 27.2119ZM99.0262 26.8706C99.1766 26.7807 99.2942 26.6584 99.3788 26.5016C99.4634 26.3448 99.5058 26.1672 99.5058 25.9689C99.5058 25.7706 99.4634 25.5976 99.3788 25.4408C99.2942 25.284 99.1766 25.1618 99.0262 25.0718C98.8757 24.9842 98.7065 24.9381 98.516 24.9381C98.3256 24.9381 98.1564 24.9819 98.0059 25.0718C97.8554 25.1618 97.7379 25.284 97.6533 25.4408C97.5686 25.5976 97.5263 25.7729 97.5263 25.9689C97.5263 26.1649 97.5686 26.3448 97.6533 26.5016C97.7379 26.6584 97.8554 26.7807 98.0059 26.8706C98.1564 26.9605 98.3256 27.0044 98.516 27.0044C98.7065 27.0044 98.8757 26.9605 99.0262 26.8706Z" fill="white"/>
<path d="M101.563 27.2903H100.942L100.054 24.6521H100.484L101.224 26.8614H101.271L101.864 24.6521H102.421L103.03 26.8683H103.077L103.801 24.6521H104.231L103.342 27.2903H102.717L102.165 25.1525H102.113L101.556 27.2903H101.563Z" fill="white"/>
<path d="M105.051 27.205C104.835 27.0805 104.664 26.9075 104.541 26.6861C104.419 26.4647 104.358 26.2157 104.358 25.9366C104.358 25.6576 104.419 25.4339 104.539 25.224C104.659 25.0142 104.828 24.8481 105.04 24.7282C105.254 24.6083 105.496 24.5483 105.764 24.5483C106.032 24.5483 106.269 24.6083 106.481 24.7282C106.692 24.8481 106.859 25.0142 106.977 25.224C107.097 25.4339 107.156 25.6737 107.156 25.9435C107.156 26.0196 107.156 26.0773 107.151 26.1165H104.802C104.833 26.384 104.939 26.6008 105.12 26.7622C105.301 26.9236 105.524 27.0044 105.794 27.0044C105.989 27.0044 106.17 26.9582 106.333 26.866C106.495 26.7738 106.62 26.6492 106.704 26.4924L107.066 26.6746C106.958 26.9006 106.791 27.0782 106.565 27.205C106.34 27.3318 106.079 27.3964 105.785 27.3964C105.512 27.3964 105.268 27.3341 105.049 27.2073L105.051 27.205ZM106.702 25.7314C106.664 25.4915 106.556 25.2978 106.384 25.1548C106.21 25.0096 105.999 24.9381 105.747 24.9381C105.496 24.9381 105.296 25.0119 105.124 25.1571C104.953 25.3024 104.849 25.4962 104.812 25.7314H106.702Z" fill="white"/>
<path d="M107.567 27.2903V24.6521H107.992V25.0072H108.039C108.098 24.8896 108.195 24.7905 108.329 24.7144C108.463 24.6383 108.601 24.5991 108.749 24.5991C108.883 24.5991 108.992 24.6221 109.076 24.6659V25.0672C108.954 25.0142 108.822 24.9888 108.681 24.9888C108.481 24.9888 108.319 25.0695 108.192 25.2309C108.065 25.3924 108.004 25.6045 108.004 25.8651V27.2857H107.569L107.567 27.2903Z" fill="white"/>
<path d="M109.826 27.205C109.61 27.0805 109.438 26.9075 109.316 26.6861C109.194 26.4647 109.133 26.2157 109.133 25.9366C109.133 25.6576 109.194 25.4339 109.314 25.224C109.434 25.0142 109.603 24.8481 109.814 24.7282C110.028 24.6083 110.27 24.5483 110.538 24.5483C110.806 24.5483 111.044 24.6083 111.255 24.7282C111.467 24.8481 111.634 25.0142 111.751 25.224C111.871 25.4339 111.93 25.6737 111.93 25.9435C111.93 26.0196 111.93 26.0773 111.925 26.1165H109.577C109.607 26.384 109.713 26.6008 109.894 26.7622C110.075 26.9236 110.299 27.0044 110.569 27.0044C110.764 27.0044 110.945 26.9582 111.107 26.866C111.27 26.7738 111.394 26.6492 111.479 26.4924L111.841 26.6746C111.733 26.9006 111.566 27.0782 111.34 27.205C111.114 27.3318 110.853 27.3964 110.56 27.3964C110.287 27.3964 110.042 27.3341 109.824 27.2073L109.826 27.205ZM111.476 25.7314C111.439 25.4915 111.331 25.2978 111.159 25.1548C110.985 25.0096 110.774 24.9381 110.522 24.9381C110.27 24.9381 110.071 25.0119 109.899 25.1571C109.727 25.3024 109.624 25.4962 109.586 25.7314H111.476Z" fill="white"/>
<path d="M112.885 27.2096C112.675 27.0851 112.508 26.9167 112.389 26.7C112.269 26.4832 112.208 26.241 112.208 25.9689C112.208 25.6968 112.266 25.4523 112.386 25.2379C112.506 25.0211 112.671 24.8527 112.88 24.7305C113.089 24.6083 113.322 24.5483 113.578 24.5483C113.792 24.5483 113.982 24.5921 114.152 24.6752C114.319 24.7605 114.453 24.8827 114.551 25.0441H114.603V23.4506H115.038V27.2903H114.603V26.8821H114.551C114.453 27.0459 114.321 27.1727 114.154 27.2603C113.987 27.3503 113.797 27.3941 113.585 27.3941C113.329 27.3941 113.096 27.3318 112.887 27.2096H112.885ZM114.133 26.8683C114.281 26.7784 114.399 26.6538 114.486 26.4947C114.57 26.3356 114.615 26.1603 114.615 25.9689C114.615 25.7775 114.573 25.6022 114.488 25.4454C114.403 25.2886 114.286 25.1641 114.135 25.0741C113.985 24.9842 113.816 24.9381 113.632 24.9381C113.449 24.9381 113.275 24.9842 113.124 25.0741C112.976 25.1641 112.859 25.2886 112.772 25.4454C112.685 25.6022 112.642 25.7775 112.642 25.9689C112.642 26.1603 112.685 26.3402 112.772 26.497C112.856 26.6538 112.976 26.7784 113.127 26.8683C113.277 26.9582 113.446 27.0044 113.632 27.0044C113.818 27.0044 113.985 26.9582 114.133 26.8683Z" fill="white"/>
<path d="M117.509 27.2603C117.342 27.1704 117.21 27.0459 117.111 26.8821H117.064V27.2903H116.63V23.4506H117.064V25.0441H117.111C117.21 24.885 117.344 24.7605 117.513 24.6752C117.683 24.5898 117.876 24.5483 118.089 24.5483C118.346 24.5483 118.576 24.6083 118.785 24.7305C118.995 24.8527 119.157 25.0211 119.277 25.2379C119.397 25.4546 119.455 25.6968 119.455 25.9689C119.455 26.241 119.394 26.4855 119.274 26.7C119.154 26.9167 118.99 27.0851 118.781 27.2096C118.571 27.3341 118.341 27.3941 118.085 27.3941C117.868 27.3941 117.676 27.3503 117.509 27.2603ZM118.541 26.866C118.691 26.7761 118.809 26.6515 118.893 26.4947C118.978 26.3379 119.02 26.1626 119.02 25.9666C119.02 25.7706 118.978 25.5999 118.893 25.4431C118.809 25.2863 118.691 25.1618 118.541 25.0718C118.39 24.9819 118.221 24.9358 118.038 24.9358C117.854 24.9358 117.68 24.9819 117.53 25.0718C117.382 25.1618 117.264 25.2863 117.177 25.4431C117.09 25.5999 117.048 25.7752 117.048 25.9666C117.048 26.158 117.09 26.3333 117.177 26.4924C117.262 26.6515 117.382 26.7761 117.532 26.866C117.683 26.9559 117.852 27.0021 118.038 27.0021C118.223 27.0021 118.39 26.9559 118.541 26.866Z" fill="white"/>
<path d="M119.808 28.4365C119.73 28.4203 119.662 28.4019 119.603 28.3765V27.996C119.737 28.049 119.853 28.0744 119.956 28.0744C120.059 28.0744 120.151 28.0467 120.224 27.9891C120.297 27.9314 120.356 27.8599 120.4 27.7746C120.445 27.6893 120.494 27.5763 120.551 27.4379L120.614 27.2857L119.432 24.6521H119.888L120.798 26.7161H120.849L121.628 24.6521H122.095L121.044 27.3318C120.939 27.5924 120.849 27.7977 120.772 27.943C120.694 28.0883 120.595 28.2128 120.476 28.3119C120.356 28.4111 120.205 28.4618 120.027 28.4618C119.961 28.4618 119.888 28.4549 119.81 28.4388L119.808 28.4365Z" fill="white"/>
</svg>
