<svg width="187" height="36" viewBox="0 0 187 36" fill="none" xmlns="http://www.w3.org/2000/svg">
<path d="M7.97758 19.661L4.44156 13.3486H2.51944V19.661H0V3.88105H5.30307C6.48238 3.88105 7.47982 4.0935 8.29729 4.51642C9.11477 4.94131 9.72548 5.50783 10.1314 6.21991C10.5353 6.932 10.7382 7.7267 10.7382 8.60402C10.7382 9.6328 10.4472 10.5672 9.86524 11.4091C9.28324 12.249 8.38727 12.8214 7.18116 13.1224L10.9814 19.661H7.97566H7.97758ZM2.51944 11.2832H5.30307C6.24499 11.2832 6.95717 11.0412 7.43578 10.5573C7.9144 10.0734 8.15371 9.42233 8.15371 8.60402C8.15371 7.78571 7.91823 7.14641 7.44727 6.68611C6.97631 6.22385 6.2603 5.9937 5.30307 5.9937H2.51944V11.2832Z" fill="white"/>
<path d="M12.3732 10.0105C12.8825 9.04268 13.5736 8.28929 14.4504 7.75031C15.3272 7.21329 16.296 6.9438 17.3566 6.9438C18.3138 6.9438 19.1504 7.13658 19.8645 7.52213C20.5786 7.90767 21.1491 8.38961 21.578 8.964V7.14838H24.1185V19.659H21.578V17.7962C21.151 18.3863 20.569 18.8781 19.832 19.2715C19.0949 19.6649 18.2545 19.8616 17.3125 19.8616C16.2653 19.8616 15.3081 19.5863 14.4389 19.0335C13.5698 18.4807 12.8806 17.7097 12.3732 16.7182C11.864 15.7268 11.6113 14.6036 11.6113 13.3467C11.6113 12.0897 11.8659 10.9783 12.3732 10.0085V10.0105ZM21.0572 11.1455C20.7107 10.5101 20.257 10.0262 19.698 9.69182C19.137 9.35938 18.534 9.19218 17.885 9.19218C17.236 9.19218 16.6329 9.35545 16.072 9.68002C15.511 10.0066 15.0592 10.4826 14.7127 11.1101C14.3662 11.7376 14.1939 12.4831 14.1939 13.3467C14.1939 14.2102 14.3662 14.9675 14.7127 15.6167C15.0592 16.2678 15.5149 16.7635 16.0835 17.1038C16.6501 17.4441 17.2513 17.6152 17.885 17.6152C18.5187 17.6152 19.137 17.448 19.698 17.1156C20.257 16.7832 20.7107 16.2953 21.0572 15.6521C21.4038 15.0088 21.5761 14.2555 21.5761 13.3919C21.5761 12.5284 21.4018 11.7789 21.0572 11.1435V11.1455Z" fill="white"/>
<path d="M30.5759 7.5359C31.313 7.14248 32.1458 6.94577 33.0724 6.94577C34.133 6.94577 35.1017 7.21526 35.9785 7.75227C36.8554 8.28929 37.5446 9.04268 38.0442 10.0125C38.5458 10.9822 38.7947 12.0936 38.7947 13.3506C38.7947 14.6076 38.5439 15.7308 38.0442 16.7222C37.5427 17.7136 36.8554 18.4866 35.9785 19.0374C35.1017 19.5902 34.133 19.8656 33.0724 19.8656C32.1439 19.8656 31.3187 19.6728 30.597 19.2873C29.8752 18.9017 29.2856 18.4217 28.8299 17.8454V25.6114H26.3105V7.15035H28.8299V8.98957C29.2568 8.41518 29.8388 7.92931 30.5759 7.5359ZM35.7143 11.1121C35.3678 10.4846 34.9103 10.0066 34.3436 9.68198C33.7769 9.35741 33.1681 9.19415 32.521 9.19415C31.8739 9.19415 31.2862 9.36135 30.7195 9.69379C30.1528 10.0262 29.6953 10.5121 29.3487 11.1475C29.0022 11.7828 28.8299 12.5323 28.8299 13.3958C28.8299 14.2594 29.0022 15.0128 29.3487 15.656C29.6953 16.2993 30.1509 16.7871 30.7195 17.1195C31.2862 17.452 31.8873 17.6192 32.521 17.6192C33.1547 17.6192 33.7769 17.448 34.3436 17.1077C34.9103 16.7674 35.3678 16.2717 35.7143 15.6206C36.0609 14.9695 36.2332 14.2122 36.2332 13.3506C36.2332 12.489 36.0589 11.7415 35.7143 11.114V11.1121Z" fill="white"/>
<path d="M44.5343 7.5359C45.2714 7.14248 46.1042 6.94577 47.0308 6.94577C48.0914 6.94577 49.0601 7.21526 49.9369 7.75227C50.8137 8.28929 51.5029 9.04268 52.0026 10.0125C52.5042 10.9822 52.7531 12.0936 52.7531 13.3506C52.7531 14.6076 52.5023 15.7308 52.0026 16.7222C51.501 17.7136 50.8137 18.4866 49.9369 19.0374C49.0601 19.5902 48.0914 19.8656 47.0308 19.8656C46.1022 19.8656 45.2771 19.6728 44.5553 19.2873C43.8336 18.9017 43.2439 18.4217 42.7883 17.8454V25.6114H40.2689V7.15035H42.7883V8.98957C43.2152 8.41518 43.7972 7.92931 44.5343 7.5359ZM49.6727 11.1121C49.3262 10.4846 48.8686 10.0066 48.302 9.68198C47.7353 9.35741 47.1265 9.19415 46.4794 9.19415C45.8323 9.19415 45.2446 9.36135 44.6779 9.69379C44.1112 10.0262 43.6536 10.5121 43.3071 11.1475C42.9606 11.7828 42.7883 12.5323 42.7883 13.3958C42.7883 14.2594 42.9606 15.0128 43.3071 15.656C43.6536 16.2993 44.1093 16.7871 44.6779 17.1195C45.2446 17.452 45.8457 17.6192 46.4794 17.6192C47.1131 17.6192 47.7353 17.448 48.302 17.1077C48.8686 16.7674 49.3262 16.2717 49.6727 15.6206C50.0192 14.9695 50.1915 14.2122 50.1915 13.3506C50.1915 12.489 50.0173 11.7415 49.6727 11.114V11.1121Z" fill="white"/>
<path d="M54.3057 5.01606C53.9956 4.69739 53.8424 4.30398 53.8424 3.83581C53.8424 3.36765 53.9975 2.97226 54.3057 2.65556C54.6159 2.33689 54.9987 2.17953 55.4544 2.17953C55.91 2.17953 56.2719 2.33886 56.582 2.65556C56.8902 2.97423 57.0453 3.36765 57.0453 3.83581C57.0453 4.30398 56.8902 4.69936 56.582 5.01606C56.2719 5.33473 55.8966 5.4921 55.4544 5.4921C55.0121 5.4921 54.6139 5.33276 54.3057 5.01606ZM56.693 7.15035V19.661H54.1736V7.15035H56.693Z" fill="white"/>
<path d="M59.3063 7.58114C60.0051 6.35564 60.9565 5.39767 62.1569 4.70919C63.3573 4.02072 64.6725 3.67648 66.1007 3.67648C67.7357 3.67648 69.1907 4.08956 70.4657 4.91377C71.7407 5.73995 72.6654 6.90839 73.2397 8.42108H70.213C69.8148 7.589 69.2634 6.96741 68.5551 6.55825C67.8486 6.1491 67.0311 5.94452 66.1026 5.94452C65.086 5.94452 64.1805 6.17861 63.3841 6.64874C62.5896 7.11887 61.9655 7.79161 61.5175 8.66893C61.0676 9.54625 60.8436 10.5691 60.8436 11.7336C60.8436 12.8982 61.0676 13.921 61.5175 14.7984C61.9674 15.6757 62.5896 16.3543 63.3841 16.8304C64.1805 17.3064 65.086 17.5464 66.1026 17.5464C67.0311 17.5464 67.8486 17.3418 68.5551 16.9327C69.2615 16.5235 69.8148 15.9039 70.213 15.0698H73.2397C72.6654 16.5845 71.7407 17.749 70.4657 18.5673C69.1907 19.3856 67.7357 19.7928 66.1007 19.7928C64.6572 19.7928 63.3381 19.4486 62.1454 18.7601C60.9527 18.0716 60.0051 17.1136 59.3063 15.8881C58.6056 14.6626 58.2571 13.2778 58.2571 11.7336C58.2571 10.1895 58.6075 8.80466 59.3063 7.57917V7.58114Z" fill="white"/>
<path d="M74.8824 10.0105C75.3916 9.04268 76.0827 8.28929 76.9596 7.75031C77.8364 7.21329 78.8051 6.9438 79.8657 6.9438C80.823 6.9438 81.6596 7.13658 82.3737 7.52213C83.0878 7.90767 83.6583 8.38961 84.0871 8.964V7.14838H86.6276V19.659H84.0871V17.7962C83.6602 18.3863 83.0782 18.8781 82.3411 19.2715C81.6041 19.6649 80.7636 19.8616 79.8217 19.8616C78.7745 19.8616 77.8173 19.5863 76.9481 19.0335C76.0789 18.4807 75.3897 17.7097 74.8824 16.7182C74.3731 15.7268 74.1204 14.6036 74.1204 13.3467C74.1204 12.0897 74.375 10.9783 74.8824 10.0085V10.0105ZM83.5683 11.1455C83.2218 10.5101 82.7681 10.0262 82.209 9.69182C81.6481 9.35938 81.045 9.19218 80.396 9.19218C79.747 9.19218 79.144 9.35545 78.583 9.68002C78.0221 10.0066 77.5703 10.4826 77.2238 11.1101C76.8773 11.7376 76.705 12.4831 76.705 13.3467C76.705 14.2102 76.8773 14.9675 77.2238 15.6167C77.5703 16.2678 78.0259 16.7635 78.5945 17.1038C79.1612 17.4441 79.7624 17.6152 80.396 17.6152C81.0297 17.6152 81.6481 17.448 82.209 17.1156C82.7681 16.7832 83.2218 16.2953 83.5683 15.6521C83.9148 15.0088 84.0871 14.2555 84.0871 13.3919C84.0871 12.5284 83.9129 11.7789 83.5683 11.1435V11.1455Z" fill="white"/>
<path d="M92.8075 7.47885C93.4182 7.12281 94.1438 6.94577 94.9842 6.94577V9.62494H94.3429C93.355 9.62494 92.6084 9.88263 92.0991 10.396C91.5918 10.9114 91.3372 11.8045 91.3372 13.0752V19.661H88.8177V7.15035H91.3372V8.96597C91.7048 8.3306 92.1949 7.83489 92.8075 7.47885Z" fill="white"/>
<path d="M95.9529 10.0105C96.4622 9.04268 97.1533 8.28929 98.0301 7.75031C98.907 7.21329 99.8833 6.9438 100.959 6.9438C101.754 6.9438 102.539 7.12281 103.312 7.47688C104.086 7.83292 104.7 8.30502 105.158 8.89515V2.85817H107.698V19.661H105.158V17.7765C104.744 18.3824 104.174 18.882 103.444 19.2754C102.715 19.6689 101.878 19.8656 100.936 19.8656C99.8757 19.8656 98.907 19.5902 98.0301 19.0374C97.1533 18.4847 96.4622 17.7136 95.9529 16.7222C95.4437 15.7308 95.191 14.6076 95.191 13.3506C95.191 12.0936 95.4456 10.9822 95.9529 10.0125V10.0105ZM104.637 11.1455C104.29 10.5101 103.837 10.0262 103.278 9.69182C102.717 9.35938 102.114 9.19218 101.465 9.19218C100.816 9.19218 100.213 9.35545 99.6517 9.68002C99.0907 10.0066 98.6389 10.4826 98.2924 11.1101C97.9459 11.7376 97.7736 12.4831 97.7736 13.3467C97.7736 14.2102 97.9459 14.9675 98.2924 15.6167C98.6389 16.2678 99.0946 16.7635 99.6632 17.1038C100.23 17.4441 100.831 17.6152 101.465 17.6152C102.098 17.6152 102.717 17.448 103.278 17.1156C103.837 16.7832 104.29 16.2953 104.637 15.6521C104.983 15.0088 105.156 14.2555 105.156 13.3919C105.156 12.5284 104.982 11.7789 104.637 11.1435V11.1455Z" fill="white"/>
<path d="M116.794 19.0827C115.883 18.524 115.17 17.747 114.657 16.7497C114.144 15.7524 113.888 14.6331 113.888 13.388C113.888 12.1428 114.144 11.0275 114.657 10.038C115.17 9.04858 115.879 8.27552 116.782 7.71687C117.686 7.15822 118.712 6.87889 119.859 6.87889C121.651 6.87889 123.104 7.69326 124.222 9.32004H124.429V7.35886H126.336V19.4407H124.429V17.4559H124.222C123.135 19.0984 121.681 19.9207 119.859 19.9207C118.726 19.9207 117.703 19.6413 116.794 19.0827ZM122.317 17.5149C122.976 17.1077 123.489 16.5451 123.856 15.8291C124.224 15.1111 124.408 14.2987 124.408 13.3899C124.408 12.4811 124.224 11.6923 123.856 10.9744C123.489 10.2564 122.976 9.69379 122.317 9.28857C121.659 8.88138 120.923 8.67877 120.114 8.67877C119.304 8.67877 118.544 8.88138 117.885 9.28857C117.227 9.69575 116.713 10.2583 116.346 10.9744C115.978 11.6923 115.795 12.4969 115.795 13.3899C115.795 14.283 115.978 15.0915 116.346 15.8173C116.713 16.5432 117.227 17.1097 117.885 17.5149C118.544 17.9221 119.286 18.1247 120.114 18.1247C120.941 18.1247 121.66 17.9221 122.317 17.5149Z" fill="url(#paint0_linear_1423_2953)"/>
<path d="M129.598 18.7109C128.679 17.9064 128.219 16.7851 128.219 15.3492H130.057C130.073 16.2265 130.39 16.9287 131.011 17.4539C131.631 17.9811 132.477 18.2427 133.547 18.2427C134.42 18.2427 135.117 18.0637 135.638 17.7038C136.159 17.3457 136.419 16.8461 136.419 16.2088C136.419 15.715 136.274 15.3433 135.983 15.0954C135.692 14.8475 135.347 14.6764 134.949 14.582C134.551 14.4856 133.93 14.3833 133.088 14.2712C131.694 14.0961 130.568 13.7578 129.713 13.2542C128.855 12.7526 128.426 11.8871 128.426 10.6577C128.426 9.49314 128.851 8.57255 129.701 7.89391C130.551 7.21526 131.679 6.87692 133.088 6.87692C134.497 6.87692 135.716 7.2487 136.612 7.99029C137.508 8.73188 137.956 9.72526 137.956 10.9685H136.095C136.08 10.2347 135.797 9.64854 135.245 9.20988C134.694 8.77122 133.967 8.55288 133.063 8.55288C132.221 8.55288 131.539 8.73582 131.018 9.10366C130.498 9.47151 130.237 9.96524 130.237 10.5868C130.237 11.0491 130.379 11.4051 130.662 11.651C130.946 11.8989 131.29 12.0661 131.696 12.1526C132.102 12.2412 132.711 12.3316 133.522 12.428C134.426 12.5402 135.211 12.7113 135.875 12.9414C136.542 13.1736 137.097 13.5473 137.541 14.0666C137.985 14.5859 138.207 15.2901 138.207 16.1832C138.207 17.3634 137.79 18.2801 136.955 18.9351C136.12 19.5882 134.96 19.9167 133.476 19.9167C131.807 19.9167 130.515 19.5135 129.596 18.7089L129.598 18.7109Z" fill="url(#paint1_linear_1423_2953)"/>
<path d="M140.964 18.7109C140.045 17.9064 139.586 16.7851 139.586 15.3492H141.423C141.439 16.2265 141.757 16.9287 142.377 17.4539C142.997 17.9811 143.843 18.2427 144.913 18.2427C145.786 18.2427 146.483 18.0637 147.004 17.7038C147.525 17.3457 147.785 16.8461 147.785 16.2088C147.785 15.715 147.64 15.3433 147.349 15.0954C147.058 14.8475 146.713 14.6764 146.315 14.582C145.917 14.4856 145.296 14.3833 144.454 14.2712C143.06 14.0961 141.935 13.7578 141.079 13.2542C140.221 12.7526 139.792 11.8871 139.792 10.6577C139.792 9.49314 140.217 8.57255 141.067 7.89391C141.917 7.21526 143.045 6.87692 144.454 6.87692C145.863 6.87692 147.083 7.2487 147.979 7.99029C148.875 8.73188 149.322 9.72526 149.322 10.9685H147.462C147.446 10.2347 147.163 9.64854 146.612 9.20988C146.06 8.77122 145.333 8.55288 144.429 8.55288C143.587 8.55288 142.905 8.73582 142.384 9.10366C141.864 9.47151 141.603 9.96524 141.603 10.5868C141.603 11.0491 141.745 11.4051 142.028 11.651C142.312 11.8989 142.656 12.0661 143.062 12.1526C143.468 12.2412 144.077 12.3316 144.889 12.428C145.792 12.5402 146.577 12.7113 147.241 12.9414C147.908 13.1736 148.463 13.5473 148.907 14.0666C149.351 14.5859 149.573 15.2901 149.573 16.1832C149.573 17.3634 149.156 18.2801 148.321 18.9351C147.487 19.5882 146.326 19.9167 144.843 19.9167C143.173 19.9167 141.881 19.5135 140.962 18.7089L140.964 18.7109Z" fill="url(#paint2_linear_1423_2953)"/>
<path d="M151.62 4.65609C151.359 4.38463 151.229 4.04236 151.229 3.6273C151.229 3.21225 151.359 2.89751 151.62 2.63392C151.88 2.37034 152.21 2.23854 152.608 2.23854C153.006 2.23854 153.331 2.3664 153.584 2.62212C153.837 2.87784 153.963 3.21225 153.963 3.6273C153.963 4.04236 153.837 4.38463 153.584 4.65609C153.331 4.92754 153.006 5.06327 152.608 5.06327C152.21 5.06327 151.88 4.92754 151.62 4.65609ZM153.55 19.4407H151.645V7.35886H153.55V19.4407Z" fill="url(#paint3_linear_1423_2953)"/>
<path d="M156.994 18.7109C156.075 17.9064 155.615 16.7851 155.615 15.3492H157.453C157.469 16.2265 157.786 16.9287 158.407 17.4539C159.027 17.9811 159.873 18.2427 160.943 18.2427C161.816 18.2427 162.513 18.0637 163.034 17.7038C163.555 17.3457 163.815 16.8461 163.815 16.2088C163.815 15.715 163.67 15.3433 163.379 15.0954C163.088 14.8475 162.743 14.6764 162.345 14.582C161.946 14.4856 161.326 14.3833 160.484 14.2712C159.09 14.0961 157.964 13.7578 157.109 13.2542C156.251 12.7526 155.822 11.8871 155.822 10.6577C155.822 9.49314 156.247 8.57255 157.097 7.89391C157.947 7.21526 159.075 6.87692 160.484 6.87692C161.893 6.87692 163.112 7.2487 164.008 7.99029C164.904 8.73188 165.352 9.72526 165.352 10.9685H163.491C163.476 10.2347 163.193 9.64854 162.641 9.20988C162.09 8.77122 161.363 8.55288 160.459 8.55288C159.617 8.55288 158.935 8.73582 158.414 9.10366C157.894 9.47151 157.633 9.96524 157.633 10.5868C157.633 11.0491 157.775 11.4051 158.058 11.651C158.342 11.8989 158.686 12.0661 159.092 12.1526C159.498 12.2412 160.107 12.3316 160.918 12.428C161.822 12.5402 162.607 12.7113 163.271 12.9414C163.938 13.1736 164.493 13.5473 164.937 14.0666C165.381 14.5859 165.603 15.2901 165.603 16.1832C165.603 17.3634 165.186 18.2801 164.351 18.9351C163.516 19.5882 162.356 19.9167 160.872 19.9167C159.203 19.9167 157.911 19.5135 156.992 18.7089L156.994 18.7109Z" fill="url(#paint4_linear_1423_2953)"/>
<path d="M169.371 18.9155C168.789 18.2624 168.498 17.4008 168.498 16.3307V8.93843H166.614V7.35886H168.498L168.934 3.4601H170.428L170.405 7.35886H173.389V8.93843H170.405V16.2599C170.405 16.8343 170.565 17.3044 170.887 17.6723C171.209 18.0401 171.645 18.2231 172.197 18.2231C172.38 18.2231 172.602 18.1995 172.863 18.1522C173.123 18.105 173.361 18.048 173.575 17.985V19.5882C172.978 19.7948 172.35 19.899 171.691 19.899C170.726 19.899 169.953 19.5725 169.371 18.9174V18.9155Z" fill="url(#paint5_linear_1423_2953)"/>
<path d="M181.962 0C179.531 0 177.561 2.02413 177.561 4.52232V9.04465H181.962C184.394 9.04465 186.364 7.02052 186.364 4.52232C186.364 2.02413 184.394 0 181.962 0Z" fill="url(#paint6_linear_1423_2953)"/>
<path d="M152.024 27.1064C152.355 27.1064 152.542 27.2231 152.656 27.5111C152.807 27.8873 152.964 28.2635 153.106 28.6449C153.186 28.8576 153.331 29.0081 153.575 29.0055C153.814 29.0029 153.971 28.868 154.042 28.6449C154.162 28.2842 154.307 27.9288 154.44 27.5708C154.563 27.2491 154.728 27.1142 155.001 27.1116C155.266 27.1116 155.451 27.2568 155.57 27.563C155.701 27.9054 155.835 28.2479 155.966 28.5904C156.077 28.8784 156.245 29.0262 156.47 29.0107C156.748 28.9925 156.871 28.8161 156.95 28.5956C157.084 28.222 157.224 27.8484 157.369 27.4774C157.474 27.2076 157.716 27.0856 158.058 27.109C158.334 27.1271 158.544 27.2698 158.587 27.5007C158.604 27.6019 158.59 27.7186 158.553 27.8172C158.092 28.9873 157.628 30.1548 157.158 31.3223C157.056 31.5765 156.831 31.7114 156.526 31.7011C156.248 31.6933 156.017 31.6103 155.906 31.343C155.767 30.9954 155.607 30.6529 155.459 30.3079C155.382 30.1314 155.252 30.0355 155.038 30.0277C154.825 30.0199 154.674 30.1029 154.6 30.2819C154.469 30.5829 154.349 30.889 154.224 31.19C154.039 31.6388 153.706 31.81 153.262 31.6492C153.123 31.5973 152.969 31.4702 152.915 31.3456C152.42 30.1704 151.939 28.9899 151.469 27.8069C151.31 27.4073 151.561 27.1116 152.024 27.109V27.1064Z" fill="white"/>
<path d="M179.89 31.7011C179.637 31.6829 179.407 31.6025 179.299 31.3378C179.17 31.0187 179.031 30.7048 178.9 30.3857C178.812 30.1756 178.687 30.0225 178.405 30.0251C178.132 30.0277 178.018 30.1885 177.938 30.3857C177.813 30.6892 177.693 30.9954 177.571 31.2989C177.457 31.5739 177.255 31.7011 176.931 31.7037C176.621 31.7037 176.399 31.5636 176.291 31.2989C175.824 30.1626 175.354 29.0288 174.888 27.8951C174.74 27.5344 174.845 27.262 175.181 27.1453C175.482 27.0415 175.943 27.1505 176.054 27.4955C176.185 27.9029 176.376 28.292 176.535 28.6916C176.609 28.8758 176.749 29.0003 176.962 29.0081C177.19 29.0159 177.346 28.8939 177.423 28.7019C177.58 28.3024 177.736 27.9029 177.873 27.4981C177.955 27.2542 178.135 27.1453 178.388 27.1167C178.61 27.0908 178.826 27.2335 178.926 27.4722C179.091 27.8613 179.244 28.2531 179.392 28.6474C179.472 28.8576 179.594 29.0133 179.853 29.0133C180.11 29.0133 180.249 28.868 180.329 28.6578C180.468 28.2842 180.605 27.9106 180.75 27.5396C180.886 27.192 181.134 27.0597 181.515 27.1142C181.877 27.1686 182.087 27.467 181.965 27.7809C181.504 28.9588 181.034 30.1314 180.565 31.3067C180.454 31.5817 180.243 31.7011 179.893 31.7037L179.89 31.7011Z" fill="white"/>
<path d="M162.992 27.0104C164 27.0026 164.811 27.275 165.354 28.0196C166.063 28.9847 165.952 30.7775 164.54 31.4831C163.351 32.0747 161.259 31.932 160.596 30.5154C160.149 29.5633 160.212 28.6111 160.955 27.7887C161.481 27.205 162.229 26.9948 162.995 27.013L162.992 27.0104ZM163.058 27.9859C162.161 27.9859 161.495 28.5956 161.504 29.4076C161.512 30.2274 162.175 30.8268 163.072 30.8268C163.96 30.8268 164.603 30.2326 164.606 29.4102C164.606 28.58 163.965 27.9885 163.058 27.9859Z" fill="white"/>
<path d="M173.083 29.4673C173.078 30.3442 172.711 31.1329 171.729 31.5324C170.59 31.9942 169.458 31.9423 168.453 31.19C168.001 30.8501 167.773 30.3805 167.696 29.8616C167.588 29.1274 167.685 28.4243 168.228 27.825C168.65 27.358 169.207 27.1142 169.85 27.0363C170.636 26.9429 171.404 27.013 172.07 27.4436C172.802 27.9158 173.078 28.6008 173.083 29.4647V29.4673ZM171.911 29.3998C171.905 28.5281 171.285 27.9781 170.314 27.9833C169.449 27.9885 168.829 28.6008 168.835 29.4413C168.84 30.2404 169.489 30.8242 170.371 30.8242C171.285 30.8242 171.919 30.2378 171.911 29.3998Z" fill="white"/>
<path d="M166.928 36C166.017 35.9896 165.146 35.8521 164.401 35.3436C164.187 35.1983 163.994 35.0141 163.834 34.817C163.57 34.4926 163.658 34.0879 164.008 33.883C164.335 33.691 164.819 33.7688 165.004 34.1087C165.579 35.1594 167.46 35.2269 168.291 34.6613C168.507 34.5134 168.681 34.2981 168.835 34.0931C169.031 33.8311 169.296 33.7558 169.609 33.8077C169.893 33.8544 170.104 34.0231 170.124 34.2851C170.138 34.4693 170.095 34.695 169.981 34.8429C169.461 35.5252 168.675 35.8002 167.813 35.9299C167.52 35.9741 167.221 35.9766 166.925 36H166.928Z" fill="white"/>
<path d="M115.604 30.0718C115.857 30.2093 116.056 30.3987 116.202 30.6426C116.347 30.8865 116.421 31.1589 116.421 31.465C116.421 31.7712 116.35 32.0462 116.204 32.2874C116.059 32.5313 115.863 32.7207 115.61 32.8608C115.356 33.0009 115.077 33.0684 114.767 33.0684C114.508 33.0684 114.278 33.0191 114.07 32.9205C113.862 32.8219 113.703 32.6844 113.583 32.508H113.526V34.3007H113V29.981H113.526V30.4324H113.583C113.703 30.2534 113.862 30.1133 114.064 30.0122C114.266 29.911 114.497 29.8617 114.762 29.8617C115.072 29.8617 115.351 29.9291 115.604 30.0666V30.0718ZM114.09 30.461C113.911 30.5622 113.768 30.7023 113.663 30.8787C113.558 31.0551 113.507 31.2523 113.507 31.4676C113.507 31.683 113.558 31.8801 113.663 32.0591C113.766 32.2382 113.911 32.3783 114.093 32.4794C114.275 32.5806 114.48 32.6325 114.705 32.6325C114.929 32.6325 115.132 32.5806 115.311 32.4794C115.49 32.3783 115.632 32.2382 115.738 32.0591C115.843 31.8801 115.894 31.683 115.894 31.4676C115.894 31.2523 115.843 31.0499 115.741 30.8735C115.638 30.6971 115.496 30.5596 115.314 30.4584C115.132 30.3598 114.927 30.3079 114.705 30.3079C114.483 30.3079 114.272 30.3598 114.09 30.461Z" fill="white"/>
<path d="M117.573 32.8634C117.311 32.7259 117.109 32.5365 116.961 32.2926C116.816 32.0488 116.742 31.7738 116.742 31.465C116.742 31.1563 116.816 30.8813 116.961 30.64C117.106 30.3987 117.311 30.2093 117.573 30.0718C117.835 29.9343 118.131 29.8669 118.467 29.8669C118.803 29.8669 119.093 29.9343 119.358 30.0718C119.619 30.2093 119.824 30.3987 119.972 30.6426C120.12 30.8865 120.191 31.1589 120.191 31.465C120.191 31.7712 120.117 32.0514 119.972 32.2926C119.827 32.5339 119.622 32.7259 119.358 32.8634C119.093 33.0009 118.797 33.0684 118.467 33.0684C118.137 33.0684 117.835 33.0009 117.573 32.8634ZM119.084 32.4794C119.266 32.3783 119.409 32.2407 119.511 32.0643C119.614 31.8879 119.665 31.6881 119.665 31.465C119.665 31.2419 119.614 31.0473 119.511 30.8709C119.409 30.6945 119.266 30.557 119.084 30.4558C118.902 30.3572 118.697 30.3053 118.467 30.3053C118.236 30.3053 118.031 30.3546 117.849 30.4558C117.667 30.557 117.525 30.6945 117.422 30.8709C117.32 31.0473 117.269 31.2445 117.269 31.465C117.269 31.6855 117.32 31.8879 117.422 32.0643C117.525 32.2407 117.667 32.3783 117.849 32.4794C118.031 32.5806 118.236 32.6299 118.467 32.6299C118.697 32.6299 118.902 32.5806 119.084 32.4794Z" fill="white"/>
<path d="M122.155 32.9516H121.404L120.328 29.9836H120.849L121.745 32.4691H121.802L122.519 29.9836H123.194L123.931 32.4768H123.988L124.864 29.9836H125.385L124.309 32.9516H123.552L122.883 30.5466H122.821L122.146 32.9516H122.155Z" fill="white"/>
<path d="M126.378 32.8556C126.116 32.7155 125.909 32.5209 125.761 32.2719C125.613 32.0228 125.539 31.7426 125.539 31.4287C125.539 31.1148 125.613 30.8631 125.758 30.627C125.903 30.3909 126.108 30.2041 126.364 30.0692C126.623 29.9343 126.916 29.8669 127.24 29.8669C127.565 29.8669 127.852 29.9343 128.108 30.0692C128.364 30.2041 128.567 30.3909 128.709 30.627C128.854 30.8631 128.925 31.1329 128.925 31.4365C128.925 31.5221 128.925 31.587 128.919 31.6311H126.076C126.113 31.932 126.242 32.1759 126.461 32.3575C126.68 32.5391 126.95 32.6299 127.277 32.6299C127.514 32.6299 127.733 32.578 127.929 32.4742C128.125 32.3705 128.276 32.2304 128.379 32.054L128.817 32.2589C128.686 32.5132 128.484 32.7129 128.211 32.8556C127.938 32.9983 127.622 33.071 127.266 33.071C126.936 33.071 126.64 33.0009 126.375 32.8582L126.378 32.8556ZM128.376 31.1978C128.33 30.928 128.199 30.7101 127.992 30.5492C127.781 30.3857 127.525 30.3053 127.22 30.3053C126.916 30.3053 126.674 30.3883 126.466 30.5518C126.259 30.7152 126.133 30.9332 126.088 31.1978H128.376Z" fill="white"/>
<path d="M129.423 32.9516V29.9836H129.938V30.3832H129.995C130.066 30.2508 130.183 30.1393 130.345 30.0537C130.507 29.968 130.675 29.9239 130.855 29.9239C131.017 29.9239 131.148 29.9499 131.25 29.9992V30.4506C131.102 30.3909 130.943 30.3624 130.772 30.3624C130.53 30.3624 130.334 30.4532 130.18 30.6348C130.026 30.8164 129.952 31.0551 129.952 31.3483V32.9464H129.426L129.423 32.9516Z" fill="white"/>
<path d="M132.158 32.8556C131.896 32.7155 131.688 32.5209 131.54 32.2719C131.392 32.0228 131.318 31.7426 131.318 31.4287C131.318 31.1148 131.392 30.8631 131.538 30.627C131.683 30.3909 131.888 30.2041 132.144 30.0692C132.403 29.9343 132.696 29.8669 133.02 29.8669C133.345 29.8669 133.632 29.9343 133.888 30.0692C134.144 30.2041 134.346 30.3909 134.489 30.627C134.634 30.8631 134.705 31.1329 134.705 31.4365C134.705 31.5221 134.705 31.587 134.699 31.6311H131.856C131.893 31.932 132.021 32.1759 132.24 32.3575C132.46 32.5391 132.73 32.6299 133.057 32.6299C133.293 32.6299 133.513 32.578 133.709 32.4742C133.905 32.3705 134.056 32.2304 134.159 32.054L134.597 32.2589C134.466 32.5132 134.264 32.7129 133.991 32.8556C133.717 32.9983 133.402 33.071 133.046 33.071C132.716 33.071 132.42 33.0009 132.155 32.8582L132.158 32.8556ZM134.156 31.1978C134.11 30.928 133.979 30.7101 133.771 30.5492C133.561 30.3857 133.305 30.3053 133 30.3053C132.696 30.3053 132.454 30.3883 132.246 30.5518C132.038 30.7152 131.913 30.9332 131.868 31.1978H134.156Z" fill="white"/>
<path d="M135.86 32.8608C135.607 32.7207 135.405 32.5313 135.26 32.2874C135.115 32.0436 135.041 31.7712 135.041 31.465C135.041 31.1589 135.112 30.8839 135.257 30.6426C135.402 30.3987 135.601 30.2093 135.855 30.0718C136.108 29.9343 136.39 29.8669 136.7 29.8669C136.959 29.8669 137.189 29.9162 137.394 30.0096C137.596 30.1056 137.758 30.2431 137.878 30.4247H137.941V28.6319H138.467V32.9516H137.941V32.4924H137.878C137.758 32.6766 137.599 32.8193 137.397 32.9179C137.195 33.0191 136.964 33.0684 136.708 33.0684C136.398 33.0684 136.116 32.9983 135.863 32.8608H135.86ZM137.371 32.4768C137.551 32.3757 137.693 32.2356 137.798 32.0565C137.901 31.8775 137.955 31.6804 137.955 31.465C137.955 31.2497 137.904 31.0525 137.801 30.8761C137.699 30.6997 137.556 30.5596 137.374 30.4584C137.192 30.3572 136.987 30.3053 136.765 30.3053C136.543 30.3053 136.333 30.3572 136.151 30.4584C135.971 30.5596 135.829 30.6997 135.724 30.8761C135.618 31.0525 135.567 31.2497 135.567 31.465C135.567 31.6804 135.618 31.8827 135.724 32.0591C135.826 32.2356 135.971 32.3757 136.153 32.4768C136.336 32.578 136.54 32.6299 136.765 32.6299C136.99 32.6299 137.192 32.578 137.371 32.4768Z" fill="white"/>
<path d="M141.458 32.9179C141.256 32.8167 141.097 32.6766 140.977 32.4924H140.92V32.9516H140.394V28.6319H140.92V30.4247H140.977C141.097 30.2456 141.259 30.1056 141.464 30.0096C141.669 29.9136 141.902 29.8669 142.161 29.8669C142.471 29.8669 142.75 29.9343 143.003 30.0718C143.257 30.2093 143.453 30.3987 143.598 30.6426C143.743 30.8865 143.814 31.1589 143.814 31.465C143.814 31.7712 143.74 32.0462 143.595 32.2874C143.45 32.5313 143.251 32.7207 142.998 32.8608C142.744 33.0009 142.465 33.0684 142.155 33.0684C141.893 33.0684 141.66 33.0191 141.458 32.9179ZM142.707 32.4742C142.889 32.3731 143.032 32.233 143.134 32.0565C143.237 31.8801 143.288 31.683 143.288 31.4624C143.288 31.2419 143.237 31.0499 143.134 30.8735C143.032 30.6971 142.889 30.557 142.707 30.4558C142.525 30.3546 142.32 30.3027 142.098 30.3027C141.876 30.3027 141.666 30.3546 141.484 30.4558C141.304 30.557 141.162 30.6971 141.057 30.8735C140.951 31.0499 140.9 31.2471 140.9 31.4624C140.9 31.6778 140.951 31.8749 141.057 32.054C141.159 32.233 141.304 32.3731 141.486 32.4742C141.669 32.5754 141.873 32.6273 142.098 32.6273C142.323 32.6273 142.525 32.5754 142.707 32.4742Z" fill="white"/>
<path d="M144.241 34.241C144.147 34.2229 144.065 34.2021 143.994 34.1736V33.7455C144.156 33.8052 144.295 33.8337 144.42 33.8337C144.546 33.8337 144.657 33.8026 144.745 33.7377C144.833 33.6729 144.904 33.5924 144.958 33.4964C145.012 33.4005 145.072 33.2733 145.14 33.1177L145.217 32.9464L143.786 29.9836H144.338L145.439 32.3056H145.502L146.444 29.9836H147.01L145.738 32.9983C145.61 33.2915 145.502 33.5224 145.408 33.6858C145.314 33.8493 145.195 33.9894 145.049 34.1009C144.904 34.2125 144.722 34.2696 144.506 34.2696C144.426 34.2696 144.338 34.2618 144.244 34.2436L144.241 34.241Z" fill="white"/>
<defs>
<linearGradient id="paint0_linear_1423_2953" x1="112.936" y1="15.2665" x2="183.018" y2="1.03157" gradientUnits="userSpaceOnUse">
<stop stop-color="#6CC4FF"/>
<stop offset="1" stop-color="#5757FF"/>
</linearGradient>
<linearGradient id="paint1_linear_1423_2953" x1="113.424" y1="17.6683" x2="183.506" y2="3.43528" gradientUnits="userSpaceOnUse">
<stop stop-color="#6CC4FF"/>
<stop offset="1" stop-color="#5757FF"/>
</linearGradient>
<linearGradient id="paint2_linear_1423_2953" x1="113.899" y1="20.0052" x2="183.981" y2="5.77026" gradientUnits="userSpaceOnUse">
<stop stop-color="#6CC4FF"/>
<stop offset="1" stop-color="#5757FF"/>
</linearGradient>
<linearGradient id="paint3_linear_1423_2953" x1="113.746" y1="19.2558" x2="183.83" y2="5.02078" gradientUnits="userSpaceOnUse">
<stop stop-color="#6CC4FF"/>
<stop offset="1" stop-color="#5757FF"/>
</linearGradient>
<linearGradient id="paint4_linear_1423_2953" x1="114.567" y1="23.2981" x2="184.649" y2="9.0632" gradientUnits="userSpaceOnUse">
<stop stop-color="#6CC4FF"/>
<stop offset="1" stop-color="#5757FF"/>
</linearGradient>
<linearGradient id="paint5_linear_1423_2953" x1="114.646" y1="23.6817" x2="184.728" y2="9.44861" gradientUnits="userSpaceOnUse">
<stop stop-color="#6CC4FF"/>
<stop offset="1" stop-color="#5757FF"/>
</linearGradient>
<linearGradient id="paint6_linear_1423_2953" x1="113.727" y1="19.1555" x2="183.809" y2="4.92048" gradientUnits="userSpaceOnUse">
<stop stop-color="#6CC4FF"/>
<stop offset="1" stop-color="#5757FF"/>
</linearGradient>
</defs>
</svg>
