<svg width="134" height="99" viewBox="0 0 134 99" fill="none" xmlns="http://www.w3.org/2000/svg">
<path d="M46.2436 66.24C46.2436 68.56 45.4169 70.52 43.7636 72.12C42.1103 73.6933 39.8436 74.7467 36.9636 75.28V79.88H29.1636V75.24C26.3369 74.68 24.0969 73.5333 22.4436 71.8C20.7903 70.0667 19.9636 67.9867 19.9636 65.56H27.9236C27.9236 66.7867 28.3903 67.76 29.3236 68.48C30.2836 69.1733 31.6169 69.52 33.3236 69.52C34.7103 69.52 35.8036 69.28 36.6036 68.8C37.4036 68.32 37.8036 67.64 37.8036 66.76C37.8036 65.8267 37.3636 65.16 36.4836 64.76C35.6036 64.36 34.2836 64.04 32.5236 63.8C29.8836 63.4267 27.7903 63.0533 26.2436 62.68C24.7236 62.28 23.3236 61.4933 22.0436 60.32C20.7903 59.1467 20.1636 57.4267 20.1636 55.16C20.1636 52.7867 20.9636 50.8 22.5636 49.2C24.1636 47.6 26.3636 46.56 29.1636 46.08V42.2H36.9636V46.32C39.5236 46.9333 41.5503 48.0933 43.0436 49.8C44.5369 51.48 45.2836 53.48 45.2836 55.8H37.6436C37.6436 54.5467 37.2169 53.5733 36.3636 52.88C35.5103 52.1867 34.3503 51.84 32.8836 51.84C31.5503 51.84 30.4969 52.0933 29.7236 52.6C28.9769 53.1067 28.6036 53.76 28.6036 54.56C28.6036 55.2267 28.8703 55.76 29.4036 56.16C29.9369 56.5333 30.5903 56.8133 31.3636 57C32.1369 57.16 33.2703 57.3467 34.7636 57.56C37.0303 57.9067 38.9369 58.32 40.4836 58.8C42.0303 59.2533 43.3769 60.08 44.5236 61.28C45.6703 62.4533 46.2436 64.1067 46.2436 66.24ZM60.0402 75.56C57.6935 75.56 55.6135 75.1467 53.8002 74.32C51.9868 73.4667 50.5735 72.2667 49.5602 70.72C48.5468 69.1733 48.0402 67.3867 48.0402 65.36C48.0402 64.24 48.2935 63.0667 48.8002 61.84C49.3068 60.5867 49.9868 59.3733 50.8402 58.2L59.0402 46.36H68.2002L61.0802 56.24C61.8535 56.0267 62.6802 55.92 63.5602 55.92C65.2935 55.92 66.8268 56.3067 68.1602 57.08C69.5202 57.8267 70.5735 58.8933 71.3202 60.28C72.0668 61.64 72.4402 63.2133 72.4402 65C72.4402 67.1067 71.9202 68.96 70.8802 70.56C69.8402 72.16 68.3735 73.4 66.4802 74.28C64.6135 75.1333 62.4668 75.56 60.0402 75.56ZM60.2802 68.96C61.4002 68.9333 62.2935 68.5733 62.9602 67.88C63.6535 67.1867 64.0002 66.2267 64.0002 65C64.0002 63.8 63.6535 62.8533 62.9602 62.16C62.2935 61.44 61.4002 61.08 60.2802 61.08C59.1602 61.08 58.2402 61.44 57.5202 62.16C56.8268 62.8533 56.4802 63.8 56.4802 65C56.4802 66.2267 56.8268 67.2 57.5202 67.92C58.2135 68.6133 59.1335 68.96 60.2802 68.96ZM86.0652 45.76C88.4118 45.76 90.4918 46.1867 92.3052 47.04C94.1185 47.8933 95.5318 49.0933 96.5452 50.64C97.5585 52.1867 98.0652 53.9733 98.0652 56C98.0652 58.16 97.1318 60.5467 95.2652 63.16L87.0652 75H77.9052L85.0252 65.12C84.2518 65.3333 83.4252 65.44 82.5452 65.44C80.8118 65.44 79.2652 65.0667 77.9052 64.32C76.5718 63.5467 75.5318 62.48 74.7852 61.12C74.0385 59.7333 73.6652 58.1333 73.6652 56.32C73.6652 54.2133 74.1852 52.36 75.2252 50.76C76.2652 49.16 77.7185 47.9333 79.5852 47.08C81.4785 46.2 83.6385 45.76 86.0652 45.76ZM85.8252 52.4C84.7052 52.4 83.7985 52.76 83.1052 53.48C82.4385 54.1733 82.1052 55.1333 82.1052 56.36C82.1052 57.56 82.4385 58.52 83.1052 59.24C83.7985 59.9333 84.7052 60.28 85.8252 60.28C86.9452 60.28 87.8518 59.9333 88.5452 59.24C89.2652 58.52 89.6252 57.56 89.6252 56.36C89.6252 55.1333 89.2785 54.1733 88.5852 53.48C87.8918 52.76 86.9718 52.4 85.8252 52.4Z" fill="url(#paint0_linear_1436_1285)"/>
<path d="M99.573 75V70.96H100.213V71.496H100.293C100.41 71.2827 100.57 71.1147 100.773 70.992C100.981 70.864 101.213 70.8 101.469 70.8C101.752 70.8 102.013 70.872 102.253 71.016C102.493 71.16 102.672 71.3493 102.789 71.584H102.861C103.005 71.3387 103.192 71.1493 103.421 71.016C103.65 70.8773 103.914 70.808 104.213 70.808C104.528 70.808 104.808 70.8853 105.053 71.04C105.304 71.1893 105.498 71.4 105.637 71.672C105.776 71.9387 105.845 72.2453 105.845 72.592V75H105.181V72.584C105.181 72.2427 105.082 71.96 104.885 71.736C104.688 71.512 104.437 71.4 104.133 71.4C103.808 71.4 103.541 71.512 103.333 71.736C103.13 71.9547 103.029 72.2373 103.029 72.584V75H102.365V72.584C102.365 72.2267 102.269 71.9413 102.077 71.728C101.89 71.5093 101.64 71.4 101.325 71.4C101 71.4 100.736 71.5093 100.533 71.728C100.336 71.9413 100.237 72.2267 100.237 72.584V75H99.573ZM107.227 75H106.491L108.011 72.896L106.571 70.96H107.283L108.387 72.464H108.467L109.571 70.96H110.283L108.843 72.896L110.363 75H109.627L108.467 73.352H108.387L107.227 75ZM111.089 75V70.96H111.753V71.512H111.833C111.977 71.288 112.158 71.1147 112.377 70.992C112.595 70.8693 112.838 70.808 113.105 70.808C113.441 70.808 113.734 70.8853 113.985 71.04C114.241 71.1893 114.438 71.4 114.577 71.672C114.715 71.9387 114.785 72.2427 114.785 72.584V75H114.121V72.584C114.121 72.2373 114.022 71.9547 113.825 71.736C113.627 71.5173 113.358 71.408 113.017 71.408C112.793 71.408 112.582 71.4613 112.385 71.568C112.193 71.6747 112.038 71.824 111.921 72.016C111.809 72.2027 111.753 72.4107 111.753 72.64V75H111.089Z" fill="black"/>
<path d="M38.7039 97V92.96H39.3439V93.496H39.4239C39.5412 93.2827 39.7012 93.1147 39.9039 92.992C40.1119 92.864 40.3439 92.8 40.5999 92.8C40.8826 92.8 41.1439 92.872 41.3839 93.016C41.6239 93.16 41.8026 93.3493 41.9199 93.584H41.9919C42.1359 93.3387 42.3226 93.1493 42.5519 93.016C42.7812 92.8773 43.0452 92.808 43.3439 92.808C43.6586 92.808 43.9386 92.8853 44.1839 93.04C44.4346 93.1893 44.6292 93.4 44.7679 93.672C44.9066 93.9387 44.9759 94.2453 44.9759 94.592V97H44.3119V94.584C44.3119 94.2427 44.2132 93.96 44.0159 93.736C43.8186 93.512 43.5679 93.4 43.2639 93.4C42.9386 93.4 42.6719 93.512 42.4639 93.736C42.2612 93.9547 42.1599 94.2373 42.1599 94.584V97H41.4959V94.584C41.4959 94.2267 41.3999 93.9413 41.2079 93.728C41.0212 93.5093 40.7706 93.4 40.4559 93.4C40.1306 93.4 39.8666 93.5093 39.6639 93.728C39.4666 93.9413 39.3679 94.2267 39.3679 94.584V97H38.7039ZM48.0938 97.16C47.6778 97.16 47.3044 97.064 46.9738 96.872C46.6431 96.68 46.3844 96.416 46.1978 96.08C46.0111 95.7387 45.9178 95.3547 45.9178 94.928C45.9178 94.5227 46.0084 94.16 46.1898 93.84C46.3764 93.5147 46.6324 93.2613 46.9578 93.08C47.2831 92.8933 47.6511 92.8 48.0618 92.8C48.4671 92.8 48.8298 92.8933 49.1498 93.08C49.4751 93.2613 49.7284 93.5147 49.9098 93.84C50.0911 94.16 50.1818 94.5253 50.1818 94.936C50.1818 95.0533 50.1791 95.1413 50.1738 95.2H46.5978C46.6458 95.6107 46.8058 95.9413 47.0778 96.192C47.3551 96.4373 47.6991 96.56 48.1098 96.56C48.4084 96.56 48.6804 96.4907 48.9258 96.352C49.1764 96.208 49.3658 96.016 49.4938 95.776L50.0458 96.056C49.8804 96.4027 49.6244 96.6747 49.2778 96.872C48.9364 97.064 48.5418 97.16 48.0938 97.16ZM49.4858 94.616C49.4271 94.248 49.2644 93.9547 48.9978 93.736C48.7364 93.512 48.4138 93.4 48.0298 93.4C47.6564 93.4 47.3391 93.512 47.0778 93.736C46.8218 93.96 46.6644 94.2533 46.6058 94.616H49.4858ZM51.2039 97V92.96H51.8679V93.512H51.9479C52.0919 93.288 52.2732 93.1147 52.4919 92.992C52.7106 92.8693 52.9532 92.808 53.2199 92.808C53.5559 92.808 53.8492 92.8853 54.0999 93.04C54.3559 93.1893 54.5532 93.4 54.6919 93.672C54.8306 93.9387 54.8999 94.2427 54.8999 94.584V97H54.2359V94.584C54.2359 94.2373 54.1372 93.9547 53.9399 93.736C53.7426 93.5173 53.4732 93.408 53.1319 93.408C52.9079 93.408 52.6972 93.4613 52.4999 93.568C52.3079 93.6747 52.1532 93.824 52.0359 94.016C51.9239 94.2027 51.8679 94.4107 51.8679 94.64V97H51.2039ZM57.7036 97.16C57.1223 97.16 56.6716 97.0267 56.3516 96.76C56.0316 96.488 55.8716 96.112 55.8716 95.632H56.5116C56.517 95.9253 56.6263 96.16 56.8396 96.336C57.0583 96.512 57.3543 96.6 57.7276 96.6C58.0316 96.6 58.2743 96.5413 58.4556 96.424C58.637 96.3013 58.7276 96.1333 58.7276 95.92C58.7276 95.7547 58.677 95.632 58.5756 95.552C58.4743 95.4667 58.3543 95.408 58.2156 95.376C58.077 95.344 57.861 95.3093 57.5676 95.272C57.0823 95.2133 56.6903 95.1013 56.3916 94.936C56.093 94.7653 55.9436 94.4747 55.9436 94.064C55.9436 93.6747 56.0903 93.368 56.3836 93.144C56.6823 92.9147 57.077 92.8 57.5676 92.8C58.0743 92.8 58.4823 92.9253 58.7916 93.176C59.1063 93.4213 59.2636 93.752 59.2636 94.168H58.6156C58.6103 93.9227 58.5116 93.728 58.3196 93.584C58.1276 93.4347 57.8743 93.36 57.5596 93.36C57.2663 93.36 57.029 93.4213 56.8476 93.544C56.6663 93.6667 56.5756 93.832 56.5756 94.04C56.5756 94.1947 56.6236 94.3147 56.7196 94.4C56.821 94.48 56.941 94.536 57.0796 94.568C57.2236 94.5947 57.437 94.624 57.7196 94.656C58.0343 94.6933 58.3063 94.752 58.5356 94.832C58.7703 94.9067 58.965 95.032 59.1196 95.208C59.2743 95.3787 59.3516 95.6133 59.3516 95.912C59.3516 96.3067 59.205 96.6133 58.9116 96.832C58.6236 97.0507 58.221 97.16 57.7036 97.16ZM64.015 92.96V97H63.351V96.448H63.271C63.1323 96.6667 62.951 96.8373 62.727 96.96C62.5083 97.0827 62.2683 97.144 62.007 97.144C61.671 97.144 61.375 97.0693 61.119 96.92C60.863 96.7653 60.6657 96.5547 60.527 96.288C60.3937 96.016 60.327 95.7093 60.327 95.368V92.96H60.991V95.368C60.991 95.72 61.087 96.0053 61.279 96.224C61.4763 96.4373 61.7457 96.544 62.087 96.544C62.311 96.544 62.519 96.4907 62.711 96.384C62.9083 96.2773 63.063 96.1307 63.175 95.944C63.2923 95.752 63.351 95.5413 63.351 95.312V92.96H64.015ZM66.3788 97.128C65.9414 97.128 65.5894 97.024 65.3228 96.816C65.0614 96.6027 64.9308 96.3227 64.9308 95.976C64.9308 95.6133 65.0854 95.3093 65.3948 95.064C65.7041 94.8187 66.1521 94.664 66.7388 94.6L67.8588 94.464V94.304C67.8588 94.032 67.7654 93.816 67.5788 93.656C67.3921 93.4907 67.1334 93.408 66.8028 93.408C66.4934 93.408 66.2481 93.48 66.0668 93.624C65.8854 93.7627 65.7974 93.9573 65.8028 94.208H65.1308C65.1308 93.7813 65.2828 93.4427 65.5868 93.192C65.8908 92.936 66.2988 92.808 66.8108 92.808C67.3334 92.808 67.7494 92.9467 68.0588 93.224C68.3681 93.496 68.5228 93.8613 68.5228 94.32V97H67.8588V96.408H67.7868C67.4881 96.888 67.0188 97.128 66.3788 97.128ZM66.4748 96.576C66.7468 96.576 66.9868 96.5253 67.1948 96.424C67.4028 96.3227 67.5654 96.1813 67.6828 96C67.8001 95.8187 67.8588 95.616 67.8588 95.392V95.032L66.7388 95.16C66.3441 95.208 66.0534 95.304 65.8668 95.448C65.6854 95.5867 65.5948 95.7573 65.5948 95.96C65.5948 96.152 65.6721 96.304 65.8268 96.416C65.9868 96.5227 66.2028 96.576 66.4748 96.576ZM70.3366 97H69.6726V91.12H70.3366V97ZM73.6913 97H73.3273V94.18H73.6913V97ZM75.7603 97H75.1923L74.1883 94.18H74.5603L75.4603 96.728H75.4963L76.3923 94.18H76.7643L75.7603 97ZM77.0364 97H76.6884L77.7524 94.18H78.2484L79.3004 97H78.9524L78.7124 96.368H77.2764L77.0364 97ZM77.9804 94.5L77.3844 96.068H78.6084L78.0164 94.5H77.9804ZM80.9279 94.596C80.8586 94.596 80.8013 94.5733 80.7559 94.528C80.7106 94.4827 80.6879 94.4253 80.6879 94.356C80.6879 94.2893 80.7106 94.2347 80.7559 94.192C80.8013 94.1467 80.8586 94.124 80.9279 94.124C80.9973 94.124 81.0533 94.1453 81.0959 94.188C81.1413 94.2307 81.1639 94.2867 81.1639 94.356C81.1639 94.4253 81.1413 94.4827 81.0959 94.528C81.0533 94.5733 80.9973 94.596 80.9279 94.596ZM81.0919 97H80.7599V94.98H81.0919V97ZM81.7396 97V94.98H82.0716V95.256H82.1116C82.1836 95.144 82.2743 95.0573 82.3836 94.996C82.493 94.9347 82.6143 94.904 82.7476 94.904C82.9156 94.904 83.0623 94.9427 83.1876 95.02C83.3156 95.0947 83.4143 95.2 83.4836 95.336C83.553 95.4693 83.5876 95.6213 83.5876 95.792V97H83.2556V95.792C83.2556 95.6187 83.2063 95.4773 83.1076 95.368C83.009 95.2587 82.8743 95.204 82.7036 95.204C82.5916 95.204 82.4863 95.2307 82.3876 95.284C82.2916 95.3373 82.2143 95.412 82.1556 95.508C82.0996 95.6013 82.0716 95.7053 82.0716 95.82V97H81.7396ZM85.1095 97.08C84.9095 97.08 84.7295 97.0333 84.5695 96.94C84.4095 96.8467 84.2842 96.7173 84.1935 96.552C84.1028 96.3867 84.0575 96.2013 84.0575 95.996C84.0575 95.788 84.1015 95.6013 84.1895 95.436C84.2802 95.268 84.4055 95.1373 84.5655 95.044C84.7255 94.948 84.9068 94.9 85.1095 94.9C85.2722 94.9 85.4242 94.932 85.5655 94.996C85.7068 95.06 85.8242 95.1493 85.9175 95.264C86.0108 95.376 86.0695 95.5027 86.0935 95.644L85.7695 95.688C85.7348 95.544 85.6548 95.4267 85.5295 95.336C85.4068 95.2453 85.2682 95.2 85.1135 95.2C84.9775 95.2 84.8548 95.2333 84.7455 95.3C84.6362 95.3667 84.5495 95.46 84.4855 95.58C84.4215 95.6973 84.3895 95.8307 84.3895 95.98C84.3895 96.1347 84.4202 96.2733 84.4815 96.396C84.5428 96.516 84.6282 96.6107 84.7375 96.68C84.8468 96.7467 84.9708 96.78 85.1095 96.78C85.2668 96.78 85.4068 96.736 85.5295 96.648C85.6522 96.5573 85.7335 96.4413 85.7735 96.3L86.1015 96.344C86.0722 96.4853 86.0095 96.612 85.9135 96.724C85.8175 96.836 85.6988 96.924 85.5575 96.988C85.4188 97.0493 85.2695 97.08 85.1095 97.08ZM86.9427 97H86.6107V94.06H86.9427V97ZM89.36 94.98V97H89.028V96.724H88.988C88.9187 96.8333 88.828 96.9187 88.716 96.98C88.6067 97.0413 88.4867 97.072 88.356 97.072C88.188 97.072 88.04 97.0347 87.912 96.96C87.784 96.8827 87.6854 96.7773 87.616 96.644C87.5494 96.508 87.516 96.3547 87.516 96.184V94.98H87.848V96.184C87.848 96.36 87.896 96.5027 87.992 96.612C88.0907 96.7187 88.2254 96.772 88.396 96.772C88.508 96.772 88.612 96.7453 88.708 96.692C88.8067 96.6387 88.884 96.5653 88.94 96.472C88.9987 96.376 89.028 96.2707 89.028 96.156V94.98H89.36ZM90.1779 94.596C90.1086 94.596 90.0513 94.5733 90.0059 94.528C89.9606 94.4827 89.9379 94.4253 89.9379 94.356C89.9379 94.2893 89.9606 94.2347 90.0059 94.192C90.0513 94.1467 90.1086 94.124 90.1779 94.124C90.2473 94.124 90.3033 94.1453 90.3459 94.188C90.3913 94.2307 90.4139 94.2867 90.4139 94.356C90.4139 94.4253 90.3913 94.4827 90.3459 94.528C90.3033 94.5733 90.2473 94.596 90.1779 94.596ZM90.3419 97H90.0099V94.98H90.3419V97ZM91.9336 97.08C91.739 97.08 91.5616 97.0333 91.4016 96.94C91.2416 96.844 91.115 96.7133 91.0216 96.548C90.931 96.3827 90.8856 96.196 90.8856 95.988C90.8856 95.78 90.931 95.5933 91.0216 95.428C91.1123 95.2627 91.2376 95.1333 91.3976 95.04C91.5576 94.9467 91.735 94.9 91.9296 94.9C92.0923 94.9 92.2376 94.9333 92.3656 95C92.4936 95.064 92.595 95.1573 92.6696 95.28H92.7096V94.06H93.0416V97H92.7096V96.688H92.6696C92.595 96.8133 92.4936 96.9107 92.3656 96.98C92.2403 97.0467 92.0963 97.08 91.9336 97.08ZM91.9696 96.78C92.111 96.78 92.2376 96.7453 92.3496 96.676C92.4643 96.6067 92.5536 96.512 92.6176 96.392C92.6843 96.2693 92.7176 96.1347 92.7176 95.988C92.7176 95.8413 92.6856 95.708 92.6216 95.588C92.5576 95.468 92.4683 95.3733 92.3536 95.304C92.239 95.2347 92.111 95.2 91.9696 95.2C91.8256 95.2 91.6963 95.2347 91.5816 95.304C91.4696 95.3733 91.3803 95.468 91.3136 95.588C91.2496 95.708 91.2176 95.8413 91.2176 95.988C91.2176 96.1373 91.2496 96.272 91.3136 96.392C91.3803 96.512 91.471 96.6067 91.5856 96.676C91.7003 96.7453 91.8283 96.78 91.9696 96.78ZM94.6297 97.08C94.419 97.08 94.231 97.0333 94.0657 96.94C93.903 96.8467 93.775 96.7173 93.6817 96.552C93.591 96.3867 93.5457 96.1987 93.5457 95.988C93.5457 95.7773 93.591 95.5907 93.6817 95.428C93.775 95.2627 93.903 95.1333 94.0657 95.04C94.231 94.9467 94.419 94.9 94.6297 94.9C94.8377 94.9 95.0244 94.9467 95.1897 95.04C95.355 95.1333 95.483 95.2627 95.5737 95.428C95.667 95.5933 95.7137 95.78 95.7137 95.988C95.7137 96.1987 95.667 96.3867 95.5737 96.552C95.483 96.7173 95.355 96.8467 95.1897 96.94C95.0244 97.0333 94.8377 97.08 94.6297 97.08ZM94.6297 96.78C94.7737 96.78 94.903 96.7467 95.0177 96.68C95.1324 96.6107 95.2217 96.516 95.2857 96.396C95.3497 96.276 95.3817 96.14 95.3817 95.988C95.3817 95.8387 95.3497 95.704 95.2857 95.584C95.2217 95.464 95.1324 95.3707 95.0177 95.304C94.903 95.2347 94.7737 95.2 94.6297 95.2C94.4857 95.2 94.3564 95.2347 94.2417 95.304C94.127 95.3707 94.0377 95.464 93.9737 95.584C93.9097 95.704 93.8777 95.8387 93.8777 95.988C93.8777 96.14 93.9097 96.276 93.9737 96.396C94.0377 96.516 94.127 96.6107 94.2417 96.68C94.3564 96.7467 94.4857 96.78 94.6297 96.78Z" fill="#919AAA"/>
<path d="M26.228 38V33.728H28.106C28.45 33.728 28.75 33.786 29.006 33.902C29.266 34.018 29.466 34.184 29.606 34.4C29.746 34.612 29.816 34.862 29.816 35.15C29.816 35.442 29.746 35.698 29.606 35.918C29.466 36.134 29.266 36.302 29.006 36.422C28.746 36.542 28.444 36.602 28.1 36.602H27.212V38H26.228ZM28.022 35.846C28.266 35.846 28.46 35.784 28.604 35.66C28.748 35.536 28.82 35.37 28.82 35.162C28.82 34.954 28.748 34.79 28.604 34.67C28.46 34.546 28.266 34.484 28.022 34.484H27.212V35.846H28.022ZM30.3274 38V34.928H31.2034V35.348H31.2694C31.3374 35.204 31.4394 35.088 31.5754 35C31.7154 34.912 31.8654 34.868 32.0254 34.868C32.1534 34.868 32.2694 34.894 32.3734 34.946V35.744C32.2934 35.708 32.2054 35.68 32.1094 35.66C32.0174 35.64 31.9374 35.63 31.8694 35.63C31.6734 35.63 31.5154 35.704 31.3954 35.852C31.2754 36 31.2154 36.192 31.2154 36.428V38H30.3274ZM33.3209 34.502C33.1649 34.502 33.0369 34.454 32.9369 34.358C32.8369 34.258 32.7869 34.132 32.7869 33.98C32.7869 33.828 32.8369 33.704 32.9369 33.608C33.0369 33.508 33.1649 33.458 33.3209 33.458C33.4769 33.458 33.6049 33.508 33.7049 33.608C33.8049 33.704 33.8549 33.828 33.8549 33.98C33.8549 34.132 33.8049 34.258 33.7049 34.358C33.6049 34.454 33.4769 34.502 33.3209 34.502ZM33.7649 38H32.8769V34.928H33.7649V38ZM34.4698 38V34.928H35.3518V35.384H35.4118C35.4998 35.216 35.6218 35.082 35.7778 34.982C35.9338 34.882 36.1078 34.832 36.2998 34.832C36.4998 34.832 36.6858 34.886 36.8578 34.994C37.0338 35.098 37.1618 35.238 37.2418 35.414H37.3018C37.3978 35.234 37.5278 35.094 37.6918 34.994C37.8598 34.89 38.0518 34.838 38.2678 34.838C38.4918 34.838 38.6918 34.892 38.8678 35C39.0438 35.104 39.1818 35.252 39.2818 35.444C39.3818 35.636 39.4318 35.854 39.4318 36.098V38H38.5438V36.248C38.5438 36.06 38.4898 35.906 38.3818 35.786C38.2738 35.662 38.1358 35.598 37.9678 35.594C37.7958 35.594 37.6538 35.656 37.5418 35.78C37.4338 35.9 37.3798 36.056 37.3798 36.248V38H36.4858V36.248C36.4858 36.048 36.4358 35.89 36.3358 35.774C36.2358 35.654 36.1018 35.594 35.9338 35.594C35.7578 35.594 35.6178 35.654 35.5138 35.774C35.4098 35.894 35.3578 36.052 35.3578 36.248V38H34.4698ZM41.6256 38.096C41.2976 38.096 41.0036 38.028 40.7436 37.892C40.4876 37.752 40.2876 37.556 40.1436 37.304C39.9996 37.052 39.9276 36.764 39.9276 36.44C39.9276 36.124 39.9996 35.844 40.1436 35.6C40.2876 35.356 40.4876 35.168 40.7436 35.036C40.9996 34.9 41.2916 34.832 41.6196 34.832C41.9436 34.832 42.2296 34.9 42.4776 35.036C42.7296 35.172 42.9236 35.362 43.0596 35.606C43.1996 35.85 43.2696 36.132 43.2696 36.452C43.2696 36.588 43.2656 36.678 43.2576 36.722H40.8456C40.8816 36.942 40.9716 37.116 41.1156 37.244C41.2636 37.372 41.4456 37.436 41.6616 37.436C41.8296 37.436 41.9776 37.398 42.1056 37.322C42.2336 37.246 42.3316 37.144 42.3996 37.016L43.1556 37.208C43.0596 37.484 42.8736 37.702 42.5976 37.862C42.3216 38.018 41.9976 38.096 41.6256 38.096ZM42.3636 36.17C42.3356 35.97 42.2516 35.808 42.1116 35.684C41.9716 35.556 41.7996 35.492 41.5956 35.492C41.3956 35.492 41.2276 35.554 41.0916 35.678C40.9596 35.798 40.8756 35.962 40.8396 36.17H42.3636ZM43.8156 38V34.928H44.6916V35.348H44.7576C44.8256 35.204 44.9276 35.088 45.0636 35C45.2036 34.912 45.3536 34.868 45.5136 34.868C45.6416 34.868 45.7576 34.894 45.8616 34.946V35.744C45.7816 35.708 45.6936 35.68 45.5976 35.66C45.5056 35.64 45.4256 35.63 45.3576 35.63C45.1616 35.63 45.0036 35.704 44.8836 35.852C44.7636 36 44.7036 36.192 44.7036 36.428V38H43.8156ZM47.8057 38V34.928H48.6877V35.384H48.7477C48.8357 35.216 48.9577 35.082 49.1137 34.982C49.2697 34.882 49.4437 34.832 49.6357 34.832C49.8357 34.832 50.0217 34.886 50.1937 34.994C50.3697 35.098 50.4977 35.238 50.5777 35.414H50.6377C50.7337 35.234 50.8637 35.094 51.0277 34.994C51.1957 34.89 51.3877 34.838 51.6037 34.838C51.8277 34.838 52.0277 34.892 52.2037 35C52.3797 35.104 52.5177 35.252 52.6177 35.444C52.7177 35.636 52.7677 35.854 52.7677 36.098V38H51.8797V36.248C51.8797 36.06 51.8257 35.906 51.7177 35.786C51.6097 35.662 51.4717 35.598 51.3037 35.594C51.1317 35.594 50.9897 35.656 50.8777 35.78C50.7697 35.9 50.7157 36.056 50.7157 36.248V38H49.8217V36.248C49.8217 36.048 49.7717 35.89 49.6717 35.774C49.5717 35.654 49.4377 35.594 49.2697 35.594C49.0937 35.594 48.9537 35.654 48.8497 35.774C48.7457 35.894 48.6937 36.052 48.6937 36.248V38H47.8057ZM54.9616 38.096C54.6336 38.096 54.3396 38.028 54.0796 37.892C53.8236 37.752 53.6236 37.556 53.4796 37.304C53.3356 37.052 53.2636 36.764 53.2636 36.44C53.2636 36.124 53.3356 35.844 53.4796 35.6C53.6236 35.356 53.8236 35.168 54.0796 35.036C54.3356 34.9 54.6276 34.832 54.9556 34.832C55.2796 34.832 55.5656 34.9 55.8136 35.036C56.0656 35.172 56.2596 35.362 56.3956 35.606C56.5356 35.85 56.6056 36.132 56.6056 36.452C56.6056 36.588 56.6016 36.678 56.5936 36.722H54.1816C54.2176 36.942 54.3076 37.116 54.4516 37.244C54.5996 37.372 54.7816 37.436 54.9976 37.436C55.1656 37.436 55.3136 37.398 55.4416 37.322C55.5696 37.246 55.6676 37.144 55.7356 37.016L56.4916 37.208C56.3956 37.484 56.2096 37.702 55.9336 37.862C55.6576 38.018 55.3336 38.096 54.9616 38.096ZM55.6996 36.17C55.6716 35.97 55.5876 35.808 55.4476 35.684C55.3076 35.556 55.1356 35.492 54.9316 35.492C54.7316 35.492 54.5636 35.554 54.4276 35.678C54.2956 35.798 54.2116 35.962 54.1756 36.17H55.6996ZM58.4896 38.108C58.0336 38.108 57.6756 38.008 57.4156 37.808C57.1556 37.604 57.0256 37.326 57.0256 36.974H57.8116C57.8116 37.138 57.8736 37.27 57.9976 37.37C58.1256 37.47 58.2976 37.52 58.5136 37.52C58.6816 37.52 58.8156 37.486 58.9156 37.418C59.0196 37.35 59.0716 37.258 59.0716 37.142C59.0716 37.014 59.0156 36.93 58.9036 36.89C58.7916 36.846 58.6176 36.812 58.3816 36.788C58.1216 36.76 57.9016 36.724 57.7216 36.68C57.5456 36.632 57.3916 36.542 57.2596 36.41C57.1276 36.278 57.0616 36.09 57.0616 35.846C57.0616 35.534 57.1856 35.286 57.4336 35.102C57.6856 34.914 58.0176 34.82 58.4296 34.82C58.7016 34.82 58.9456 34.862 59.1616 34.946C59.3776 35.03 59.5456 35.152 59.6656 35.312C59.7856 35.468 59.8456 35.65 59.8456 35.858H59.0356C59.0316 35.722 58.9736 35.614 58.8616 35.534C58.7536 35.45 58.6096 35.408 58.4296 35.408C58.2656 35.408 58.1336 35.442 58.0336 35.51C57.9336 35.574 57.8836 35.662 57.8836 35.774C57.8836 35.862 57.9176 35.93 57.9856 35.978C58.0576 36.022 58.1376 36.052 58.2256 36.068C58.3176 36.084 58.4716 36.104 58.6876 36.128C58.9236 36.156 59.1296 36.198 59.3056 36.254C59.4856 36.306 59.6356 36.398 59.7556 36.53C59.8796 36.658 59.9416 36.836 59.9416 37.064C59.9416 37.392 59.8116 37.648 59.5516 37.832C59.2956 38.016 58.9416 38.108 58.4896 38.108ZM63.5397 39.476C63.0917 39.476 62.7217 39.382 62.4297 39.194C62.1377 39.006 61.9537 38.74 61.8777 38.396L62.7357 38.228C62.7917 38.396 62.8877 38.528 63.0237 38.624C63.1597 38.72 63.3237 38.768 63.5157 38.768C63.7637 38.768 63.9597 38.692 64.1037 38.54C64.2517 38.392 64.3257 38.192 64.3257 37.94V37.598H64.2657C64.0057 37.894 63.6817 38.042 63.2937 38.042C63.0137 38.042 62.7637 37.976 62.5437 37.844C62.3237 37.712 62.1517 37.528 62.0277 37.292C61.9037 37.052 61.8417 36.776 61.8417 36.464C61.8417 36.14 61.9017 35.856 62.0217 35.612C62.1457 35.364 62.3157 35.174 62.5317 35.042C62.7517 34.906 63.0037 34.838 63.2877 34.838C63.6997 34.838 64.0337 34.998 64.2897 35.318H64.3497V34.928H65.2137V37.964C65.2137 38.436 65.0637 38.806 64.7637 39.074C64.4637 39.342 64.0557 39.476 63.5397 39.476ZM63.5457 37.316C63.7817 37.316 63.9757 37.236 64.1277 37.076C64.2797 36.916 64.3557 36.712 64.3557 36.464C64.3557 36.212 64.2797 36.004 64.1277 35.84C63.9757 35.676 63.7817 35.594 63.5457 35.594C63.3097 35.594 63.1137 35.676 62.9577 35.84C62.8057 36.004 62.7297 36.212 62.7297 36.464C62.7297 36.712 62.8057 36.916 62.9577 37.076C63.1137 37.236 63.3097 37.316 63.5457 37.316ZM65.8938 38V34.928H66.7698V35.348H66.8358C66.9038 35.204 67.0058 35.088 67.1418 35C67.2818 34.912 67.4318 34.868 67.5918 34.868C67.7198 34.868 67.8358 34.894 67.9398 34.946V35.744C67.8598 35.708 67.7718 35.68 67.6758 35.66C67.5838 35.64 67.5038 35.63 67.4358 35.63C67.2398 35.63 67.0818 35.704 66.9618 35.852C66.8418 36 66.7818 36.192 66.7818 36.428V38H65.8938ZM69.2187 38.078C68.8987 38.078 68.6407 38 68.4447 37.844C68.2527 37.684 68.1567 37.468 68.1567 37.196C68.1567 36.616 68.6407 36.266 69.6087 36.146L70.2627 36.068V35.942C70.2627 35.794 70.2127 35.676 70.1127 35.588C70.0167 35.496 69.8807 35.45 69.7047 35.45C69.5407 35.45 69.4087 35.494 69.3087 35.582C69.2087 35.666 69.1607 35.784 69.1647 35.936H68.2947C68.2947 35.6 68.4227 35.332 68.6787 35.132C68.9387 34.932 69.2847 34.832 69.7167 34.832C70.1527 34.832 70.5007 34.936 70.7607 35.144C71.0207 35.348 71.1507 35.624 71.1507 35.972V38H70.2627V37.61H70.2027C70.1067 37.762 69.9727 37.878 69.8007 37.958C69.6327 38.038 69.4387 38.078 69.2187 38.078ZM69.5127 37.496C69.7327 37.496 69.9127 37.432 70.0527 37.304C70.1927 37.176 70.2627 37.016 70.2627 36.824V36.608L69.6327 36.686C69.4247 36.71 69.2707 36.762 69.1707 36.842C69.0747 36.918 69.0267 37.012 69.0267 37.124C69.0267 37.24 69.0687 37.332 69.1527 37.4C69.2407 37.464 69.3607 37.496 69.5127 37.496ZM73.0363 38.096C72.7283 38.096 72.4823 37.996 72.2983 37.796C72.1143 37.596 72.0223 37.334 72.0223 37.01V35.576H71.5903V34.928H72.0463L72.2203 33.956H72.9163L72.9103 34.928H73.6123V35.576H72.9103V36.974C72.9103 37.106 72.9463 37.212 73.0183 37.292C73.0943 37.368 73.1943 37.406 73.3183 37.406C73.4103 37.406 73.5163 37.392 73.6363 37.364V38C73.5523 38.028 73.4543 38.05 73.3423 38.066C73.2303 38.086 73.1283 38.096 73.0363 38.096ZM74.6588 34.502C74.5028 34.502 74.3748 34.454 74.2748 34.358C74.1748 34.258 74.1248 34.132 74.1248 33.98C74.1248 33.828 74.1748 33.704 74.2748 33.608C74.3748 33.508 74.5028 33.458 74.6588 33.458C74.8148 33.458 74.9428 33.508 75.0428 33.608C75.1428 33.704 75.1928 33.828 75.1928 33.98C75.1928 34.132 75.1428 34.258 75.0428 34.358C74.9428 34.454 74.8148 34.502 74.6588 34.502ZM75.1028 38H74.2148V34.928H75.1028V38ZM77.1517 38.108C76.6957 38.108 76.3377 38.008 76.0777 37.808C75.8177 37.604 75.6877 37.326 75.6877 36.974H76.4737C76.4737 37.138 76.5357 37.27 76.6597 37.37C76.7877 37.47 76.9597 37.52 77.1757 37.52C77.3437 37.52 77.4777 37.486 77.5777 37.418C77.6817 37.35 77.7337 37.258 77.7337 37.142C77.7337 37.014 77.6777 36.93 77.5657 36.89C77.4537 36.846 77.2797 36.812 77.0437 36.788C76.7837 36.76 76.5637 36.724 76.3837 36.68C76.2077 36.632 76.0537 36.542 75.9217 36.41C75.7897 36.278 75.7237 36.09 75.7237 35.846C75.7237 35.534 75.8477 35.286 76.0957 35.102C76.3477 34.914 76.6797 34.82 77.0917 34.82C77.3637 34.82 77.6077 34.862 77.8237 34.946C78.0397 35.03 78.2077 35.152 78.3277 35.312C78.4477 35.468 78.5077 35.65 78.5077 35.858H77.6977C77.6937 35.722 77.6357 35.614 77.5237 35.534C77.4157 35.45 77.2717 35.408 77.0917 35.408C76.9277 35.408 76.7957 35.442 76.6957 35.51C76.5957 35.574 76.5457 35.662 76.5457 35.774C76.5457 35.862 76.5797 35.93 76.6477 35.978C76.7197 36.022 76.7997 36.052 76.8877 36.068C76.9797 36.084 77.1337 36.104 77.3497 36.128C77.5857 36.156 77.7917 36.198 77.9677 36.254C78.1477 36.306 78.2977 36.398 78.4177 36.53C78.5417 36.658 78.6037 36.836 78.6037 37.064C78.6037 37.392 78.4737 37.648 78.2137 37.832C77.9577 38.016 77.6037 38.108 77.1517 38.108ZM79.4292 38.966L79.0992 38.858L79.4292 38.06C79.3092 38.036 79.2112 37.98 79.1352 37.892C79.0632 37.8 79.0272 37.692 79.0272 37.568C79.0272 37.42 79.0752 37.3 79.1712 37.208C79.2672 37.112 79.3912 37.064 79.5432 37.064C79.6952 37.064 79.8192 37.112 79.9152 37.208C80.0152 37.3 80.0652 37.42 80.0652 37.568C80.0652 37.688 80.0232 37.824 79.9392 37.976L79.4292 38.966Z" fill="black"/>
<path d="M83.0166 38.08C82.822 38.08 82.6446 38.0333 82.4846 37.94C82.3246 37.844 82.198 37.7133 82.1046 37.548C82.014 37.3827 81.9686 37.196 81.9686 36.988C81.9686 36.78 82.014 36.5933 82.1046 36.428C82.1953 36.2627 82.3206 36.1333 82.4806 36.04C82.6406 35.9467 82.818 35.9 83.0126 35.9C83.1753 35.9 83.3206 35.9333 83.4486 36C83.5766 36.064 83.678 36.1573 83.7526 36.28H83.7926V35.06H84.1246V38H83.7926V37.688H83.7526C83.678 37.8133 83.5766 37.9107 83.4486 37.98C83.3233 38.0467 83.1793 38.08 83.0166 38.08ZM83.0526 37.78C83.194 37.78 83.3206 37.7453 83.4326 37.676C83.5473 37.6067 83.6366 37.512 83.7006 37.392C83.7673 37.2693 83.8006 37.1347 83.8006 36.988C83.8006 36.8413 83.7686 36.708 83.7046 36.588C83.6406 36.468 83.5513 36.3733 83.4366 36.304C83.322 36.2347 83.194 36.2 83.0526 36.2C82.9086 36.2 82.7793 36.2347 82.6646 36.304C82.5526 36.3733 82.4633 36.468 82.3966 36.588C82.3326 36.708 82.3006 36.8413 82.3006 36.988C82.3006 37.1373 82.3326 37.272 82.3966 37.392C82.4633 37.512 82.554 37.6067 82.6686 37.676C82.7833 37.7453 82.9113 37.78 83.0526 37.78ZM85.7207 38.08C85.5127 38.08 85.326 38.032 85.1607 37.936C84.9954 37.84 84.866 37.708 84.7727 37.54C84.6794 37.3693 84.6327 37.1773 84.6327 36.964C84.6327 36.7613 84.678 36.58 84.7687 36.42C84.862 36.2573 84.99 36.1307 85.1527 36.04C85.3154 35.9467 85.4994 35.9 85.7047 35.9C85.9074 35.9 86.0887 35.9467 86.2487 36.04C86.4114 36.1307 86.538 36.2573 86.6287 36.42C86.7194 36.58 86.7647 36.7627 86.7647 36.968C86.7647 37.0267 86.7634 37.0707 86.7607 37.1H84.9727C84.9967 37.3053 85.0767 37.4707 85.2127 37.596C85.3514 37.7187 85.5234 37.78 85.7287 37.78C85.878 37.78 86.014 37.7453 86.1367 37.676C86.262 37.604 86.3567 37.508 86.4207 37.388L86.6967 37.528C86.614 37.7013 86.486 37.8373 86.3127 37.936C86.142 38.032 85.9447 38.08 85.7207 38.08ZM86.4167 36.808C86.3874 36.624 86.306 36.4773 86.1727 36.368C86.042 36.256 85.8807 36.2 85.6887 36.2C85.502 36.2 85.3434 36.256 85.2127 36.368C85.0847 36.48 85.006 36.6267 84.9767 36.808H86.4167ZM88.1038 38.08C87.8131 38.08 87.5878 38.0133 87.4278 37.88C87.2678 37.744 87.1878 37.556 87.1878 37.316H87.5078C87.5104 37.4627 87.5651 37.58 87.6718 37.668C87.7811 37.756 87.9291 37.8 88.1158 37.8C88.2678 37.8 88.3891 37.7707 88.4798 37.712C88.5704 37.6507 88.6158 37.5667 88.6158 37.46C88.6158 37.3773 88.5904 37.316 88.5398 37.276C88.4891 37.2333 88.4291 37.204 88.3598 37.188C88.2904 37.172 88.1824 37.1547 88.0358 37.136C87.7931 37.1067 87.5971 37.0507 87.4478 36.968C87.2984 36.8827 87.2238 36.7373 87.2238 36.532C87.2238 36.3373 87.2971 36.184 87.4438 36.072C87.5931 35.9573 87.7904 35.9 88.0358 35.9C88.2891 35.9 88.4931 35.9627 88.6478 36.088C88.8051 36.2107 88.8838 36.376 88.8838 36.584H88.5598C88.5571 36.4613 88.5078 36.364 88.4118 36.292C88.3158 36.2173 88.1891 36.18 88.0318 36.18C87.8851 36.18 87.7664 36.2107 87.6758 36.272C87.5851 36.3333 87.5398 36.416 87.5398 36.52C87.5398 36.5973 87.5638 36.6573 87.6118 36.7C87.6624 36.74 87.7224 36.768 87.7918 36.784C87.8638 36.7973 87.9704 36.812 88.1118 36.828C88.2691 36.8467 88.4051 36.876 88.5198 36.916C88.6371 36.9533 88.7344 37.016 88.8118 37.104C88.8891 37.1893 88.9278 37.3067 88.9278 37.456C88.9278 37.6533 88.8544 37.8067 88.7078 37.916C88.5638 38.0253 88.3624 38.08 88.1038 38.08ZM90.5635 35.9C90.7581 35.9 90.9341 35.9467 91.0915 36.04C91.2515 36.1333 91.3768 36.2627 91.4675 36.428C91.5608 36.5933 91.6075 36.78 91.6075 36.988C91.6075 37.196 91.5621 37.3827 91.4715 37.548C91.3808 37.7133 91.2555 37.844 91.0955 37.94C90.9381 38.0333 90.7621 38.08 90.5675 38.08C90.4048 38.08 90.2581 38.0467 90.1275 37.98C89.9995 37.9133 89.8981 37.82 89.8235 37.7H89.7875V38.92H89.4555V35.98H89.7875V36.288H89.8235C89.8981 36.1653 89.9981 36.0707 90.1235 36.004C90.2515 35.9347 90.3981 35.9 90.5635 35.9ZM90.5275 36.2C90.3835 36.2 90.2541 36.2347 90.1395 36.304C90.0275 36.3733 89.9381 36.468 89.8715 36.588C89.8075 36.708 89.7755 36.8413 89.7755 36.988C89.7755 37.1347 89.8075 37.2693 89.8715 37.392C89.9381 37.512 90.0288 37.6067 90.1435 37.676C90.2581 37.7453 90.3861 37.78 90.5275 37.78C90.6688 37.78 90.7955 37.7453 90.9075 37.676C91.0221 37.6067 91.1115 37.512 91.1755 37.392C91.2421 37.2693 91.2755 37.1347 91.2755 36.988C91.2755 36.8387 91.2435 36.704 91.1795 36.584C91.1155 36.464 91.0261 36.3707 90.9115 36.304C90.7968 36.2347 90.6688 36.2 90.5275 36.2ZM93.9235 35.98V38H93.5915V37.724H93.5515C93.4822 37.8333 93.3915 37.9187 93.2795 37.98C93.1702 38.0413 93.0502 38.072 92.9195 38.072C92.7515 38.072 92.6035 38.0347 92.4755 37.96C92.3475 37.8827 92.2489 37.7773 92.1795 37.644C92.1129 37.508 92.0795 37.3547 92.0795 37.184V35.98H92.4115V37.184C92.4115 37.36 92.4595 37.5027 92.5555 37.612C92.6542 37.7187 92.7889 37.772 92.9595 37.772C93.0715 37.772 93.1755 37.7453 93.2715 37.692C93.3702 37.6387 93.4475 37.5653 93.5035 37.472C93.5622 37.376 93.5915 37.2707 93.5915 37.156V35.98H93.9235ZM96.1254 35.06L95.6654 35.628H95.3174L95.7494 35.06H96.1254ZM95.5294 38.08C95.3214 38.08 95.1334 38.032 94.9654 37.936C94.8001 37.84 94.6707 37.708 94.5774 37.54C94.4841 37.3693 94.4374 37.1773 94.4374 36.964C94.4374 36.7613 94.4827 36.58 94.5734 36.42C94.6667 36.2573 94.7947 36.1307 94.9574 36.04C95.1201 35.9467 95.3041 35.9 95.5094 35.9C95.7121 35.9 95.8934 35.9467 96.0534 36.04C96.2161 36.1307 96.3427 36.2573 96.4334 36.42C96.5267 36.5827 96.5734 36.7653 96.5734 36.968C96.5734 37.0267 96.5721 37.0707 96.5694 37.1H94.7814C94.8054 37.3053 94.8854 37.4707 95.0214 37.596C95.1601 37.7187 95.3307 37.78 95.5334 37.78C95.6854 37.78 95.8227 37.7453 95.9454 37.676C96.0707 37.604 96.1641 37.508 96.2254 37.388L96.5014 37.528C96.4214 37.7013 96.2947 37.8373 96.1214 37.936C95.9507 38.032 95.7534 38.08 95.5294 38.08ZM96.2214 36.808C96.1921 36.6267 96.1107 36.48 95.9774 36.368C95.8467 36.256 95.6867 36.2 95.4974 36.2C95.3107 36.2 95.1521 36.256 95.0214 36.368C94.8934 36.4773 94.8147 36.624 94.7854 36.808H96.2214ZM97.9085 38.08C97.6178 38.08 97.3925 38.0133 97.2325 37.88C97.0725 37.744 96.9925 37.556 96.9925 37.316H97.3125C97.3151 37.4627 97.3698 37.58 97.4765 37.668C97.5858 37.756 97.7338 37.8 97.9205 37.8C98.0725 37.8 98.1938 37.7707 98.2845 37.712C98.3751 37.6507 98.4205 37.5667 98.4205 37.46C98.4205 37.3773 98.3951 37.316 98.3445 37.276C98.2938 37.2333 98.2338 37.204 98.1645 37.188C98.0951 37.172 97.9871 37.1547 97.8405 37.136C97.5978 37.1067 97.4018 37.0507 97.2525 36.968C97.1031 36.8827 97.0285 36.7373 97.0285 36.532C97.0285 36.3373 97.1018 36.184 97.2485 36.072C97.3978 35.9573 97.5951 35.9 97.8405 35.9C98.0938 35.9 98.2978 35.9627 98.4525 36.088C98.6098 36.2107 98.6885 36.376 98.6885 36.584H98.3645C98.3618 36.4613 98.3125 36.364 98.2165 36.292C98.1205 36.2173 97.9938 36.18 97.8365 36.18C97.6898 36.18 97.5711 36.2107 97.4805 36.272C97.3898 36.3333 97.3445 36.416 97.3445 36.52C97.3445 36.5973 97.3685 36.6573 97.4165 36.7C97.4671 36.74 97.5271 36.768 97.5965 36.784C97.6685 36.7973 97.7751 36.812 97.9165 36.828C98.0738 36.8467 98.2098 36.876 98.3245 36.916C98.4418 36.9533 98.5391 37.016 98.6165 37.104C98.6938 37.1893 98.7325 37.3067 98.7325 37.456C98.7325 37.6533 98.6591 37.8067 98.5125 37.916C98.3685 38.0253 98.1671 38.08 97.9085 38.08ZM101.088 38.08C100.797 38.08 100.572 38.0133 100.412 37.88C100.252 37.744 100.172 37.556 100.172 37.316H100.492C100.495 37.4627 100.549 37.58 100.656 37.668C100.765 37.756 100.913 37.8 101.1 37.8C101.252 37.8 101.373 37.7707 101.464 37.712C101.555 37.6507 101.6 37.5667 101.6 37.46C101.6 37.3773 101.575 37.316 101.524 37.276C101.473 37.2333 101.413 37.204 101.344 37.188C101.275 37.172 101.167 37.1547 101.02 37.136C100.777 37.1067 100.581 37.0507 100.432 36.968C100.283 36.8827 100.208 36.7373 100.208 36.532C100.208 36.3373 100.281 36.184 100.428 36.072C100.577 35.9573 100.775 35.9 101.02 35.9C101.273 35.9 101.477 35.9627 101.632 36.088C101.789 36.2107 101.868 36.376 101.868 36.584H101.544C101.541 36.4613 101.492 36.364 101.396 36.292C101.3 36.2173 101.173 36.18 101.016 36.18C100.869 36.18 100.751 36.2107 100.66 36.272C100.569 36.3333 100.524 36.416 100.524 36.52C100.524 36.5973 100.548 36.6573 100.596 36.7C100.647 36.74 100.707 36.768 100.776 36.784C100.848 36.7973 100.955 36.812 101.096 36.828C101.253 36.8467 101.389 36.876 101.504 36.916C101.621 36.9533 101.719 37.016 101.796 37.104C101.873 37.1893 101.912 37.3067 101.912 37.456C101.912 37.6533 101.839 37.8067 101.692 37.916C101.548 38.0253 101.347 38.08 101.088 38.08ZM104.032 35.06L103.576 35.628H103.228L103.656 35.06H104.032ZM103.416 38.08C103.205 38.08 103.017 38.0333 102.852 37.94C102.689 37.8467 102.561 37.7173 102.468 37.552C102.377 37.3867 102.332 37.1987 102.332 36.988C102.332 36.7773 102.377 36.5907 102.468 36.428C102.561 36.2627 102.689 36.1333 102.852 36.04C103.017 35.9467 103.205 35.9 103.416 35.9C103.624 35.9 103.811 35.9467 103.976 36.04C104.141 36.1333 104.269 36.2627 104.36 36.428C104.453 36.5933 104.5 36.78 104.5 36.988C104.5 37.1987 104.453 37.3867 104.36 37.552C104.269 37.7173 104.141 37.8467 103.976 37.94C103.811 38.0333 103.624 38.08 103.416 38.08ZM103.416 37.78C103.56 37.78 103.689 37.7467 103.804 37.68C103.919 37.6107 104.008 37.516 104.072 37.396C104.136 37.276 104.168 37.14 104.168 36.988C104.168 36.8387 104.136 36.704 104.072 36.584C104.008 36.464 103.919 36.3707 103.804 36.304C103.689 36.2347 103.56 36.2 103.416 36.2C103.272 36.2 103.143 36.2347 103.028 36.304C102.913 36.3707 102.824 36.464 102.76 36.584C102.696 36.704 102.664 36.8387 102.664 36.988C102.664 37.14 102.696 37.276 102.76 37.396C102.824 37.516 102.913 37.6107 103.028 37.68C103.143 37.7467 103.272 37.78 103.416 37.78ZM105.338 38H105.006V35.06H105.338V38ZM106.928 38.08C106.717 38.08 106.529 38.0333 106.364 37.94C106.201 37.8467 106.073 37.7173 105.98 37.552C105.889 37.3867 105.844 37.1987 105.844 36.988C105.844 36.7773 105.889 36.5907 105.98 36.428C106.073 36.2627 106.201 36.1333 106.364 36.04C106.529 35.9467 106.717 35.9 106.928 35.9C107.136 35.9 107.322 35.9467 107.488 36.04C107.653 36.1333 107.781 36.2627 107.872 36.428C107.965 36.5933 108.012 36.78 108.012 36.988C108.012 37.1987 107.965 37.3867 107.872 37.552C107.781 37.7173 107.653 37.8467 107.488 37.94C107.322 38.0333 107.136 38.08 106.928 38.08ZM106.928 37.78C107.072 37.78 107.201 37.7467 107.316 37.68C107.43 37.6107 107.52 37.516 107.584 37.396C107.648 37.276 107.68 37.14 107.68 36.988C107.68 36.8387 107.648 36.704 107.584 36.584C107.52 36.464 107.43 36.3707 107.316 36.304C107.201 36.2347 107.072 36.2 106.928 36.2C106.784 36.2 106.654 36.2347 106.54 36.304C106.425 36.3707 106.336 36.464 106.272 36.584C106.208 36.704 106.176 36.8387 106.176 36.988C106.176 37.14 106.208 37.276 106.272 37.396C106.336 37.516 106.425 37.6107 106.54 37.68C106.654 37.7467 106.784 37.78 106.928 37.78Z" fill="#919AAA"/>
<g clip-path="url(#clip0_1436_1285)">
<path d="M17.8371 11.9213L15.6931 8.09382H14.5276V11.9213H13V2.35324H16.2155C16.9305 2.35324 17.5353 2.48206 18.031 2.73849C18.5267 2.99612 18.897 3.33962 19.1431 3.77139C19.388 4.20316 19.511 4.68502 19.511 5.21697C19.511 5.84077 19.3346 6.40731 18.9817 6.9178C18.6288 7.42709 18.0856 7.77417 17.3542 7.95666L19.6585 11.9213H17.836H17.8371ZM14.5276 6.84146H16.2155C16.7866 6.84146 17.2184 6.69476 17.5086 6.40135C17.7988 6.10794 17.9439 5.71315 17.9439 5.21697C17.9439 4.7208 17.8012 4.33316 17.5156 4.05407C17.23 3.77378 16.7959 3.63423 16.2155 3.63423H14.5276V6.84146Z" fill="black"/>
<path d="M20.5024 6.06977C20.8112 5.48295 21.2302 5.02614 21.7619 4.69933C22.2935 4.37372 22.8809 4.21031 23.524 4.21031C24.1044 4.21031 24.6117 4.3272 25.0447 4.56097C25.4777 4.79475 25.8236 5.08696 26.0836 5.43524V4.33436H27.624V11.9201H26.0836V10.7906C25.8247 11.1484 25.4718 11.4466 25.0249 11.6851C24.578 11.9237 24.0684 12.0429 23.4973 12.0429C22.8623 12.0429 22.2819 11.876 21.7549 11.5408C21.2279 11.2056 20.81 10.7381 20.5024 10.137C20.1936 9.53583 20.0404 8.85478 20.0404 8.09263C20.0404 7.33048 20.1948 6.65659 20.5024 6.06858V6.06977ZM25.7679 6.75797C25.5578 6.37272 25.2826 6.07931 24.9437 5.87655C24.6036 5.67498 24.2379 5.5736 23.8444 5.5736C23.4509 5.5736 23.0852 5.67259 22.7451 5.86939C22.405 6.06738 22.131 6.35602 21.9209 6.7365C21.7108 7.11698 21.6063 7.56902 21.6063 8.09263C21.6063 8.61624 21.7108 9.07543 21.9209 9.46903C22.131 9.86383 22.4073 10.1644 22.752 10.3707C23.0957 10.5771 23.4601 10.6808 23.8444 10.6808C24.2286 10.6808 24.6036 10.5795 24.9437 10.3779C25.2826 10.1763 25.5578 9.88052 25.7679 9.4905C25.978 9.10048 26.0824 8.64367 26.0824 8.12006C26.0824 7.59646 25.9768 7.14203 25.7679 6.75678V6.75797Z" fill="black"/>
<path d="M31.5394 4.56932C31.9864 4.33077 32.4913 4.2115 33.0532 4.2115C33.6963 4.2115 34.2836 4.37491 34.8153 4.70052C35.3469 5.02613 35.7648 5.48295 36.0678 6.07096C36.3719 6.65897 36.5228 7.33286 36.5228 8.09501C36.5228 8.85716 36.3708 9.53821 36.0678 10.1393C35.7637 10.7405 35.3469 11.2092 34.8153 11.5432C34.2836 11.8783 33.6963 12.0453 33.0532 12.0453C32.4902 12.0453 31.9898 11.9284 31.5522 11.6947C31.1146 11.4609 30.7571 11.1699 30.4808 10.8204V15.5293H28.9531V4.33555H30.4808V5.45074C30.7396 5.10247 31.0925 4.80786 31.5394 4.56932ZM34.6551 6.73769C34.445 6.35721 34.1675 6.06738 33.8239 5.87058C33.4803 5.67378 33.1112 5.57479 32.7188 5.57479C32.3265 5.57479 31.9701 5.67617 31.6265 5.87774C31.2829 6.07931 31.0055 6.37391 30.7954 6.75916C30.5853 7.14441 30.4808 7.59884 30.4808 8.12244C30.4808 8.64605 30.5853 9.10286 30.7954 9.49288C31.0055 9.88291 31.2817 10.1787 31.6265 10.3803C31.9701 10.5818 32.3346 10.6832 32.7188 10.6832C33.1031 10.6832 33.4803 10.5795 33.8239 10.3731C34.1675 10.1668 34.445 9.86621 34.6551 9.47142C34.8652 9.07662 34.9697 8.61743 34.9697 8.09501C34.9697 7.5726 34.864 7.11936 34.6551 6.73888V6.73769Z" fill="black"/>
<path d="M40.003 4.56932C40.4499 4.33077 40.9549 4.2115 41.5167 4.2115C42.1598 4.2115 42.7472 4.37491 43.2788 4.70052C43.8105 5.02613 44.2284 5.48295 44.5314 6.07096C44.8355 6.65897 44.9864 7.33286 44.9864 8.09501C44.9864 8.85716 44.8343 9.53821 44.5314 10.1393C44.2272 10.7405 43.8105 11.2092 43.2788 11.5432C42.7472 11.8783 42.1598 12.0453 41.5167 12.0453C40.9537 12.0453 40.4534 11.9284 40.0158 11.6947C39.5781 11.4609 39.2206 11.1699 38.9443 10.8204V15.5293H37.4167V4.33555H38.9443V5.45074C39.2032 5.10247 39.5561 4.80786 40.003 4.56932ZM43.1186 6.73769C42.9085 6.35721 42.6311 6.06738 42.2875 5.87058C41.9439 5.67378 41.5747 5.57479 41.1824 5.57479C40.79 5.57479 40.4337 5.67617 40.0901 5.87774C39.7465 6.07931 39.469 6.37391 39.2589 6.75916C39.0488 7.14441 38.9443 7.59884 38.9443 8.12244C38.9443 8.64605 39.0488 9.10286 39.2589 9.49288C39.469 9.88291 39.7453 10.1787 40.0901 10.3803C40.4337 10.5818 40.7982 10.6832 41.1824 10.6832C41.5666 10.6832 41.9439 10.5795 42.2875 10.3731C42.6311 10.1668 42.9085 9.86621 43.1186 9.47142C43.3287 9.07662 43.4332 8.61743 43.4332 8.09501C43.4332 7.5726 43.3276 7.11936 43.1186 6.73888V6.73769Z" fill="black"/>
<path d="M45.9278 3.04144C45.7398 2.84822 45.6469 2.60968 45.6469 2.32581C45.6469 2.04194 45.7409 1.8022 45.9278 1.61017C46.1159 1.41695 46.348 1.32153 46.6243 1.32153C46.9006 1.32153 47.12 1.41814 47.308 1.61017C47.4949 1.80339 47.5889 2.04194 47.5889 2.32581C47.5889 2.60968 47.4949 2.84941 47.308 3.04144C47.12 3.23466 46.8925 3.33008 46.6243 3.33008C46.3562 3.33008 46.1147 3.23347 45.9278 3.04144ZM47.3754 4.33555V11.9213H45.8477V4.33555H47.3754Z" fill="black"/>
<path d="M48.9599 4.59676C49.3836 3.85369 49.9605 3.27284 50.6883 2.85538C51.4162 2.43793 52.2137 2.2292 53.0796 2.2292C54.071 2.2292 54.9532 2.47967 55.7263 2.97943C56.4994 3.48037 57.0601 4.18885 57.4083 5.10605H55.5731C55.3316 4.60153 54.9973 4.22463 54.5678 3.97654C54.1395 3.72846 53.6438 3.60441 53.0808 3.60441C52.4644 3.60441 51.9153 3.74635 51.4324 4.03141C50.9507 4.31647 50.5723 4.72438 50.3006 5.25634C50.0278 5.78829 49.892 6.40851 49.892 7.1146C49.892 7.82069 50.0278 8.44091 50.3006 8.97287C50.5734 9.50482 50.9507 9.91631 51.4324 10.2049C51.9153 10.4936 52.4644 10.6391 53.0808 10.6391C53.6438 10.6391 54.1395 10.5151 54.5678 10.267C54.9961 10.0189 55.3316 9.64318 55.5731 9.13746H57.4083C57.0601 10.0559 56.4994 10.762 55.7263 11.2581C54.9532 11.7543 54.071 12.0012 53.0796 12.0012C52.2044 12.0012 51.4046 11.7925 50.6814 11.375C49.9582 10.9576 49.3836 10.3767 48.9599 9.63363C48.535 8.89057 48.3237 8.05089 48.3237 7.1146C48.3237 6.17831 48.5362 5.33863 48.9599 4.59557V4.59676Z" fill="black"/>
<path d="M58.4043 6.06977C58.7131 5.48295 59.1321 5.02614 59.6638 4.69933C60.1954 4.37372 60.7828 4.21031 61.4259 4.21031C62.0063 4.21031 62.5136 4.3272 62.9466 4.56097C63.3796 4.79475 63.7255 5.08696 63.9855 5.43524V4.33436H65.5259V11.9201H63.9855V10.7906C63.7267 11.1484 63.3738 11.4466 62.9269 11.6851C62.4799 11.9237 61.9703 12.0429 61.3992 12.0429C60.7643 12.0429 60.1838 11.876 59.6568 11.5408C59.1298 11.2056 58.7119 10.7381 58.4043 10.137C58.0955 9.53583 57.9423 8.85478 57.9423 8.09263C57.9423 7.33048 58.0967 6.65659 58.4043 6.06858V6.06977ZM63.6709 6.75797C63.4608 6.37272 63.1857 6.07931 62.8468 5.87655C62.5066 5.67498 62.141 5.5736 61.7475 5.5736C61.3539 5.5736 60.9883 5.67259 60.6482 5.86939C60.308 6.06738 60.0341 6.35602 59.824 6.7365C59.6139 7.11698 59.5094 7.56902 59.5094 8.09263C59.5094 8.61624 59.6139 9.07543 59.824 9.46903C60.0341 9.86383 60.3104 10.1644 60.6551 10.3707C60.9987 10.5771 61.3632 10.6808 61.7475 10.6808C62.1317 10.6808 62.5066 10.5795 62.8468 10.3779C63.1857 10.1763 63.4608 9.88052 63.6709 9.4905C63.8811 9.10048 63.9855 8.64367 63.9855 8.12006C63.9855 7.59646 63.8799 7.14203 63.6709 6.75678V6.75797Z" fill="black"/>
<path d="M69.2731 4.53473C69.6434 4.31885 70.0833 4.2115 70.5929 4.2115V5.83599H70.204C69.6051 5.83599 69.1523 5.99224 68.8436 6.30354C68.5359 6.61603 68.3816 7.15753 68.3816 7.92803V11.9213H66.8539V4.33555H68.3816V5.43643C68.6044 5.05118 68.9016 4.75061 69.2731 4.53473Z" fill="black"/>
<path d="M71.1803 6.06976C71.4891 5.48294 71.9081 5.02613 72.4398 4.69932C72.9714 4.37371 73.5634 4.21031 74.2158 4.21031C74.6976 4.21031 75.1735 4.31884 75.6425 4.53353C76.1114 4.74942 76.4841 5.03567 76.7615 5.39349V1.73302H78.3019V11.9213H76.7615V10.7786C76.5108 11.146 76.1648 11.4489 75.7226 11.6875C75.2803 11.926 74.773 12.0453 74.2019 12.0453C73.5588 12.0453 72.9714 11.8783 72.4398 11.5432C71.9081 11.208 71.4891 10.7405 71.1803 10.1393C70.8715 9.53821 70.7183 8.85716 70.7183 8.09501C70.7183 7.33286 70.8727 6.65897 71.1803 6.07096V6.06976ZM76.4458 6.75797C76.2357 6.37271 75.9605 6.0793 75.6216 5.87654C75.2815 5.67497 74.9158 5.57359 74.5223 5.57359C74.1288 5.57359 73.7631 5.67259 73.423 5.86939C73.0829 6.06738 72.8089 6.35602 72.5988 6.7365C72.3887 7.11697 72.2842 7.56902 72.2842 8.09262C72.2842 8.61623 72.3887 9.07543 72.5988 9.46903C72.8089 9.86382 73.0852 10.1644 73.43 10.3707C73.7736 10.5771 74.1381 10.6808 74.5223 10.6808C74.9065 10.6808 75.2815 10.5795 75.6216 10.3779C75.9605 10.1763 76.2357 9.88052 76.4458 9.4905C76.6559 9.10048 76.7603 8.64366 76.7603 8.12006C76.7603 7.59645 76.6547 7.14202 76.4458 6.75677V6.75797Z" fill="black"/>
<path d="M83.817 11.5706C83.2644 11.2319 82.8326 10.7608 82.5215 10.1561C82.2104 9.55134 82.0548 8.87268 82.0548 8.11768C82.0548 7.36269 82.2104 6.68641 82.5215 6.08647C82.8326 5.48653 83.2621 5.01779 83.81 4.67906C84.3579 4.34033 84.9801 4.17096 85.6754 4.17096C86.762 4.17096 87.643 4.66475 88.321 5.65113H88.4463V4.46198H89.6025V11.7877H88.4463V10.5842H88.321C87.6616 11.5802 86.7805 12.0787 85.6754 12.0787C84.9882 12.0787 84.3684 11.9094 83.817 11.5706ZM87.1659 10.62C87.5653 10.3731 87.8764 10.032 88.0992 9.59786C88.3221 9.16251 88.4336 8.66992 88.4336 8.11888C88.4336 7.56784 88.3221 7.08956 88.0992 6.65421C87.8764 6.21887 87.5653 5.87775 87.1659 5.63205C86.7666 5.38515 86.3209 5.2623 85.8298 5.2623C85.3388 5.2623 84.878 5.38515 84.4786 5.63205C84.0793 5.87894 83.7682 6.22006 83.5453 6.65421C83.3225 7.08956 83.211 7.57738 83.211 8.11888C83.211 8.66037 83.3225 9.15058 83.5453 9.5907C83.7682 10.0308 84.0793 10.3743 84.4786 10.62C84.878 10.8669 85.3284 10.9898 85.8298 10.9898C86.3313 10.9898 86.7678 10.8669 87.1659 10.62Z" fill="url(#paint1_linear_1436_1285)"/>
<path d="M91.5805 11.3452C91.0233 10.8574 90.7447 10.1775 90.7447 9.30682H91.8591C91.8684 9.83877 92.0611 10.2646 92.4372 10.583C92.8133 10.9027 93.3264 11.0613 93.9753 11.0613C94.5046 11.0613 94.9272 10.9528 95.2429 10.7345C95.5587 10.5174 95.7165 10.2145 95.7165 9.82804C95.7165 9.52867 95.6283 9.30324 95.4519 9.15296C95.2754 9.00267 95.0665 8.89891 94.825 8.84166C94.5836 8.78321 94.2075 8.72119 93.6967 8.65321C92.8516 8.54705 92.1691 8.3419 91.6502 8.03657C91.1301 7.73242 90.8701 7.20762 90.8701 6.46217C90.8701 5.75608 91.1278 5.19788 91.6432 4.78639C92.1586 4.3749 92.8423 4.16975 93.6967 4.16975C94.5511 4.16975 95.2905 4.39518 95.8338 4.84484C96.377 5.29449 96.6487 5.89682 96.6487 6.65062H95.5204C95.5111 6.20573 95.3393 5.8503 95.005 5.58433C94.6706 5.31835 94.2295 5.18596 93.6816 5.18596C93.1709 5.18596 92.7576 5.29688 92.4419 5.51992C92.1261 5.74296 91.9683 6.04233 91.9683 6.41923C91.9683 6.69952 92.0541 6.91541 92.226 7.0645C92.3978 7.21478 92.6067 7.31616 92.8528 7.36864C93.0989 7.42231 93.468 7.47718 93.9602 7.53562C94.5081 7.60361 94.9841 7.70737 95.3869 7.84692C95.7908 7.98767 96.1275 8.21428 96.3968 8.52916C96.6661 8.84404 96.8007 9.27104 96.8007 9.81253C96.8007 10.5282 96.5477 11.084 96.0416 11.4812C95.5354 11.8771 94.832 12.0763 93.9324 12.0763C92.9201 12.0763 92.1366 11.8318 91.5794 11.344L91.5805 11.3452Z" fill="url(#paint2_linear_1436_1285)"/>
<path d="M98.4723 11.3452C97.9151 10.8574 97.6365 10.1775 97.6365 9.30682H98.7509C98.7602 9.83877 98.9529 10.2646 99.329 10.583C99.7051 10.9027 100.218 11.0613 100.867 11.0613C101.396 11.0613 101.819 10.9528 102.135 10.7345C102.45 10.5174 102.608 10.2145 102.608 9.82804C102.608 9.52867 102.52 9.30324 102.344 9.15296C102.167 9.00267 101.958 8.89891 101.717 8.84166C101.475 8.78321 101.099 8.72119 100.588 8.65321C99.7434 8.54705 99.0609 8.3419 98.542 8.03657C98.0219 7.73242 97.7619 7.20762 97.7619 6.46217C97.7619 5.75608 98.0196 5.19788 98.535 4.78639C99.0504 4.3749 99.7341 4.16975 100.588 4.16975C101.443 4.16975 102.182 4.39518 102.726 4.84484C103.269 5.29449 103.54 5.89682 103.54 6.65062H102.412C102.403 6.20573 102.231 5.8503 101.897 5.58433C101.562 5.31835 101.121 5.18596 100.573 5.18596C100.063 5.18596 99.6494 5.29688 99.3336 5.51992C99.0179 5.74296 98.86 6.04233 98.86 6.41923C98.86 6.69952 98.9459 6.91541 99.1177 7.0645C99.2895 7.21478 99.4985 7.31616 99.7446 7.36864C99.9907 7.42231 100.36 7.47718 100.852 7.53562C101.4 7.60361 101.876 7.70737 102.279 7.84692C102.683 7.98767 103.019 8.21428 103.289 8.52916C103.558 8.84404 103.693 9.27104 103.693 9.81253C103.693 10.5282 103.439 11.084 102.933 11.4812C102.427 11.8771 101.724 12.0763 100.824 12.0763C99.8119 12.0763 99.0284 11.8318 98.4712 11.344L98.4723 11.3452Z" fill="url(#paint3_linear_1436_1285)"/>
<path d="M104.933 2.82317C104.776 2.65858 104.697 2.45104 104.697 2.19938C104.697 1.94771 104.776 1.75688 104.933 1.59705C105.091 1.43723 105.291 1.35732 105.532 1.35732C105.774 1.35732 105.971 1.43484 106.124 1.5899C106.278 1.74495 106.354 1.94771 106.354 2.19938C106.354 2.45104 106.278 2.65858 106.124 2.82317C105.971 2.98777 105.774 3.07007 105.532 3.07007C105.291 3.07007 105.091 2.98777 104.933 2.82317ZM106.104 11.7877H104.949V4.46198H106.104V11.7877Z" fill="url(#paint4_linear_1436_1285)"/>
<path d="M108.192 11.3452C107.635 10.8574 107.356 10.1775 107.356 9.30682H108.47C108.48 9.83877 108.672 10.2646 109.049 10.583C109.425 10.9027 109.938 11.0613 110.587 11.0613C111.116 11.0613 111.539 10.9528 111.854 10.7345C112.17 10.5174 112.328 10.2145 112.328 9.82804C112.328 9.52867 112.24 9.30324 112.063 9.15296C111.887 9.00267 111.678 8.89891 111.436 8.84166C111.195 8.78321 110.819 8.72119 110.308 8.65321C109.463 8.54705 108.78 8.3419 108.262 8.03657C107.741 7.73242 107.481 7.20762 107.481 6.46217C107.481 5.75608 107.739 5.19788 108.255 4.78639C108.77 4.3749 109.454 4.16975 110.308 4.16975C111.162 4.16975 111.902 4.39518 112.445 4.84484C112.988 5.29449 113.26 5.89682 113.26 6.65062H112.132C112.122 6.20573 111.951 5.8503 111.616 5.58433C111.282 5.31835 110.841 5.18596 110.293 5.18596C109.782 5.18596 109.369 5.29688 109.053 5.51992C108.737 5.74296 108.58 6.04233 108.58 6.41923C108.58 6.69952 108.665 6.91541 108.837 7.0645C109.009 7.21478 109.218 7.31616 109.464 7.36864C109.71 7.42231 110.079 7.47718 110.572 7.53562C111.119 7.60361 111.595 7.70737 111.998 7.84692C112.402 7.98767 112.739 8.21428 113.008 8.52916C113.277 8.84404 113.412 9.27104 113.412 9.81253C113.412 10.5282 113.159 11.084 112.653 11.4812C112.147 11.8771 111.443 12.0763 110.544 12.0763C109.531 12.0763 108.748 11.8318 108.191 11.344L108.192 11.3452Z" fill="url(#paint5_linear_1436_1285)"/>
<path d="M115.697 11.4692C115.344 11.0732 115.167 10.5508 115.167 9.90199V5.41973H114.025V4.46197H115.167L115.432 2.09799H116.337L116.323 4.46197H118.133V5.41973H116.323V9.85905C116.323 10.2073 116.421 10.4924 116.616 10.7154C116.811 10.9385 117.076 11.0494 117.41 11.0494C117.521 11.0494 117.656 11.0351 117.814 11.0065C117.972 10.9778 118.116 10.9432 118.246 10.9051V11.8771C117.884 12.0024 117.503 12.0656 117.103 12.0656C116.518 12.0656 116.049 11.8676 115.697 11.4704V11.4692Z" fill="url(#paint6_linear_1436_1285)"/>
<path d="M123.331 0C121.857 0 120.663 1.22731 120.663 2.74207V5.48415H123.331C124.806 5.48415 126 4.25683 126 2.74207C126 1.22731 124.806 0 123.331 0Z" fill="url(#paint7_linear_1436_1285)"/>
<path d="M69.3532 19.9113C69.4878 19.9113 69.5644 19.965 69.6109 20.0974C69.6724 20.2704 69.7362 20.4433 69.7943 20.6186C69.8268 20.7164 69.886 20.7856 69.9858 20.7844C70.0833 20.7832 70.1472 20.7212 70.1762 20.6186C70.2249 20.4528 70.2841 20.2894 70.3387 20.1248C70.3886 19.9769 70.4559 19.9149 70.5674 19.9137C70.6753 19.9137 70.7508 19.9805 70.7995 20.1213C70.8529 20.2787 70.9075 20.4361 70.9609 20.5936C71.0062 20.726 71.0747 20.794 71.1664 20.7868C71.2801 20.7785 71.33 20.6973 71.3625 20.596C71.4171 20.4242 71.474 20.2525 71.5332 20.0819C71.5761 19.9579 71.6748 19.9018 71.8141 19.9125C71.9267 19.9209 72.0126 19.9865 72.03 20.0926C72.037 20.1392 72.0312 20.1928 72.0161 20.2381C71.828 20.7761 71.6388 21.3128 71.4473 21.8495C71.4055 21.9664 71.3138 22.0284 71.1896 22.0237C71.0758 22.0201 70.9818 21.9819 70.9365 21.8591C70.8796 21.6992 70.8146 21.5418 70.7543 21.3832C70.7229 21.3021 70.6695 21.2579 70.5825 21.2543C70.4954 21.2508 70.4339 21.2889 70.4037 21.3712C70.3503 21.5096 70.3016 21.6503 70.2505 21.7887C70.175 21.995 70.0392 22.0737 69.8581 21.9998C69.8012 21.9759 69.7386 21.9175 69.7165 21.8603C69.5145 21.3199 69.3183 20.7773 69.1268 20.2334C69.0618 20.0497 69.1639 19.9137 69.3532 19.9125V19.9113Z" fill="black"/>
<path d="M80.7199 22.0237C80.6166 22.0153 80.5226 21.9783 80.4785 21.8567C80.4262 21.71 80.3693 21.5657 80.3159 21.4189C80.28 21.3223 80.2289 21.252 80.114 21.2532C80.0025 21.2544 79.9561 21.3283 79.9236 21.4189C79.8725 21.5585 79.8238 21.6992 79.7738 21.8388C79.7274 21.9652 79.645 22.0237 79.5127 22.0249C79.3861 22.0249 79.2956 21.9604 79.2515 21.8388C79.0611 21.3164 78.8696 20.7952 78.6792 20.2739C78.6188 20.1081 78.6618 19.9829 78.7988 19.9292C78.9218 19.8815 79.1099 19.9316 79.1551 20.0903C79.2085 20.2775 79.2863 20.4564 79.3513 20.6401C79.3815 20.7248 79.4384 20.782 79.5254 20.7856C79.6183 20.7892 79.6821 20.7331 79.7135 20.6449C79.7773 20.4612 79.8412 20.2775 79.8969 20.0914C79.9305 19.9793 80.0037 19.9292 80.107 19.9161C80.1975 19.9042 80.2858 19.9698 80.3264 20.0795C80.3937 20.2584 80.4564 20.4385 80.5168 20.6198C80.5493 20.7164 80.5992 20.788 80.7048 20.788C80.8093 20.788 80.8662 20.7212 80.8987 20.6246C80.9555 20.4528 81.0113 20.2811 81.0705 20.1105C81.1262 19.9507 81.2272 19.8899 81.3827 19.9149C81.5302 19.94 81.6161 20.0771 81.5661 20.2215C81.3781 20.7629 81.1866 21.3021 80.995 21.8424C80.9497 21.9688 80.8638 22.0237 80.7211 22.0249L80.7199 22.0237Z" fill="black"/>
<path d="M73.827 19.8672C74.2379 19.8636 74.5687 19.9889 74.7904 20.3312C75.0795 20.7749 75.0342 21.5991 74.4584 21.9235C73.9732 22.1954 73.12 22.1298 72.8495 21.4786C72.6673 21.0409 72.6928 20.6031 72.9958 20.225C73.2106 19.9567 73.5159 19.8601 73.8281 19.8684L73.827 19.8672ZM73.8537 20.3157C73.488 20.3157 73.2164 20.596 73.2199 20.9693C73.2233 21.3462 73.4938 21.6217 73.8595 21.6217C74.2216 21.6217 74.484 21.3486 74.4851 20.9705C74.4851 20.5888 74.224 20.3169 73.8537 20.3157Z" fill="black"/>
<path d="M77.9432 20.9967C77.9409 21.3999 77.7912 21.7625 77.3907 21.9461C76.9263 22.1584 76.4643 22.1346 76.0546 21.7887C75.87 21.6324 75.7771 21.4166 75.7458 21.178C75.7017 20.8405 75.7412 20.5172 75.9629 20.2417C76.1347 20.027 76.3622 19.9149 76.6245 19.8791C76.9449 19.8362 77.2583 19.8684 77.53 20.0664C77.8283 20.2835 77.9409 20.5984 77.9432 20.9955V20.9967ZM77.465 20.9657C77.4626 20.565 77.2096 20.3121 76.8137 20.3145C76.4609 20.3169 76.2078 20.5984 76.2101 20.9848C76.2124 21.3522 76.4771 21.6205 76.837 21.6205C77.2096 21.6205 77.4685 21.351 77.465 20.9657Z" fill="black"/>
<path d="M75.4324 24C75.0609 23.9952 74.7057 23.932 74.4016 23.6982C74.3145 23.6315 74.2356 23.5468 74.1706 23.4561C74.0626 23.307 74.0986 23.121 74.2414 23.0267C74.3749 22.9385 74.5722 22.9743 74.6477 23.1305C74.8821 23.6136 75.6494 23.6446 75.9884 23.3846C76.0766 23.3166 76.1474 23.2176 76.2101 23.1234C76.2902 23.0029 76.3982 22.9683 76.5259 22.9922C76.6419 23.0136 76.7278 23.0911 76.736 23.2116C76.7418 23.2963 76.7244 23.4001 76.6779 23.468C76.4655 23.7817 76.1451 23.9082 75.7934 23.9678C75.6738 23.9881 75.5519 23.9893 75.4312 24H75.4324Z" fill="black"/>
<path d="M54.497 21.2746C54.6003 21.3378 54.6816 21.4249 54.7408 21.537C54.8 21.6492 54.8301 21.7744 54.8301 21.9151C54.8301 22.0559 54.8011 22.1823 54.7419 22.2932C54.6827 22.4053 54.6026 22.4924 54.4993 22.5568C54.396 22.6212 54.2822 22.6522 54.1557 22.6522C54.0501 22.6522 53.956 22.6296 53.8713 22.5842C53.7866 22.5389 53.7216 22.4757 53.6728 22.3946H53.6496V23.2188H53.4348V21.2329H53.6496V21.4404H53.6728C53.7216 21.3581 53.7866 21.2937 53.869 21.2472C53.9514 21.2007 54.0454 21.178 54.1534 21.178C54.2799 21.178 54.3937 21.209 54.497 21.2723V21.2746ZM53.8794 21.4535C53.8063 21.5001 53.7483 21.5645 53.7053 21.6456C53.6624 21.7267 53.6415 21.8173 53.6415 21.9163C53.6415 22.0153 53.6624 22.106 53.7053 22.1883C53.7471 22.2706 53.8063 22.335 53.8806 22.3815C53.9549 22.428 54.0385 22.4519 54.1302 22.4519C54.2219 22.4519 54.3043 22.428 54.3774 22.3815C54.4505 22.335 54.5086 22.2706 54.5515 22.1883C54.5945 22.106 54.6154 22.0153 54.6154 21.9163C54.6154 21.8173 54.5945 21.7243 54.5527 21.6432C54.5109 21.5621 54.4529 21.4989 54.3786 21.4524C54.3043 21.407 54.2207 21.3832 54.1302 21.3832C54.0396 21.3832 53.9537 21.407 53.8794 21.4535Z" fill="black"/>
<path d="M55.3003 22.558C55.1935 22.4948 55.111 22.4077 55.0507 22.2956C54.9915 22.1835 54.9613 22.0571 54.9613 21.9151C54.9613 21.7732 54.9915 21.6468 55.0507 21.5358C55.1099 21.4249 55.1935 21.3378 55.3003 21.2746C55.4071 21.2114 55.5278 21.1804 55.6648 21.1804C55.8017 21.1804 55.9201 21.2114 56.0281 21.2746C56.1349 21.3378 56.2185 21.4249 56.2788 21.537C56.3392 21.6491 56.3682 21.7744 56.3682 21.9151C56.3682 22.0559 56.338 22.1847 56.2788 22.2956C56.2196 22.4065 56.1361 22.4948 56.0281 22.558C55.9201 22.6212 55.7994 22.6522 55.6648 22.6522C55.5301 22.6522 55.4071 22.6212 55.3003 22.558ZM55.9167 22.3815C55.9909 22.335 56.049 22.2717 56.0908 22.1906C56.1326 22.1095 56.1535 22.0177 56.1535 21.9151C56.1535 21.8125 56.1326 21.7231 56.0908 21.642C56.049 21.5609 55.9909 21.4977 55.9167 21.4512C55.8424 21.4058 55.7588 21.382 55.6648 21.382C55.5707 21.382 55.4872 21.4046 55.4129 21.4512C55.3386 21.4977 55.2805 21.5609 55.2387 21.642C55.1969 21.7231 55.1761 21.8137 55.1761 21.9151C55.1761 22.0165 55.1969 22.1095 55.2387 22.1906C55.2805 22.2717 55.3386 22.335 55.4129 22.3815C55.4872 22.428 55.5707 22.4507 55.6648 22.4507C55.7588 22.4507 55.8424 22.428 55.9167 22.3815Z" fill="black"/>
<path d="M57.1692 22.5986H56.8627L56.4239 21.2341H56.6364L57.002 22.3767H57.0252L57.3178 21.2341H57.5929L57.8935 22.3803H57.9168L58.2743 21.2341H58.4867L58.0479 22.5986H57.7391L57.4664 21.4929H57.4408L57.1657 22.5986H57.1692Z" fill="black"/>
<path d="M58.8918 22.5544C58.7851 22.49 58.7003 22.4006 58.64 22.2861C58.5796 22.1716 58.5494 22.0427 58.5494 21.8984C58.5494 21.7541 58.5796 21.6384 58.6388 21.5299C58.698 21.4213 58.7816 21.3355 58.886 21.2734C58.9917 21.2114 59.1112 21.1804 59.2436 21.1804C59.3759 21.1804 59.4932 21.2114 59.5976 21.2734C59.7021 21.3355 59.7845 21.4213 59.8426 21.5299C59.9018 21.6384 59.9308 21.7625 59.9308 21.902C59.9308 21.9414 59.9308 21.9712 59.9285 21.9915H58.7688C58.7839 22.1298 58.8361 22.2419 58.9255 22.3254C59.0149 22.4089 59.1252 22.4507 59.2587 22.4507C59.355 22.4507 59.4444 22.4268 59.5245 22.3791C59.6046 22.3314 59.6661 22.267 59.7079 22.1859L59.8867 22.2801C59.8333 22.397 59.7509 22.4888 59.6394 22.5544C59.528 22.62 59.3991 22.6534 59.254 22.6534C59.1194 22.6534 58.9986 22.6212 58.8907 22.5556L58.8918 22.5544ZM59.7067 21.7923C59.6882 21.6682 59.6348 21.568 59.55 21.4941C59.4641 21.419 59.3597 21.382 59.2354 21.382C59.1112 21.382 59.0126 21.4201 58.9278 21.4953C58.8431 21.5704 58.792 21.6706 58.7734 21.7923H59.7067Z" fill="black"/>
<path d="M60.1339 22.5986V21.2341H60.344V21.4178H60.3672C60.3963 21.3569 60.4439 21.3056 60.51 21.2663C60.5762 21.2269 60.6447 21.2066 60.7178 21.2066C60.784 21.2066 60.8374 21.2186 60.8792 21.2412V21.4488C60.8188 21.4213 60.7538 21.4082 60.6841 21.4082C60.5855 21.4082 60.5054 21.45 60.4427 21.5335C60.38 21.6169 60.3498 21.7267 60.3498 21.8615V22.5962H60.1351L60.1339 22.5986Z" fill="black"/>
<path d="M61.2495 22.5544C61.1427 22.49 61.0579 22.4006 60.9976 22.2861C60.9372 22.1716 60.907 22.0427 60.907 21.8984C60.907 21.7541 60.9372 21.6384 60.9964 21.5299C61.0556 21.4213 61.1392 21.3355 61.2437 21.2734C61.3493 21.2114 61.4689 21.1804 61.6012 21.1804C61.7335 21.1804 61.8508 21.2114 61.9552 21.2734C62.0597 21.3355 62.1421 21.4213 62.2002 21.5299C62.2594 21.6384 62.2884 21.7625 62.2884 21.902C62.2884 21.9414 62.2884 21.9712 62.2861 21.9915H61.1264C61.1415 22.1298 61.1937 22.2419 61.2831 22.3254C61.3725 22.4089 61.4828 22.4507 61.6163 22.4507C61.7126 22.4507 61.802 22.4268 61.8821 22.3791C61.9622 22.3314 62.0237 22.267 62.0655 22.1859L62.2443 22.2801C62.1909 22.397 62.1085 22.4888 61.997 22.5544C61.8856 22.62 61.7567 22.6534 61.6116 22.6534C61.477 22.6534 61.3563 22.6212 61.2483 22.5556L61.2495 22.5544ZM62.0644 21.7923C62.0458 21.6682 61.9924 21.568 61.9077 21.4941C61.8218 21.419 61.7173 21.382 61.5931 21.382C61.4689 21.382 61.3702 21.4201 61.2855 21.4953C61.2007 21.5704 61.1496 21.6706 61.1311 21.7923H62.0644Z" fill="black"/>
<path d="M62.7597 22.5568C62.6564 22.4924 62.574 22.4053 62.5148 22.2932C62.4556 22.1811 62.4254 22.0559 62.4254 21.9151C62.4254 21.7744 62.4544 21.648 62.5136 21.537C62.5728 21.4249 62.6541 21.3378 62.7574 21.2746C62.8607 21.2114 62.9756 21.1804 63.1021 21.1804C63.2078 21.1804 63.3018 21.2031 63.3854 21.246C63.4678 21.2901 63.534 21.3534 63.5827 21.4368H63.6083V20.6127H63.823V22.5986H63.6083V22.3874H63.5827C63.534 22.4721 63.469 22.5377 63.3865 22.5831C63.3041 22.6296 63.2101 22.6522 63.1056 22.6522C62.9791 22.6522 62.8642 22.62 62.7609 22.5568H62.7597ZM63.3761 22.3803C63.4492 22.3338 63.5073 22.2694 63.5502 22.1871C63.592 22.1048 63.6141 22.0141 63.6141 21.9151C63.6141 21.8161 63.5932 21.7255 63.5514 21.6444C63.5096 21.5633 63.4515 21.4989 63.3773 21.4523C63.303 21.4058 63.2194 21.382 63.1288 21.382C63.0383 21.382 62.9524 21.4058 62.8781 21.4523C62.805 21.4989 62.7469 21.5633 62.704 21.6444C62.661 21.7255 62.6401 21.8161 62.6401 21.9151C62.6401 22.0141 62.661 22.1072 62.704 22.1883C62.7458 22.2694 62.805 22.3338 62.8793 22.3803C62.9536 22.4268 63.0371 22.4507 63.1288 22.4507C63.2205 22.4507 63.303 22.4268 63.3761 22.3803Z" fill="black"/>
<path d="M65.043 22.5831C64.9606 22.5365 64.8956 22.4721 64.8468 22.3874H64.8236V22.5986H64.6089V20.6127H64.8236V21.4368H64.8468C64.8956 21.3545 64.9618 21.2901 65.0453 21.246C65.1289 21.2019 65.2241 21.1804 65.3297 21.1804C65.4563 21.1804 65.57 21.2114 65.6734 21.2746C65.7767 21.3378 65.8568 21.4249 65.916 21.537C65.9752 21.6491 66.0042 21.7744 66.0042 21.9151C66.0042 22.0559 65.974 22.1823 65.9148 22.2932C65.8556 22.4053 65.7743 22.4924 65.671 22.5568C65.5677 22.6212 65.454 22.6522 65.3274 22.6522C65.2206 22.6522 65.1254 22.6296 65.043 22.5831ZM65.5526 22.3791C65.6269 22.3326 65.685 22.2682 65.7267 22.1871C65.7685 22.106 65.7894 22.0153 65.7894 21.9139C65.7894 21.8126 65.7685 21.7243 65.7267 21.6432C65.685 21.5621 65.6269 21.4977 65.5526 21.4512C65.4783 21.4046 65.3948 21.3808 65.3042 21.3808C65.2137 21.3808 65.1278 21.4046 65.0535 21.4512C64.9803 21.4977 64.9223 21.5621 64.8794 21.6432C64.8364 21.7243 64.8155 21.8149 64.8155 21.9139C64.8155 22.0129 64.8364 22.1036 64.8794 22.1859C64.9211 22.2682 64.9803 22.3326 65.0546 22.3791C65.1289 22.4256 65.2125 22.4495 65.3042 22.4495C65.3959 22.4495 65.4783 22.4256 65.5526 22.3791Z" fill="black"/>
<path d="M66.1783 23.1913C66.14 23.183 66.1063 23.1735 66.0773 23.1603V22.9635C66.1435 22.991 66.2004 23.0041 66.2514 23.0041C66.3025 23.0041 66.3478 22.9898 66.3838 22.96C66.4198 22.9301 66.4488 22.8932 66.4708 22.849C66.4929 22.8049 66.5173 22.7465 66.5451 22.6749L66.5765 22.5962L65.9926 21.2341H66.2178L66.667 22.3016H66.6926L67.0768 21.2341H67.3078L66.7889 22.62C66.7367 22.7548 66.6925 22.861 66.6542 22.9361C66.6159 23.0112 66.5672 23.0757 66.508 23.1269C66.4488 23.1782 66.3745 23.2045 66.2863 23.2045C66.2538 23.2045 66.2178 23.2009 66.1795 23.1925L66.1783 23.1913Z" fill="black"/>
</g>
<defs>
<linearGradient id="paint0_linear_1436_1285" x1="7.5" y1="44.5" x2="105" y2="85" gradientUnits="userSpaceOnUse">
<stop stop-color="#5757FF"/>
<stop offset="1" stop-color="#6CC4FF"/>
</linearGradient>
<linearGradient id="paint1_linear_1436_1285" x1="81.4779" y1="9.25674" x2="123.972" y2="0.625488" gradientUnits="userSpaceOnUse">
<stop stop-color="#6CC4FF"/>
<stop offset="1" stop-color="#5757FF"/>
</linearGradient>
<linearGradient id="paint2_linear_1436_1285" x1="81.7739" y1="10.713" x2="124.268" y2="2.08294" gradientUnits="userSpaceOnUse">
<stop stop-color="#6CC4FF"/>
<stop offset="1" stop-color="#5757FF"/>
</linearGradient>
<linearGradient id="paint3_linear_1436_1285" x1="82.0618" y1="12.13" x2="124.556" y2="3.49874" gradientUnits="userSpaceOnUse">
<stop stop-color="#6CC4FF"/>
<stop offset="1" stop-color="#5757FF"/>
</linearGradient>
<linearGradient id="paint4_linear_1436_1285" x1="81.9689" y1="11.6756" x2="124.464" y2="3.0443" gradientUnits="userSpaceOnUse">
<stop stop-color="#6CC4FF"/>
<stop offset="1" stop-color="#5757FF"/>
</linearGradient>
<linearGradient id="paint5_linear_1436_1285" x1="82.467" y1="14.1266" x2="124.961" y2="5.49538" gradientUnits="userSpaceOnUse">
<stop stop-color="#6CC4FF"/>
<stop offset="1" stop-color="#5757FF"/>
</linearGradient>
<linearGradient id="paint6_linear_1436_1285" x1="82.5145" y1="14.3592" x2="125.008" y2="5.72908" gradientUnits="userSpaceOnUse">
<stop stop-color="#6CC4FF"/>
<stop offset="1" stop-color="#5757FF"/>
</linearGradient>
<linearGradient id="paint7_linear_1436_1285" x1="81.9573" y1="11.6147" x2="124.451" y2="2.98349" gradientUnits="userSpaceOnUse">
<stop stop-color="#6CC4FF"/>
<stop offset="1" stop-color="#5757FF"/>
</linearGradient>
<clipPath id="clip0_1436_1285">
<rect width="113" height="24" fill="white" transform="translate(13)"/>
</clipPath>
</defs>
</svg>
