<svg width="134" height="83" viewBox="0 0 134 83" fill="none" xmlns="http://www.w3.org/2000/svg">
<path d="M31.2976 13.152C30.7909 13.152 30.3456 13.0693 29.9616 12.904C29.5829 12.7333 29.2869 12.496 29.0736 12.192C28.8656 11.888 28.7616 11.5333 28.7616 11.128H30.0256C30.0309 11.4427 30.1483 11.6907 30.3776 11.872C30.6069 12.0533 30.9269 12.144 31.3376 12.144C31.6789 12.144 31.9456 12.08 32.1376 11.952C32.3349 11.824 32.4336 11.6453 32.4336 11.416C32.4336 11.2453 32.3776 11.112 32.2656 11.016C32.1589 10.9147 32.0203 10.84 31.8496 10.792C31.6789 10.744 31.4523 10.6987 31.1696 10.656C30.6896 10.5867 30.2949 10.5093 29.9856 10.424C29.6763 10.3333 29.4043 10.1733 29.1696 9.944C28.9349 9.70933 28.8176 9.38133 28.8176 8.96C28.8176 8.59733 28.9136 8.28 29.1056 8.008C29.2976 7.736 29.5696 7.52533 29.9216 7.376C30.2789 7.22667 30.6976 7.152 31.1776 7.152C31.6629 7.152 32.0869 7.23467 32.4496 7.4C32.8176 7.56 33.1003 7.78933 33.2976 8.088C33.4949 8.38667 33.5936 8.73333 33.5936 9.128H32.3696C32.3749 8.824 32.2736 8.58667 32.0656 8.416C31.8576 8.24533 31.5723 8.16 31.2096 8.16C30.8789 8.16 30.6176 8.224 30.4256 8.352C30.2389 8.48 30.1456 8.65067 30.1456 8.864C30.1456 9.03467 30.2043 9.17067 30.3216 9.272C30.4389 9.368 30.5883 9.44 30.7696 9.488C30.9509 9.53067 31.1963 9.57333 31.5056 9.616C31.9589 9.68533 32.3376 9.768 32.6416 9.864C32.9509 9.96 33.2149 10.1253 33.4336 10.36C33.6523 10.5947 33.7616 10.92 33.7616 11.336C33.7616 11.704 33.6603 12.024 33.4576 12.296C33.2603 12.568 32.9749 12.7787 32.6016 12.928C32.2336 13.0773 31.7989 13.152 31.2976 13.152ZM36.6258 13.128C36.1885 13.128 35.7965 13.0373 35.4498 12.856C35.1085 12.6693 34.8418 12.408 34.6498 12.072C34.4578 11.736 34.3618 11.352 34.3618 10.92C34.3618 10.4987 34.4578 10.1253 34.6498 9.8C34.8418 9.47467 35.1085 9.224 35.4498 9.048C35.7912 8.86667 36.1805 8.776 36.6178 8.776C37.0498 8.776 37.4312 8.86667 37.7618 9.048C38.0978 9.22933 38.3565 9.48267 38.5378 9.808C38.7245 10.1333 38.8178 10.5093 38.8178 10.936C38.8178 11.1173 38.8125 11.2373 38.8018 11.296H35.5858C35.6338 11.5893 35.7538 11.8213 35.9458 11.992C36.1432 12.1627 36.3858 12.248 36.6738 12.248C36.8978 12.248 37.0952 12.1973 37.2658 12.096C37.4365 11.9947 37.5672 11.8587 37.6578 11.688L38.6658 11.944C38.5378 12.312 38.2898 12.6027 37.9218 12.816C37.5538 13.024 37.1218 13.128 36.6258 13.128ZM37.6098 10.56C37.5725 10.2933 37.4605 10.0773 37.2738 9.912C37.0872 9.74133 36.8578 9.656 36.5858 9.656C36.3192 9.656 36.0952 9.73867 35.9138 9.904C35.7378 10.064 35.6258 10.2827 35.5778 10.56H37.6098ZM41.6571 14.968C41.0598 14.968 40.5664 14.8427 40.1771 14.592C39.7878 14.3413 39.5424 13.9867 39.4411 13.528L40.5851 13.304C40.6598 13.528 40.7878 13.704 40.9691 13.832C41.1504 13.96 41.3691 14.024 41.6251 14.024C41.9558 14.024 42.2171 13.9227 42.4091 13.72C42.6064 13.5227 42.7051 13.256 42.7051 12.92V12.464H42.6251C42.2784 12.8587 41.8464 13.056 41.3291 13.056C40.9558 13.056 40.6224 12.968 40.3291 12.792C40.0358 12.616 39.8064 12.3707 39.6411 12.056C39.4758 11.736 39.3931 11.368 39.3931 10.952C39.3931 10.52 39.4731 10.1413 39.6331 9.816C39.7984 9.48533 40.0251 9.232 40.3131 9.056C40.6064 8.87467 40.9424 8.784 41.3211 8.784C41.8704 8.784 42.3158 8.99733 42.6571 9.424H42.7371V8.904H43.8891V12.952C43.8891 13.5813 43.6891 14.0747 43.2891 14.432C42.8891 14.7893 42.3451 14.968 41.6571 14.968ZM41.6651 12.088C41.9798 12.088 42.2384 11.9813 42.4411 11.768C42.6438 11.5547 42.7451 11.2827 42.7451 10.952C42.7451 10.616 42.6438 10.3387 42.4411 10.12C42.2384 9.90133 41.9798 9.792 41.6651 9.792C41.3504 9.792 41.0891 9.90133 40.8811 10.12C40.6784 10.3387 40.5771 10.616 40.5771 10.952C40.5771 11.2827 40.6784 11.5547 40.8811 11.768C41.0891 11.9813 41.3504 12.088 41.6651 12.088ZM48.7318 8.904V13H47.5478V12.424H47.4678C47.1638 12.888 46.7665 13.12 46.2758 13.12C45.9718 13.12 45.7025 13.048 45.4678 12.904C45.2332 12.7547 45.0518 12.552 44.9238 12.296C44.7958 12.0347 44.7318 11.7413 44.7318 11.416V8.904H45.9158V11.248C45.9158 11.504 45.9852 11.712 46.1238 11.872C46.2625 12.0267 46.4492 12.104 46.6838 12.104C46.9238 12.104 47.1265 12.0187 47.2918 11.848C47.4625 11.6773 47.5478 11.464 47.5478 11.208V8.904H48.7318ZM49.6474 13V8.904H50.8154V9.464H50.9034C50.9941 9.272 51.1301 9.11733 51.3114 9C51.4981 8.88267 51.6981 8.824 51.9114 8.824C52.0821 8.824 52.2367 8.85867 52.3754 8.928V9.992C52.2687 9.944 52.1514 9.90667 52.0234 9.88C51.9007 9.85333 51.7941 9.84 51.7034 9.84C51.4421 9.84 51.2314 9.93867 51.0714 10.136C50.9114 10.3333 50.8314 10.5893 50.8314 10.904V13H49.6474ZM54.993 13.128C54.5397 13.128 54.1424 13.04 53.801 12.864C53.4597 12.6827 53.193 12.4293 53.001 12.104C52.8144 11.7733 52.721 11.3893 52.721 10.952C52.721 10.5147 52.8144 10.1333 53.001 9.808C53.193 9.47733 53.4597 9.224 53.801 9.048C54.1424 8.86667 54.5397 8.776 54.993 8.776C55.441 8.776 55.8357 8.86667 56.177 9.048C56.5237 9.224 56.7904 9.47733 56.977 9.808C57.169 10.1333 57.265 10.5147 57.265 10.952C57.265 11.3893 57.169 11.7733 56.977 12.104C56.7904 12.4293 56.5237 12.6827 56.177 12.864C55.8357 13.04 55.441 13.128 54.993 13.128ZM54.993 12.12C55.3077 12.12 55.5664 12.0107 55.769 11.792C55.9717 11.5733 56.073 11.2933 56.073 10.952C56.073 10.6107 55.9717 10.3333 55.769 10.12C55.5664 9.90133 55.3077 9.792 54.993 9.792C54.673 9.792 54.4117 9.90133 54.209 10.12C54.0064 10.3333 53.905 10.6107 53.905 10.952C53.905 11.2933 54.0064 11.5733 54.209 11.792C54.4117 12.0107 54.673 12.12 54.993 12.12ZM61.6161 13.128C61.2054 13.128 60.8774 12.9947 60.6321 12.728C60.3868 12.4613 60.2641 12.112 60.2641 11.68V9.768H59.6881V8.904H60.2961L60.5281 7.608H61.4561L61.4481 8.904H62.3841V9.768H61.4481V11.632C61.4481 11.808 61.4961 11.9493 61.5921 12.056C61.6934 12.1573 61.8268 12.208 61.9921 12.208C62.1148 12.208 62.2561 12.1893 62.4161 12.152V13C62.3041 13.0373 62.1734 13.0667 62.0241 13.088C61.8748 13.1147 61.7388 13.128 61.6161 13.128ZM63.1474 13V8.904H64.3154V9.464H64.4034C64.4941 9.272 64.6301 9.11733 64.8114 9C64.9981 8.88267 65.1981 8.824 65.4114 8.824C65.5821 8.824 65.7367 8.85867 65.8754 8.928V9.992C65.7687 9.944 65.6514 9.90667 65.5234 9.88C65.4007 9.85333 65.2941 9.84 65.2034 9.84C64.9421 9.84 64.7314 9.93867 64.5714 10.136C64.4114 10.3333 64.3314 10.5893 64.3314 10.904V13H63.1474ZM67.5807 13.104C67.154 13.104 66.81 13 66.5487 12.792C66.2927 12.5787 66.1647 12.2907 66.1647 11.928C66.1647 11.1547 66.81 10.688 68.1007 10.528L68.9727 10.424V10.256C68.9727 10.0587 68.906 9.90133 68.7727 9.784C68.6447 9.66133 68.4633 9.6 68.2287 9.6C68.01 9.6 67.834 9.65867 67.7007 9.776C67.5673 9.888 67.5033 10.0453 67.5087 10.248H66.3487C66.3487 9.8 66.5193 9.44267 66.8607 9.176C67.2073 8.90933 67.6687 8.776 68.2447 8.776C68.826 8.776 69.29 8.91467 69.6367 9.192C69.9833 9.464 70.1567 9.832 70.1567 10.296V13H68.9727V12.48H68.8927C68.7647 12.6827 68.586 12.8373 68.3567 12.944C68.1327 13.0507 67.874 13.104 67.5807 13.104ZM67.9727 12.328C68.266 12.328 68.506 12.2427 68.6927 12.072C68.8793 11.9013 68.9727 11.688 68.9727 11.432V11.144L68.1327 11.248C67.8553 11.28 67.65 11.3493 67.5167 11.456C67.3887 11.5573 67.3247 11.6827 67.3247 11.832C67.3247 11.9867 67.3807 12.1093 67.4927 12.2C67.61 12.2853 67.77 12.328 67.9727 12.328ZM72.7588 13.128C72.3854 13.128 72.0521 13.0373 71.7588 12.856C71.4654 12.6747 71.2361 12.4187 71.0708 12.088C70.9054 11.7573 70.8228 11.3787 70.8228 10.952C70.8228 10.5253 70.9054 10.1493 71.0708 9.824C71.2361 9.49333 71.4654 9.23733 71.7588 9.056C72.0521 8.86933 72.3828 8.776 72.7508 8.776C73.0334 8.776 73.2841 8.832 73.5028 8.944C73.7268 9.05067 73.9108 9.208 74.0548 9.416H74.1348V7.064H75.3188V13H74.1348V12.48H74.0548C73.7561 12.912 73.3241 13.128 72.7588 13.128ZM73.0948 12.12C73.4094 12.12 73.6681 12.008 73.8708 11.784C74.0734 11.56 74.1748 11.2827 74.1748 10.952C74.1748 10.6213 74.0734 10.3467 73.8708 10.128C73.6681 9.904 73.4094 9.792 73.0948 9.792C72.7801 9.792 72.5188 9.904 72.3108 10.128C72.1081 10.3467 72.0068 10.6213 72.0068 10.952C72.0068 11.2827 72.1108 11.56 72.3188 11.784C72.5268 12.008 72.7854 12.12 73.0948 12.12ZM76.8575 8.336C76.6495 8.336 76.4789 8.272 76.3455 8.144C76.2122 8.01067 76.1455 7.84267 76.1455 7.64C76.1455 7.43733 76.2122 7.272 76.3455 7.144C76.4789 7.01067 76.6495 6.944 76.8575 6.944C77.0655 6.944 77.2362 7.01067 77.3695 7.144C77.5029 7.272 77.5695 7.43733 77.5695 7.64C77.5695 7.84267 77.5029 8.01067 77.3695 8.144C77.2362 8.272 77.0655 8.336 76.8575 8.336ZM77.4495 13H76.2655V8.904H77.4495V13ZM80.4374 13.128C80.0054 13.128 79.6214 13.0373 79.2854 12.856C78.9494 12.6747 78.6854 12.4187 78.4934 12.088C78.3067 11.7573 78.2134 11.3787 78.2134 10.952C78.2134 10.52 78.3067 10.1413 78.4934 9.816C78.6801 9.48533 78.9414 9.22933 79.2774 9.048C79.6134 8.86667 80.0001 8.776 80.4374 8.776C80.8054 8.776 81.1387 8.84267 81.4374 8.976C81.7414 9.104 81.9894 9.288 82.1814 9.528C82.3734 9.768 82.4907 10.048 82.5334 10.368L81.4294 10.512C81.3761 10.288 81.2561 10.1067 81.0694 9.968C80.8881 9.824 80.6827 9.752 80.4534 9.752C80.1494 9.752 79.8961 9.864 79.6934 10.088C79.4961 10.312 79.3974 10.6 79.3974 10.952C79.3974 11.304 79.4961 11.592 79.6934 11.816C79.8907 12.04 80.1414 12.152 80.4454 12.152C80.6801 12.152 80.8881 12.0827 81.0694 11.944C81.2507 11.8 81.3707 11.6187 81.4294 11.4L82.5414 11.536C82.4934 11.856 82.3707 12.136 82.1734 12.376C81.9814 12.616 81.7334 12.8027 81.4294 12.936C81.1307 13.064 80.8001 13.128 80.4374 13.128ZM83.9044 8.336C83.6964 8.336 83.5257 8.272 83.3924 8.144C83.2591 8.01067 83.1924 7.84267 83.1924 7.64C83.1924 7.43733 83.2591 7.272 83.3924 7.144C83.5257 7.01067 83.6964 6.944 83.9044 6.944C84.1124 6.944 84.2831 7.01067 84.4164 7.144C84.5497 7.272 84.6164 7.43733 84.6164 7.64C84.6164 7.84267 84.5497 8.01067 84.4164 8.144C84.2831 8.272 84.1124 8.336 83.9044 8.336ZM84.4964 13H83.3124V8.904H84.4964V13ZM87.5243 13.128C87.0709 13.128 86.6736 13.04 86.3323 12.864C85.9909 12.6827 85.7243 12.4293 85.5323 12.104C85.3456 11.7733 85.2523 11.3893 85.2523 10.952C85.2523 10.5147 85.3456 10.1333 85.5323 9.808C85.7243 9.47733 85.9909 9.224 86.3323 9.048C86.6736 8.86667 87.0709 8.776 87.5243 8.776C87.9723 8.776 88.3669 8.86667 88.7083 9.048C89.0549 9.224 89.3216 9.47733 89.5083 9.808C89.7003 10.1333 89.7963 10.5147 89.7963 10.952C89.7963 11.3893 89.7003 11.7733 89.5083 12.104C89.3216 12.4293 89.0549 12.6827 88.7083 12.864C88.3669 13.04 87.9723 13.128 87.5243 13.128ZM87.5243 12.12C87.8389 12.12 88.0976 12.0107 88.3003 11.792C88.5029 11.5733 88.6043 11.2933 88.6043 10.952C88.6043 10.6107 88.5029 10.3333 88.3003 10.12C88.0976 9.90133 87.8389 9.792 87.5243 9.792C87.2043 9.792 86.9429 9.90133 86.7403 10.12C86.5376 10.3333 86.4363 10.6107 86.4363 10.952C86.4363 11.2933 86.5376 11.5733 86.7403 11.792C86.9429 12.0107 87.2043 12.12 87.5243 12.12ZM90.5146 13V8.904H91.6986V9.48H91.7786C92.0826 9.016 92.4799 8.784 92.9706 8.784C93.2746 8.784 93.5439 8.85867 93.7786 9.008C94.0133 9.152 94.1946 9.35467 94.3226 9.616C94.4506 9.872 94.5146 10.1627 94.5146 10.488V13H93.3306V10.656C93.3306 10.4 93.2613 10.1947 93.1226 10.04C92.9839 9.88 92.7973 9.8 92.5626 9.8C92.3226 9.8 92.1173 9.88533 91.9466 10.056C91.7813 10.2267 91.6986 10.44 91.6986 10.696V13H90.5146ZM96.5182 13.104C96.0915 13.104 95.7475 13 95.4862 12.792C95.2302 12.5787 95.1022 12.2907 95.1022 11.928C95.1022 11.1547 95.7475 10.688 97.0382 10.528L97.9102 10.424V10.256C97.9102 10.0587 97.8435 9.90133 97.7102 9.784C97.5822 9.66133 97.4008 9.6 97.1662 9.6C96.9475 9.6 96.7715 9.65867 96.6382 9.776C96.5048 9.888 96.4408 10.0453 96.4462 10.248H95.2862C95.2862 9.8 95.4568 9.44267 95.7982 9.176C96.1448 8.90933 96.6062 8.776 97.1822 8.776C97.7635 8.776 98.2275 8.91467 98.5742 9.192C98.9208 9.464 99.0942 9.832 99.0942 10.296V13H97.9102V12.48H97.8302C97.7022 12.6827 97.5235 12.8373 97.2942 12.944C97.0702 13.0507 96.8115 13.104 96.5182 13.104ZM96.9102 12.328C97.2035 12.328 97.4435 12.2427 97.6302 12.072C97.8168 11.9013 97.9102 11.688 97.9102 11.432V11.144L97.0702 11.248C96.7928 11.28 96.5875 11.3493 96.4542 11.456C96.3262 11.5573 96.2622 11.6827 96.2622 11.832C96.2622 11.9867 96.3182 12.1093 96.4302 12.2C96.5475 12.2853 96.7075 12.328 96.9102 12.328ZM101.12 13H99.9363V7.064H101.12V13ZM103.974 10.824H103.158L103.206 9.688L102.246 10.296L101.838 9.6L102.846 9.064L101.838 8.536L102.246 7.84L103.206 8.44L103.158 7.304H103.974L103.926 8.44L104.886 7.84L105.294 8.536L104.286 9.064L105.294 9.6L104.886 10.296L103.926 9.688L103.974 10.824Z" fill="black"/>
<path d="M51.1863 81V76.96H51.8263V77.496H51.9063C52.0236 77.2827 52.1836 77.1147 52.3863 76.992C52.5943 76.864 52.8263 76.8 53.0823 76.8C53.365 76.8 53.6263 76.872 53.8663 77.016C54.1063 77.16 54.285 77.3493 54.4023 77.584H54.4743C54.6183 77.3387 54.805 77.1493 55.0343 77.016C55.2636 76.8773 55.5276 76.808 55.8263 76.808C56.141 76.808 56.421 76.8853 56.6663 77.04C56.917 77.1893 57.1116 77.4 57.2503 77.672C57.389 77.9387 57.4583 78.2453 57.4583 78.592V81H56.7943V78.584C56.7943 78.2427 56.6956 77.96 56.4983 77.736C56.301 77.512 56.0503 77.4 55.7463 77.4C55.421 77.4 55.1543 77.512 54.9463 77.736C54.7436 77.9547 54.6423 78.2373 54.6423 78.584V81H53.9783V78.584C53.9783 78.2267 53.8823 77.9413 53.6903 77.728C53.5036 77.5093 53.253 77.4 52.9383 77.4C52.613 77.4 52.349 77.5093 52.1463 77.728C51.949 77.9413 51.8503 78.2267 51.8503 78.584V81H51.1863ZM60.5762 81.16C60.1602 81.16 59.7869 81.064 59.4562 80.872C59.1255 80.68 58.8669 80.416 58.6802 80.08C58.4935 79.7387 58.4002 79.3547 58.4002 78.928C58.4002 78.5227 58.4909 78.16 58.6722 77.84C58.8589 77.5147 59.1149 77.2613 59.4402 77.08C59.7655 76.8933 60.1335 76.8 60.5442 76.8C60.9495 76.8 61.3122 76.8933 61.6322 77.08C61.9575 77.2613 62.2109 77.5147 62.3922 77.84C62.5735 78.16 62.6642 78.5253 62.6642 78.936C62.6642 79.0533 62.6615 79.1413 62.6562 79.2H59.0802C59.1282 79.6107 59.2882 79.9413 59.5602 80.192C59.8375 80.4373 60.1815 80.56 60.5922 80.56C60.8909 80.56 61.1629 80.4907 61.4082 80.352C61.6589 80.208 61.8482 80.016 61.9762 79.776L62.5282 80.056C62.3629 80.4027 62.1069 80.6747 61.7602 80.872C61.4189 81.064 61.0242 81.16 60.5762 81.16ZM61.9682 78.616C61.9095 78.248 61.7469 77.9547 61.4802 77.736C61.2189 77.512 60.8962 77.4 60.5122 77.4C60.1389 77.4 59.8215 77.512 59.5602 77.736C59.3042 77.96 59.1469 78.2533 59.0882 78.616H61.9682ZM63.6863 81V76.96H64.3503V77.512H64.4303C64.5743 77.288 64.7556 77.1147 64.9743 76.992C65.193 76.8693 65.4356 76.808 65.7023 76.808C66.0383 76.808 66.3316 76.8853 66.5823 77.04C66.8383 77.1893 67.0356 77.4 67.1743 77.672C67.313 77.9387 67.3823 78.2427 67.3823 78.584V81H66.7183V78.584C66.7183 78.2373 66.6196 77.9547 66.4223 77.736C66.225 77.5173 65.9556 77.408 65.6143 77.408C65.3903 77.408 65.1796 77.4613 64.9823 77.568C64.7903 77.6747 64.6356 77.824 64.5183 78.016C64.4063 78.2027 64.3503 78.4107 64.3503 78.64V81H63.6863ZM70.1861 81.16C69.6047 81.16 69.1541 81.0267 68.8341 80.76C68.5141 80.488 68.3541 80.112 68.3541 79.632H68.9941C68.9994 79.9253 69.1087 80.16 69.3221 80.336C69.5407 80.512 69.8367 80.6 70.2101 80.6C70.5141 80.6 70.7567 80.5413 70.9381 80.424C71.1194 80.3013 71.2101 80.1333 71.2101 79.92C71.2101 79.7547 71.1594 79.632 71.0581 79.552C70.9567 79.4667 70.8367 79.408 70.6981 79.376C70.5594 79.344 70.3434 79.3093 70.0501 79.272C69.5647 79.2133 69.1727 79.1013 68.8741 78.936C68.5754 78.7653 68.4261 78.4747 68.4261 78.064C68.4261 77.6747 68.5727 77.368 68.8661 77.144C69.1647 76.9147 69.5594 76.8 70.0501 76.8C70.5567 76.8 70.9647 76.9253 71.2741 77.176C71.5887 77.4213 71.7461 77.752 71.7461 78.168H71.0981C71.0927 77.9227 70.9941 77.728 70.8021 77.584C70.6101 77.4347 70.3567 77.36 70.0421 77.36C69.7487 77.36 69.5114 77.4213 69.3301 77.544C69.1487 77.6667 69.0581 77.832 69.0581 78.04C69.0581 78.1947 69.1061 78.3147 69.2021 78.4C69.3034 78.48 69.4234 78.536 69.5621 78.568C69.7061 78.5947 69.9194 78.624 70.2021 78.656C70.5167 78.6933 70.7887 78.752 71.0181 78.832C71.2527 78.9067 71.4474 79.032 71.6021 79.208C71.7567 79.3787 71.8341 79.6133 71.8341 79.912C71.8341 80.3067 71.6874 80.6133 71.3941 80.832C71.1061 81.0507 70.7034 81.16 70.1861 81.16ZM76.4974 76.96V81H75.8334V80.448H75.7534C75.6148 80.6667 75.4334 80.8373 75.2094 80.96C74.9908 81.0827 74.7508 81.144 74.4894 81.144C74.1534 81.144 73.8574 81.0693 73.6014 80.92C73.3454 80.7653 73.1481 80.5547 73.0094 80.288C72.8761 80.016 72.8094 79.7093 72.8094 79.368V76.96H73.4734V79.368C73.4734 79.72 73.5694 80.0053 73.7614 80.224C73.9588 80.4373 74.2281 80.544 74.5694 80.544C74.7934 80.544 75.0014 80.4907 75.1934 80.384C75.3908 80.2773 75.5454 80.1307 75.6574 79.944C75.7748 79.752 75.8334 79.5413 75.8334 79.312V76.96H76.4974ZM78.8612 81.128C78.4239 81.128 78.0719 81.024 77.8052 80.816C77.5439 80.6027 77.4132 80.3227 77.4132 79.976C77.4132 79.6133 77.5679 79.3093 77.8772 79.064C78.1865 78.8187 78.6345 78.664 79.2212 78.6L80.3412 78.464V78.304C80.3412 78.032 80.2479 77.816 80.0612 77.656C79.8745 77.4907 79.6159 77.408 79.2852 77.408C78.9759 77.408 78.7305 77.48 78.5492 77.624C78.3679 77.7627 78.2799 77.9573 78.2852 78.208H77.6132C77.6132 77.7813 77.7652 77.4427 78.0692 77.192C78.3732 76.936 78.7812 76.808 79.2932 76.808C79.8159 76.808 80.2319 76.9467 80.5412 77.224C80.8505 77.496 81.0052 77.8613 81.0052 78.32V81H80.3412V80.408H80.2692C79.9705 80.888 79.5012 81.128 78.8612 81.128ZM78.9572 80.576C79.2292 80.576 79.4692 80.5253 79.6772 80.424C79.8852 80.3227 80.0479 80.1813 80.1652 80C80.2825 79.8187 80.3412 79.616 80.3412 79.392V79.032L79.2212 79.16C78.8265 79.208 78.5359 79.304 78.3492 79.448C78.1679 79.5867 78.0772 79.7573 78.0772 79.96C78.0772 80.152 78.1545 80.304 78.3092 80.416C78.4692 80.5227 78.6852 80.576 78.9572 80.576ZM82.8191 81H82.1551V75.12H82.8191V81Z" fill="#919AAA"/>
<path d="M37.404 47.84C37.404 49.04 36.984 50.0333 36.144 50.82C35.304 51.6067 34.144 52.0933 32.664 52.28V54.42H29.604V52.24C28.1507 52 27.004 51.4467 26.164 50.58C25.3373 49.7 24.924 48.6133 24.924 47.32H28.084C28.084 48.1067 28.3707 48.7267 28.944 49.18C29.5173 49.6333 30.3173 49.86 31.344 49.86C32.1973 49.86 32.864 49.7 33.344 49.38C33.8373 49.06 34.084 48.6133 34.084 48.04C34.084 47.6133 33.944 47.28 33.664 47.04C33.3973 46.7867 33.0507 46.6 32.624 46.48C32.1973 46.36 31.6307 46.2467 30.924 46.14C29.724 45.9667 28.7373 45.7733 27.964 45.56C27.1907 45.3333 26.5107 44.9333 25.924 44.36C25.3373 43.7733 25.044 42.9533 25.044 41.9C25.044 40.7133 25.444 39.7267 26.244 38.94C27.0573 38.1533 28.1773 37.66 29.604 37.46V35.6H32.664V37.54C34.0107 37.8067 35.064 38.36 35.824 39.2C36.5973 40.04 36.984 41.08 36.984 42.32H33.924C33.9373 41.56 33.684 40.9667 33.164 40.54C32.644 40.1133 31.9307 39.9 31.024 39.9C30.1973 39.9 29.544 40.06 29.064 40.38C28.5973 40.7 28.364 41.1267 28.364 41.66C28.364 42.0867 28.5107 42.4267 28.804 42.68C29.0973 42.92 29.4707 43.1 29.924 43.22C30.3773 43.3267 30.9907 43.4333 31.764 43.54C32.8973 43.7133 33.844 43.92 34.604 44.16C35.3773 44.4 36.0373 44.8133 36.584 45.4C37.1307 45.9867 37.404 46.8 37.404 47.84ZM45.387 52H42.147V41.58H41.927L38.687 43.98V40.7L42.607 37.76H45.387V52ZM48.8188 55.22L47.7188 54.86L48.8188 52.2C48.4188 52.12 48.0922 51.9333 47.8388 51.64C47.5988 51.3333 47.4788 50.9733 47.4788 50.56C47.4788 50.0667 47.6388 49.6667 47.9588 49.36C48.2788 49.04 48.6922 48.88 49.1988 48.88C49.7055 48.88 50.1188 49.04 50.4388 49.36C50.7722 49.6667 50.9388 50.0667 50.9388 50.56C50.9388 50.96 50.7988 51.4133 50.5188 51.92L48.8188 55.22ZM52.6398 52V50.16L58.5598 44.9C59.0264 44.4733 59.3731 44.1467 59.5998 43.92C59.8398 43.68 60.0331 43.42 60.1798 43.14C60.3398 42.8467 60.4198 42.5333 60.4198 42.2C60.4198 41.5867 60.2064 41.08 59.7798 40.68C59.3531 40.2667 58.8264 40.06 58.1998 40.06C57.4798 40.06 56.8798 40.3267 56.3998 40.86C55.9198 41.38 55.6664 42.0733 55.6398 42.94H52.6798C52.6531 41.8867 52.8731 40.94 53.3398 40.1C53.8064 39.2467 54.4664 38.58 55.3198 38.1C56.1864 37.62 57.1598 37.38 58.2398 37.38C59.2398 37.38 60.1398 37.58 60.9398 37.98C61.7398 38.3667 62.3664 38.9067 62.8198 39.6C63.2731 40.28 63.4998 41.0533 63.4998 41.92C63.4998 42.72 63.2664 43.4667 62.7998 44.16C62.3331 44.8533 61.6264 45.6067 60.6798 46.42L57.3798 49.28V49.48H63.1798V52H52.6398ZM71.5026 52.38C70.2359 52.38 69.1092 52.0667 68.1226 51.44C67.1492 50.8 66.3892 49.9133 65.8426 48.78C65.2959 47.6333 65.0226 46.3333 65.0226 44.88C65.0226 43.4267 65.2959 42.1333 65.8426 41C66.3892 39.8533 67.1492 38.9667 68.1226 38.34C69.1092 37.7 70.2359 37.38 71.5026 37.38C72.7559 37.38 73.8759 37.7 74.8626 38.34C75.8492 38.9667 76.6159 39.8533 77.1626 41C77.7092 42.1333 77.9826 43.4267 77.9826 44.88C77.9826 46.3333 77.7092 47.6333 77.1626 48.78C76.6159 49.9133 75.8492 50.8 74.8626 51.44C73.8759 52.0667 72.7559 52.38 71.5026 52.38ZM71.5026 49.52C72.1292 49.52 72.6826 49.3267 73.1626 48.94C73.6426 48.5533 74.0092 48.0067 74.2626 47.3C74.5292 46.5933 74.6626 45.7867 74.6626 44.88C74.6626 43.9733 74.5292 43.1667 74.2626 42.46C74.0092 41.7533 73.6426 41.2067 73.1626 40.82C72.6826 40.4333 72.1292 40.24 71.5026 40.24C70.8759 40.24 70.3226 40.4333 69.8426 40.82C69.3626 41.2067 68.9892 41.7533 68.7226 42.46C68.4692 43.1667 68.3426 43.9733 68.3426 44.88C68.3426 45.7867 68.4692 46.5933 68.7226 47.3C68.9892 48.0067 69.3626 48.5533 69.8426 48.94C70.3226 49.3267 70.8759 49.52 71.5026 49.52ZM86.2096 52.38C84.9429 52.38 83.8163 52.0667 82.8296 51.44C81.8563 50.8 81.0963 49.9133 80.5496 48.78C80.0029 47.6333 79.7296 46.3333 79.7296 44.88C79.7296 43.4267 80.0029 42.1333 80.5496 41C81.0963 39.8533 81.8563 38.9667 82.8296 38.34C83.8163 37.7 84.9429 37.38 86.2096 37.38C87.4629 37.38 88.5829 37.7 89.5696 38.34C90.5563 38.9667 91.3229 39.8533 91.8696 41C92.4163 42.1333 92.6896 43.4267 92.6896 44.88C92.6896 46.3333 92.4163 47.6333 91.8696 48.78C91.3229 49.9133 90.5563 50.8 89.5696 51.44C88.5829 52.0667 87.4629 52.38 86.2096 52.38ZM86.2096 49.52C86.8363 49.52 87.3896 49.3267 87.8696 48.94C88.3496 48.5533 88.7163 48.0067 88.9696 47.3C89.2363 46.5933 89.3696 45.7867 89.3696 44.88C89.3696 43.9733 89.2363 43.1667 88.9696 42.46C88.7163 41.7533 88.3496 41.2067 87.8696 40.82C87.3896 40.4333 86.8363 40.24 86.2096 40.24C85.5829 40.24 85.0296 40.4333 84.5496 40.82C84.0696 41.2067 83.6963 41.7533 83.4296 42.46C83.1763 43.1667 83.0496 43.9733 83.0496 44.88C83.0496 45.7867 83.1763 46.5933 83.4296 47.3C83.6963 48.0067 84.0696 48.5533 84.5496 48.94C85.0296 49.3267 85.5829 49.52 86.2096 49.52ZM94.1726 52V47.96H94.8126V48.496H94.8926C95.01 48.2827 95.17 48.1147 95.3726 47.992C95.5806 47.864 95.8126 47.8 96.0686 47.8C96.3513 47.8 96.6126 47.872 96.8526 48.016C97.0926 48.16 97.2713 48.3493 97.3886 48.584H97.4606C97.6046 48.3387 97.7913 48.1493 98.0206 48.016C98.25 47.8773 98.514 47.808 98.8126 47.808C99.1273 47.808 99.4073 47.8853 99.6526 48.04C99.9033 48.1893 100.098 48.4 100.237 48.672C100.375 48.9387 100.445 49.2453 100.445 49.592V52H99.7806V49.584C99.7806 49.2427 99.682 48.96 99.4846 48.736C99.2873 48.512 99.0366 48.4 98.7326 48.4C98.4073 48.4 98.1406 48.512 97.9326 48.736C97.73 48.9547 97.6286 49.2373 97.6286 49.584V52H96.9646V49.584C96.9646 49.2267 96.8686 48.9413 96.6766 48.728C96.49 48.5093 96.2393 48.4 95.9246 48.4C95.5993 48.4 95.3353 48.5093 95.1326 48.728C94.9353 48.9413 94.8366 49.2267 94.8366 49.584V52H94.1726ZM101.827 52H101.091L102.611 49.896L101.171 47.96H101.883L102.987 49.464H103.067L104.171 47.96H104.883L103.443 49.896L104.963 52H104.227L103.067 50.352H102.987L101.827 52ZM105.688 52V47.96H106.352V48.512H106.432C106.576 48.288 106.758 48.1147 106.976 47.992C107.195 47.8693 107.438 47.808 107.704 47.808C108.04 47.808 108.334 47.8853 108.584 48.04C108.84 48.1893 109.038 48.4 109.176 48.672C109.315 48.9387 109.384 49.2427 109.384 49.584V52H108.72V49.584C108.72 49.2373 108.622 48.9547 108.424 48.736C108.227 48.5173 107.958 48.408 107.616 48.408C107.392 48.408 107.182 48.4613 106.984 48.568C106.792 48.6747 106.638 48.824 106.52 49.016C106.408 49.2027 106.352 49.4107 106.352 49.64V52H105.688Z" fill="black"/>
</svg>
